<svg width="40" height="40" viewBox="0 0 40 40" fill="none" xmlns="http://www.w3.org/2000/svg">
<path d="M0 0.000244141H39.9007V21.5934L37.9257 24.687L39.9007 27.4403V40.0002H0V19.6445L1.23436 18.2214L0 16.8603V0.000244141Z" fill="#016FD0"/>
<path d="M7.74561 27.8732V21.5933H14.3784L15.09 22.5233L15.8252 21.5933H39.9007V27.4401C39.9007 27.4401 39.2711 27.867 38.5429 27.8732H25.2118L24.4095 26.8833V27.8732H21.7803V26.1834C21.7803 26.1834 21.4211 26.4192 20.6447 26.4192H19.7498V27.8732H15.7689L15.0583 26.9233L14.3368 27.8732H7.74561Z" fill="white"/>
<path d="M0 16.8602L1.49573 13.3645H4.08243L4.93127 15.3227V13.3645H8.14678L8.65209 14.7798L9.14198 13.3645H23.5763V14.076C23.5763 14.076 24.3351 13.3645 25.5821 13.3645L30.2655 13.3809L31.0997 15.3135V13.3645H33.7906L34.5312 14.4746V13.3645H37.2468V19.6445H34.5312L33.8215 18.5308V19.6445H29.8679L29.4703 18.6545H28.4075L28.0164 19.6445H25.3352C24.2622 19.6445 23.5763 18.9475 23.5763 18.9475V19.6445H19.5337L18.7314 18.6545V19.6445H3.69922L3.30191 18.6545H2.24246L1.84796 19.6445H0V16.8602Z" fill="white"/>
<path d="M2.02522 14.1387L0.0078125 18.8409H1.32125L1.69349 17.8993H3.85747L4.22778 18.8409H5.57015L3.55467 14.1387H2.02522ZM2.77162 15.233L3.43123 16.8784H2.11008L2.77162 15.233Z" fill="#016FD0"/>
<path d="M5.70898 18.8402V14.1379L7.57545 14.1449L8.66105 17.1766L9.72065 14.1379H11.5722V18.8402H10.3996V15.3754L9.15653 18.8402H8.12812L6.88163 15.3754V18.8402H5.70898Z" fill="#016FD0"/>
<path d="M12.3745 18.8402V14.1379H16.201V15.1898H13.5595V15.9941H16.1393V16.984H13.5595V17.8193H16.201V18.8402H12.3745Z" fill="#016FD0"/>
<path d="M16.8799 14.1387V18.8409H18.0525V17.1704H18.5463L19.9523 18.8409H21.3853L19.8423 17.1085C20.4756 17.0549 21.1288 16.5101 21.1288 15.6642C21.1288 14.6747 20.354 14.1387 19.4894 14.1387H16.8799ZM18.0525 15.1905H19.393C19.7145 15.1905 19.9484 15.4426 19.9484 15.6855C19.9484 15.9979 19.6454 16.1804 19.4103 16.1804H18.0525V15.1905Z" fill="#016FD0"/>
<path d="M22.8048 18.8402H21.6074V14.1379H22.8048V18.8402Z" fill="#016FD0"/>
<path d="M25.6436 18.8402H25.3852C24.1347 18.8402 23.3755 17.8526 23.3755 16.5084C23.3755 15.131 24.1262 14.1379 25.7053 14.1379H27.0014V15.2516H25.658C25.0169 15.2516 24.5636 15.7531 24.5636 16.52C24.5636 17.4306 25.082 17.8131 25.8288 17.8131H26.1374L25.6436 18.8402Z" fill="#016FD0"/>
<path d="M28.1956 14.1387L26.1782 18.8409H27.4917L27.8639 17.8993H30.0279L30.3982 18.8409H31.7406L29.7251 14.1387H28.1956ZM28.942 15.233L29.6016 16.8784H28.2805L28.942 15.233Z" fill="#016FD0"/>
<path d="M31.8774 18.8402V14.1379H33.3683L35.2719 17.0923V14.1379H36.4446V18.8402H35.0019L33.0501 15.8085V18.8402H31.8774Z" fill="#016FD0"/>
<path d="M8.54785 27.0689V22.3667H12.3744V23.4185H9.73284V24.2229H12.3126V25.2128H9.73284V26.0481H12.3744V27.0689H8.54785Z" fill="#016FD0"/>
<path d="M27.2979 27.0689V22.3667H31.1244V23.4185H28.4828V24.2229H31.0503V25.2128H28.4828V26.0481H31.1244V27.0689H27.2979Z" fill="#016FD0"/>
<path d="M12.5229 27.0689L14.386 24.7468L12.4785 22.3667H13.9559L15.0919 23.8381L16.2317 22.3667H17.6513L15.7689 24.7178L17.6354 27.0689H16.1583L15.0552 25.6208L13.979 27.0689H12.5229Z" fill="#016FD0"/>
<path d="M17.7749 22.3674V27.0697H18.9784V25.5848H20.2128C21.2572 25.5848 22.0489 25.0293 22.0489 23.949C22.0489 23.0541 21.428 22.3674 20.3651 22.3674H17.7749ZM18.9784 23.4308H20.2783C20.6158 23.4308 20.8569 23.6382 20.8569 23.9722C20.8569 24.2861 20.617 24.5136 20.2745 24.5136H18.9784V23.4308Z" fill="#016FD0"/>
<path d="M22.5576 22.3667V27.0689H23.7303V25.3984H24.224L25.63 27.0689H27.063L25.5201 25.3365C26.1533 25.283 26.8065 24.7381 26.8065 23.8922C26.8065 22.9027 26.0318 22.3667 25.1671 22.3667H22.5576ZM23.7303 23.4185H25.0707C25.3922 23.4185 25.6262 23.6707 25.6262 23.9135C25.6262 24.2259 25.3231 24.4085 25.0881 24.4085H23.7303V23.4185Z" fill="#016FD0"/>
<path d="M31.6675 27.0689V26.0481H34.0143C34.3615 26.0481 34.5119 25.8599 34.5119 25.6536C34.5119 25.456 34.362 25.2561 34.0143 25.2561H32.9538C32.0319 25.2561 31.5186 24.6931 31.5186 23.8478C31.5186 23.0938 31.9887 22.3667 33.3585 22.3667H35.6421L35.1483 23.4247H33.1734C32.7958 23.4247 32.6796 23.6233 32.6796 23.813C32.6796 24.0079 32.8232 24.2229 33.1117 24.2229H34.2226C35.2502 24.2229 35.6961 24.8072 35.6961 25.5724C35.6961 26.3951 35.1992 27.0689 34.1666 27.0689H31.6675Z" fill="#016FD0"/>
<path d="M35.9717 27.0689V26.0481H38.3185C38.6657 26.0481 38.8161 25.8599 38.8161 25.6536C38.8161 25.456 38.6662 25.2561 38.3185 25.2561H37.258C36.3361 25.2561 35.8228 24.6931 35.8228 23.8478C35.8228 23.0938 36.2929 22.3667 37.6627 22.3667H39.9463L39.4525 23.4247H37.4776C37.1 23.4247 36.9838 23.6233 36.9838 23.813C36.9838 24.0079 37.1274 24.2229 37.4158 24.2229H38.5268C39.5544 24.2229 40.0003 24.8072 40.0003 25.5724C40.0003 26.3951 39.5034 27.0689 38.4708 27.0689H35.9717Z" fill="#016FD0"/>
</svg>
