<svg width="65" height="64" viewBox="0 0 65 64" fill="none" xmlns="http://www.w3.org/2000/svg">
<rect x="0.666016" width="64" height="64" rx="8" fill="#DBEAFE"/>
<path d="M32.9999 35.667H34.8332C36.8499 35.667 38.4999 34.017 38.4999 32.0003V13.667H21.9999C19.2499 13.667 16.8482 15.1886 15.6016 17.4253" stroke="#2B2F39" stroke-width="1.5" stroke-linecap="round" stroke-linejoin="round"/>
<path d="M14.666 41.167C14.666 44.2103 17.1227 46.667 20.166 46.667H21.9993C21.9993 44.6503 23.6493 43.0003 25.666 43.0003C27.6827 43.0003 29.3327 44.6503 29.3327 46.667H36.666C36.666 44.6503 38.316 43.0003 40.3327 43.0003C42.3493 43.0003 43.9993 44.6503 43.9993 46.667H45.8327C48.876 46.667 51.3327 44.2103 51.3327 41.167V35.667H45.8327C44.8243 35.667 43.9993 34.842 43.9993 33.8337V28.3337C43.9993 27.3253 44.8243 26.5003 45.8327 26.5003H48.1976L45.0627 21.0187C44.4027 19.882 43.1927 19.167 41.8727 19.167H38.4993V32.0003C38.4993 34.017 36.8493 35.667 34.8327 35.667H32.9993" stroke="#2B2F39" stroke-width="1.5" stroke-linecap="round" stroke-linejoin="round"/>
<path d="M25.6667 50.3333C27.6917 50.3333 29.3333 48.6917 29.3333 46.6667C29.3333 44.6416 27.6917 43 25.6667 43C23.6416 43 22 44.6416 22 46.6667C22 48.6917 23.6416 50.3333 25.6667 50.3333Z" stroke="#2B2F39" stroke-width="1.5" stroke-linecap="round" stroke-linejoin="round"/>
<path d="M40.3327 50.3333C42.3577 50.3333 43.9993 48.6917 43.9993 46.6667C43.9993 44.6416 42.3577 43 40.3327 43C38.3076 43 36.666 44.6416 36.666 46.6667C36.666 48.6917 38.3076 50.3333 40.3327 50.3333Z" stroke="#2B2F39" stroke-width="1.5" stroke-linecap="round" stroke-linejoin="round"/>
<path d="M51.3333 32V35.6667H45.8333C44.825 35.6667 44 34.8417 44 33.8333V28.3333C44 27.325 44.825 26.5 45.8333 26.5H48.1983L51.3333 32Z" stroke="#2B2F39" stroke-width="1.5" stroke-linecap="round" stroke-linejoin="round"/>
<path d="M14.666 24.667H25.666" stroke="#2B2F39" stroke-width="1.5" stroke-linecap="round" stroke-linejoin="round"/>
<path d="M14.666 30.167H21.9993" stroke="#2B2F39" stroke-width="1.5" stroke-linecap="round" stroke-linejoin="round"/>
<path d="M14.666 35.667H18.3327" stroke="#2B2F39" stroke-width="1.5" stroke-linecap="round" stroke-linejoin="round"/>
</svg>
