<svg width="64" height="64" viewBox="0 0 64 64" fill="none" xmlns="http://www.w3.org/2000/svg">
<rect width="64" height="64" rx="8" fill="#FFEDD5"/>
<g clip-path="url(#clip0_5025_160367)">
<path d="M12.6846 42.9528H40.0095C41.4049 42.9528 42.7296 42.8304 43.9576 42.4603C45.1647 42.0964 46.2888 41.4911 47.3107 40.5219C48.4609 39.4311 49.1503 38.0474 49.3849 36.4891C49.6285 34.8706 49.3849 33.0617 48.6611 31.1894L45.7874 23.7578C44.8318 21.2873 44.4441 21.29 42.0691 21.3078L41.904 21.309L43.483 33.3503C43.513 33.5792 43.5296 33.8072 43.5336 34.0333C43.5616 35.6379 42.9346 37.0303 41.9111 38.072C40.9043 39.0966 39.5128 39.7772 37.9895 39.9779C37.7423 40.0104 37.4896 40.0305 37.2325 40.0369C37.2088 40.0396 37.1848 40.0408 37.1603 40.0408H33.958C32.5555 40.0408 31.4902 39.6188 30.7451 38.9271C30.3175 38.53 30.0024 38.0498 29.7955 37.5137C29.5926 36.9876 29.4931 36.4135 29.4931 35.8172C29.4931 34.1912 30.2295 32.3451 31.6154 30.8442C31.8562 30.5837 32.0102 30.3152 32.0742 30.0654C32.12 29.8869 32.1164 29.7222 32.062 29.5868C32.0114 29.4621 31.9076 29.3508 31.7473 29.2653C31.5277 29.1481 31.2217 29.0792 30.8225 29.0792L20.8356 29.0717C17.8876 29.0693 15.5627 30.1513 13.7886 31.9868C11.7682 34.0772 10.4383 37.1515 9.70035 40.7321C9.46147 41.8917 9.60559 42.4349 10.0056 42.661C10.522 42.9528 11.5072 42.9528 12.685 42.9528M40.0099 44.283H12.6846C11.3188 44.283 10.1769 44.283 9.35723 43.8194C8.42143 43.2905 8.02105 42.3245 8.40406 40.4668C9.191 36.6479 10.6322 33.3452 12.8394 31.0619C13.6129 30.2618 14.4781 29.5876 15.4387 29.0602H11.6715C10.7988 29.0602 10.8466 27.7755 11.7169 27.7755L31.0417 27.779C31.9806 27.779 32.9152 28.1619 33.2896 29.0883C33.451 29.4882 33.4708 29.9364 33.3535 30.3932C33.2358 30.8509 32.9772 31.3177 32.5836 31.7437C31.431 32.9916 30.8186 34.5028 30.8186 35.8176C30.8186 36.2599 30.8873 36.6724 31.0278 37.0363C31.1645 37.3898 31.3678 37.7026 31.6407 37.956C32.1457 38.4251 32.9101 38.7114 33.9568 38.7114H37.1591C37.1737 38.7114 37.1879 38.7118 37.2021 38.7129C37.4075 38.7074 37.6132 38.6908 37.8173 38.6639C39.0477 38.5015 40.1651 37.9583 40.967 37.1424C41.752 36.3438 42.2325 35.2788 42.2112 34.0546C42.2081 33.8828 42.195 33.7054 42.1709 33.5221L40.4944 20.7354C40.447 20.3723 40.7025 20.0397 41.0646 19.9922C41.1017 19.9875 41.1384 19.9859 41.1747 19.9871C41.4942 19.9871 41.7903 19.9851 42.0635 19.9831C45.2196 19.9594 45.7349 19.9554 47.0201 23.2799L49.8938 30.7116C50.7033 32.8047 50.973 34.8445 50.6954 36.6867C50.4174 38.532 49.5937 40.1774 48.2169 41.4831C47.0268 42.6115 45.7262 43.3138 44.3351 43.7331C42.9646 44.1461 41.5179 44.2826 40.0087 44.2826L40.0099 44.283Z" fill="#2B2F39"/>
<path d="M26.9875 43.4701C26.8158 45.3119 25.9554 46.951 24.6682 48.1253C23.3908 49.2905 21.6945 50.0007 19.8336 50.0007C17.9727 50.0007 16.2764 49.2905 14.999 48.1253C13.7118 46.951 12.8518 45.3119 12.6797 43.4701L13.9961 43.3506C14.1359 44.8479 14.8383 46.1833 15.8906 47.143C16.9307 48.092 18.3142 48.6705 19.8336 48.6705C21.353 48.6705 22.7365 48.092 23.7766 47.143C24.8285 46.1833 25.5313 44.8479 25.6711 43.3506L26.9875 43.4701Z" fill="#2B2F39"/>
<path d="M56.2765 42.8622C56.1624 44.7558 55.3194 46.4519 54.0258 47.6721C52.739 48.886 51.0072 49.6295 49.104 49.6295C47.405 49.6295 45.8417 49.0364 44.6094 48.0447C43.3562 47.0363 42.4472 45.613 42.0879 43.981L43.3783 43.6952C43.6708 45.0243 44.4136 46.1855 45.4386 47.0105C46.4407 47.8166 47.7149 48.2992 49.104 48.2992C50.6589 48.2992 52.0713 47.6939 53.1188 46.7057C54.1743 45.7104 54.8617 44.3274 54.9549 42.7842L56.2765 42.8622Z" fill="#2B2F39"/>
<path d="M50.2436 35.4287C49.8831 35.3697 49.6383 35.0292 49.6967 34.6673C49.7555 34.3059 50.0951 34.0604 50.456 34.119C52.328 34.431 53.9745 35.4061 55.1472 36.795C56.3034 38.1644 57.0003 39.9346 57.0003 41.8662C57.0003 41.9565 56.9967 42.0753 56.99 42.2206C56.9853 42.3278 56.977 42.445 56.9655 42.5713C56.9383 42.8865 56.6954 43.1308 56.3954 43.1707V43.1715C53.6969 43.5346 52.4761 43.2052 51.2907 42.8853C50.2432 42.6026 49.2264 42.3282 46.9667 42.6762C46.6046 42.7309 46.267 42.4807 46.2125 42.1176C46.1581 41.7546 46.4076 41.4161 46.7697 41.3614C49.2987 40.9718 50.4481 41.2818 51.6327 41.6013C52.6119 41.8654 53.6184 42.137 55.6732 41.922C55.6732 41.9038 55.6732 41.8852 55.6732 41.8658C55.6732 40.2584 55.0951 38.7876 54.1364 37.6517C53.1615 36.4968 51.7946 35.686 50.2436 35.4275" fill="#2B2F39"/>
<path d="M27.03 43.2334C27.73 39.2529 26.7011 36.7405 24.8946 35.4569C23.99 34.814 22.8813 34.4679 21.692 34.3911C20.4735 34.3127 19.1756 34.5162 17.9239 34.9735C14.6245 36.1791 11.6691 39.1389 11.3548 43.3352L10.0332 43.2366C10.3909 38.4559 13.7381 35.0911 17.473 33.7264C18.8952 33.2065 20.3771 32.9757 21.7749 33.066C23.2019 33.1578 24.546 33.5835 25.6614 34.3761C27.8643 35.9415 29.1397 38.8922 28.3357 43.4619L27.03 43.233V43.2334Z" fill="#2B2F39"/>
<path fill-rule="evenodd" clip-rule="evenodd" d="M17.6653 37.252H22.0016C22.3664 37.252 22.6649 37.5513 22.6649 37.9171C22.6649 38.2829 22.3664 38.5822 22.0016 38.5822H17.6653C17.3005 38.5822 17.002 38.2829 17.002 37.9171C17.002 37.5513 17.3005 37.252 17.6653 37.252Z" fill="#2B2F39"/>
<path fill-rule="evenodd" clip-rule="evenodd" d="M17.6653 40.2139H22.0016C22.3664 40.2139 22.6649 40.5132 22.6649 40.879C22.6649 41.2448 22.3664 41.5441 22.0016 41.5441H17.6653C17.3005 41.5441 17.002 41.2448 17.002 40.879C17.002 40.5132 17.3005 40.2139 17.6653 40.2139Z" fill="#2B2F39"/>
<path d="M40.8198 23.6389C41.1203 23.4311 41.5321 23.5063 41.7398 23.808C41.9471 24.1093 41.8721 24.5222 41.5712 24.7304L41.5412 24.7514C41.1037 25.0547 40.4719 25.4926 40.4411 26.6304H40.4435V32.8407C40.4435 32.8625 40.4423 32.8843 40.4403 32.9052C40.4313 34.4002 41.1424 34.54 42.2867 34.7645C42.3333 34.7736 42.3806 34.7827 42.6823 34.8448C43.04 34.9181 43.271 35.2681 43.198 35.6268C43.1249 35.9854 42.7759 36.2171 42.4181 36.1438C42.3846 36.1371 42.2385 36.109 42.0332 36.0686C40.2176 35.7123 39.0923 35.491 39.1192 32.8918C39.118 32.8748 39.1172 32.8577 39.1172 32.8403V26.63H39.1196C39.1196 26.6257 39.1196 26.6213 39.1196 26.617C39.1618 24.7886 40.1245 24.1211 40.7902 23.6595L40.8202 23.6385L40.8198 23.6389Z" fill="#2B2F39"/>
<path d="M9.23288 39.2145C8.6181 39.2145 8.05978 38.9627 7.65545 38.5572C7.25113 38.1518 7 37.592 7 36.9756V35.0621C7 34.4457 7.25113 33.8859 7.65545 33.4805C8.05978 33.075 8.6181 32.8232 9.23288 32.8232H11.3872V34.1535H9.23288C8.98452 34.1535 8.75788 34.256 8.59322 34.4207C8.42857 34.5858 8.3267 34.8127 8.3267 35.0621V36.9756C8.3267 37.2246 8.42897 37.4519 8.59322 37.617C8.75788 37.782 8.98413 37.8842 9.23288 37.8842V39.2145Z" fill="#2B2F39"/>
<path d="M48.0753 25.9769C48.5112 26.7398 49.4802 27.3519 51.0146 27.4845V22.4208C49.5165 22.555 48.5377 23.1877 48.0879 23.972C47.9043 24.2923 47.8104 24.6371 47.808 24.9788C47.8056 25.3181 47.8941 25.6598 48.0753 25.9769ZM51.6171 28.8362C49.1868 28.8279 47.6295 27.8698 46.9247 26.6369C46.6274 26.1171 46.4821 25.5473 46.4864 24.9737C46.4904 24.4028 46.6436 23.8338 46.9425 23.312C47.6706 22.0423 49.2693 21.0518 51.6803 21.0696C52.0443 21.0712 52.3385 21.3673 52.3385 21.7319H52.3413V28.1738C52.3413 28.5412 52.0443 28.839 51.6779 28.839C51.6574 28.839 51.6373 28.8382 51.6171 28.8362Z" fill="#2B2F39"/>
<path d="M52.2312 27.771C51.879 27.8716 51.5125 27.6669 51.4122 27.3137C51.312 26.9606 51.5161 26.5932 51.8683 26.4926C52.2951 26.3703 52.5988 26.122 52.7832 25.8172C52.9387 25.5602 53.0153 25.2589 53.0146 24.9553C53.0138 24.6556 52.934 24.3547 52.7768 24.0934C52.5901 23.7834 52.2868 23.532 51.8683 23.4124C51.5161 23.3118 51.312 22.9444 51.4122 22.5913C51.5125 22.2381 51.879 22.0334 52.2312 22.134C52.9988 22.3529 53.5602 22.8237 53.912 23.4072C54.1928 23.8732 54.3349 24.4137 54.3365 24.9549C54.3381 25.4921 54.1975 26.0325 53.9136 26.5025C53.5634 27.0821 53.0031 27.5497 52.2316 27.7706" fill="#2B2F39"/>
<path d="M38.6087 22.4035C38.2422 22.4035 37.9453 22.1058 37.9453 21.7384C37.9453 21.371 38.2422 21.0732 38.6087 21.0732H41.0437C41.4101 21.0732 41.7071 21.371 41.7071 21.7384C41.7071 22.1058 41.4101 22.4035 41.0437 22.4035H38.6087Z" fill="#2B2F39"/>
<path d="M23.0134 43.4268C22.9569 44.217 22.6142 44.9277 22.0882 45.455C21.5113 46.0334 20.7145 46.391 19.8348 46.391C18.9551 46.391 18.1579 46.033 17.5814 45.455C17.0554 44.9277 16.7127 44.217 16.6562 43.4268H17.9889C18.041 43.8492 18.2341 44.2281 18.5196 44.5143C18.856 44.852 19.3211 45.0607 19.8352 45.0607C20.3493 45.0607 20.814 44.852 21.1508 44.5143C21.4363 44.2281 21.6294 43.8492 21.6815 43.4268H23.0141H23.0134Z" fill="#2B2F39"/>
<path d="M52.36 42.4607C52.3616 42.4999 52.362 42.5391 52.362 42.5783C52.362 43.4608 52.005 44.2593 51.4285 44.8377C50.8517 45.4162 50.0549 45.7737 49.1751 45.7737C48.2954 45.7737 47.4982 45.4158 46.9217 44.8377C46.3448 44.2593 45.9883 43.4604 45.9883 42.5783C45.9883 42.5276 45.9895 42.4773 45.9918 42.4274C46.3966 42.2861 46.8625 42.1618 47.3888 42.0557C47.3406 42.2216 47.315 42.3969 47.315 42.5783C47.315 43.0934 47.5231 43.5597 47.8599 43.8974C48.1967 44.2352 48.6614 44.4438 49.1755 44.4438C49.6896 44.4438 50.1544 44.2352 50.4912 43.8974C50.8276 43.5597 51.0361 43.0937 51.0361 42.5783C51.0361 42.4749 51.0278 42.3736 51.0116 42.2746L52.3608 42.4607H52.36Z" fill="#2B2F39"/>
<path d="M22.5138 14.3303H13.0429C12.9588 14.3303 12.8822 14.3651 12.8257 14.4213C12.7696 14.4775 12.7349 14.5547 12.7349 14.6391V24.1354C12.7349 24.3872 12.838 24.6165 13.0042 24.7831C13.1704 24.9498 13.399 25.0532 13.6502 25.0532H21.9069C22.158 25.0532 22.3866 24.9498 22.5529 24.7831C22.7191 24.6165 22.8222 24.3872 22.8222 24.1354V14.6391C22.8222 14.5547 22.7874 14.4779 22.7313 14.4213C22.6753 14.3651 22.5983 14.3303 22.5142 14.3303M13.0429 13H22.5138C22.9639 13 23.373 13.1841 23.6687 13.481C23.9649 13.778 24.1485 14.1877 24.1485 14.6391V24.1354C24.1485 24.7542 23.8966 25.3164 23.4903 25.7234C23.0843 26.1304 22.5237 26.3834 21.9065 26.3834H13.6498C13.0326 26.3834 12.4719 26.1308 12.066 25.7234C11.6601 25.3164 11.4082 24.7542 11.4082 24.1354V14.6391C11.4082 14.1877 11.5918 13.7776 11.8879 13.481C12.1841 13.1841 12.5928 13 13.0429 13Z" fill="#2B2F39"/>
<path d="M23.4844 17.1396H11.9492V18.4699H23.4844V17.1396Z" fill="#2B2F39"/>
<path d="M21.6123 17.8203V21.1076C21.6123 21.475 21.3154 21.7727 20.949 21.7727C20.8748 21.7727 20.8029 21.7604 20.7362 21.7379L19.0288 21.2505L17.2903 21.7466C16.9381 21.8471 16.5717 21.6425 16.4714 21.2893C16.454 21.2287 16.4461 21.1674 16.4457 21.1076H16.4453V17.8813H17.772V20.2275L18.8373 19.9234C18.9546 19.8878 19.0833 19.8846 19.2101 19.9206L20.2852 20.2275V17.8203H21.6119H21.6123Z" fill="#2B2F39"/>
<path fill-rule="evenodd" clip-rule="evenodd" d="M25.6341 25.1133H33.4746C33.8395 25.1133 34.138 25.4126 34.138 25.7784C34.138 26.1442 33.8395 26.4435 33.4746 26.4435H25.6341C25.2692 26.4435 24.9707 26.1442 24.9707 25.7784C24.9707 25.4126 25.2692 25.1133 25.6341 25.1133Z" fill="#2B2F39"/>
</g>
<defs>
<clipPath id="clip0_5025_160367">
<rect width="50" height="37" fill="white" transform="translate(7 13)"/>
</clipPath>
</defs>
</svg>
