<svg width="24" height="24" viewBox="0 0 24 24" fill="none" xmlns="http://www.w3.org/2000/svg">
<path d="M13.7187 13.289C17.1068 13.289 19.8632 10.5326 19.8632 7.14449C19.8632 3.75638 17.1068 1 13.7187 1C10.3306 1 7.57422 3.75638 7.57422 7.14449C7.57422 10.5326 10.3306 13.289 13.7187 13.289ZM13.7187 2.28905C16.396 2.28905 18.5741 4.46717 18.5741 7.14449C18.5741 9.82181 16.396 11.9999 13.7187 11.9999C11.0414 11.9999 8.86327 9.82181 8.86327 7.14449C8.86327 4.46717 11.0414 2.28905 13.7187 2.28905Z" fill="#3772FF"/>
<path d="M14.4332 6.51374C14.1121 6.40013 13.5884 6.20931 13.326 6.00353C13.3101 5.99103 13.2803 5.91621 13.3012 5.80505C13.3113 5.75168 13.3574 5.57355 13.5303 5.52143C13.7973 5.44052 14.0508 5.49366 14.2171 5.61681C14.4795 5.85584 14.8861 5.83766 15.1261 5.57573C15.3658 5.31409 15.3488 4.90821 15.0886 4.66742C15.0886 4.66742 14.79 4.40154 14.363 4.27573V4.22266C14.363 3.86671 14.0744 3.57812 13.7184 3.57812C13.3625 3.57812 13.0739 3.86671 13.0739 4.22266V4.31589C11.9154 4.73724 11.643 6.32201 12.5305 7.01793C12.9349 7.33495 13.5127 7.55533 14.0032 7.72892C14.3227 7.84193 14.3551 8.07103 14.3261 8.24338C14.2939 8.43515 14.1287 8.76047 13.7141 8.76318C13.2843 8.76593 13.1824 8.75016 12.8687 8.54486C12.5708 8.34995 12.1714 8.43326 11.9764 8.73116C11.7815 9.02902 11.8649 9.42849 12.1627 9.62344C12.5054 9.84769 12.7767 9.95882 13.0739 10.0108V10.0728C13.0739 10.4288 13.3625 10.7174 13.7184 10.7174C14.0744 10.7174 14.3629 10.4288 14.3629 10.0728V9.93797C15.9245 9.37358 16.1317 7.11452 14.4332 6.51374Z" fill="#3772FF"/>
<path d="M19.6505 13.5468L12.2618 15.2281C12.0927 15.0745 11.8985 14.9455 11.6835 14.8487L7.88946 13.1467C6.78591 12.65 5.5228 12.6561 4.42724 13.1618L1.37777 14.5494C1.05374 14.6968 0.910616 15.079 1.05808 15.403C1.20551 15.727 1.58767 15.8702 1.91165 15.7227L4.9643 14.3336C5.72407 13.9829 6.59745 13.9788 7.36117 14.3225L11.1552 16.0245C11.4868 16.1738 11.6993 16.5053 11.6993 16.8661C11.6993 17.5331 11.0127 17.9844 10.3978 17.7076L7.11719 16.2313C6.79248 16.0852 6.41101 16.23 6.26496 16.5546C6.11886 16.8792 6.26362 17.2608 6.58821 17.4068L9.8688 18.8831C11.5189 19.6257 13.3252 18.1731 12.9376 16.3962C17.7502 15.3011 19.9642 14.798 19.9949 14.7889C20.8636 14.5321 21.7109 15.1845 21.7109 16.0696C21.7109 16.5394 21.4599 16.9799 21.0573 17.2184L14.1134 21.3081C13.381 21.7421 12.5 21.8296 11.6965 21.5482L6.36928 19.6838C6.22573 19.6335 6.06902 19.6357 5.92692 19.6898L1.41524 21.4085C1.08258 21.5353 0.915686 21.9077 1.0424 22.2403C1.16911 22.5729 1.54152 22.7399 1.87414 22.6131L6.16574 20.9782L11.2705 22.7648C12.4109 23.1642 13.6887 23.0581 14.7691 22.418L21.7129 18.3283C22.5069 17.8579 23 16.9925 23 16.0696C23 14.3415 21.345 13.0605 19.6505 13.5468Z" fill="#3772FF"/>
</svg>
