<svg width="24" height="24" viewBox="0 0 24 24" fill="none" xmlns="http://www.w3.org/2000/svg">
<path d="M18 5.5C18 5 17.9996 4.30801 17.1566 3.46101C16.3126 2.61401 14.9546 2.61401 12.2396 2.61401H9.35961C6.64361 2.61401 5.28661 2.61401 4.44361 3.46101C3.59961 4.30801 3.59961 5.67101 3.59961 8.39701V13.217C3.59961 15.943 3.59961 17.306 4.44361 18.153C5.28661 19 6.5 19 7.5 19" stroke="black" stroke-width="1.5"/>
<path d="M7.42461 5.44521L7.4243 5.44553C7.13954 5.74689 6.95419 6.17283 6.85391 6.96203C6.75143 7.76866 6.75 8.8353 6.75 10.3526V15.6474C6.75 17.1647 6.75143 18.2313 6.85391 19.038C6.95419 19.8272 7.13954 20.2531 7.4243 20.5545L7.42461 20.5548C7.70311 20.8499 8.08836 21.0379 8.81404 21.1412C9.56586 21.2482 10.5635 21.25 12 21.25H15C16.4365 21.25 17.4341 21.2482 18.1861 21.1412C18.9119 21.0379 19.2976 20.8499 19.5767 20.5545L7.42461 5.44521ZM7.42461 5.44521C7.70317 5.15005 8.08822 4.96211 8.81367 4.85881M7.42461 5.44521L8.81367 4.85881M8.81367 4.85881C9.56535 4.75178 10.563 4.75 12 4.75M8.81367 4.85881L12 4.75M12 4.75H15M12 4.75H15M15 4.75C16.4365 4.75 17.4341 4.75178 18.1861 4.85882M15 4.75L18.1861 4.85882M18.1861 4.85882C18.9116 4.96209 19.2973 5.15001 19.5764 5.44521L18.1861 4.85882ZM19.5767 5.44553C19.861 5.74685 20.0461 6.17285 20.1462 6.96192C20.2486 7.76862 20.25 8.83532 20.25 10.3526V15.6474C20.25 17.1647 20.2486 18.2314 20.1462 19.0381C20.0461 19.8271 19.861 20.2531 19.5767 20.5545V5.44553Z" stroke="black" stroke-width="1.5"/>
</svg>
