<svg width="24" height="24" viewBox="0 0 24 24" fill="none" xmlns="http://www.w3.org/2000/svg">
<path d="M22.427 11.6444H22.1564L21.3061 7.72745C21.1892 7.18952 20.7389 6.81386 20.2103 6.81386H16.7753V5.64142C16.7753 4.73631 16.0697 4 15.2023 4C14.6691 4 3.10634 4 2.57307 4C1.70563 4 1 4.73631 1 5.64142V17.1783C1 18.0829 1.70563 18.8197 2.57303 18.8197H3.84674C4.15729 20.3252 5.44313 21.4573 6.97753 21.4573C8.51193 21.4573 9.79777 20.3252 10.1083 18.8197H16.5771C16.8876 20.3252 18.1735 21.4573 19.7078 21.4573C21.2629 21.4573 22.5627 20.2952 22.8503 18.7593C23.5128 18.566 24 17.9305 24 17.1783V13.2858C24 12.3806 23.2944 11.6444 22.427 11.6444ZM22.6517 13.2858V16.8018C22.1618 15.6106 21.0265 14.7744 19.7078 14.7744C18.3991 14.7744 17.2715 15.5979 16.7753 16.7746V13.0513H22.4269C22.551 13.0513 22.6517 13.1563 22.6517 13.2858ZM20.0306 8.22081L20.7739 11.6444H16.7753V8.22081H20.0306ZM11.1052 5.40695V7.9488L9.1389 7.12478C8.9783 7.05738 8.79767 7.05709 8.6364 7.12478L6.67013 7.9488V5.40695H11.1052ZM2.34833 17.1783V5.64142C2.34833 5.512 2.449 5.40695 2.57303 5.40695H5.3218V8.98947C5.3218 9.48648 5.80345 9.82773 6.24719 9.6423L8.88765 8.536L11.5281 9.6423C11.9726 9.82783 12.4535 9.48569 12.4535 8.98947V5.40695H15.2023C15.3263 5.40695 15.427 5.512 15.427 5.64142V17.4128H10.1083C9.79777 15.9064 8.51193 14.7743 6.97753 14.7743C5.44313 14.7743 4.15729 15.9064 3.84674 17.4128H2.57303C2.449 17.4128 2.34833 17.3073 2.34833 17.1783ZM6.97753 20.0503C5.68248 20.0503 4.77438 18.6875 5.24988 17.4128C5.99104 15.4408 8.83146 15.9738 8.83146 18.1163C8.83146 19.1855 7.99753 20.0503 6.97753 20.0503ZM19.7078 20.0503C18.407 20.0503 17.5057 18.679 17.9806 17.4128C18.2508 16.693 18.9231 16.1813 19.7078 16.1813C21.0115 16.1813 21.9105 17.558 21.4346 18.8198C21.1649 19.5392 20.4926 20.0503 19.7078 20.0503Z" fill="#3772FF"/>
<path d="M11.0687 12.5099H13.9166C14.3051 12.5099 14.62 12.195 14.62 11.8065C14.62 11.418 14.3051 11.103 13.9166 11.103H11.0687C10.6802 11.103 10.3652 11.418 10.3652 11.8065C10.3652 12.195 10.6802 12.5099 11.0687 12.5099Z" fill="#3772FF"/>
<path d="M13.9154 14.3042H12.0023C11.6138 14.3042 11.2988 14.6192 11.2988 15.0077C11.2988 15.3962 11.6138 15.7111 12.0023 15.7111H13.9154C14.3039 15.7111 14.6188 15.3962 14.6188 15.0077C14.6188 14.6192 14.3039 14.3042 13.9154 14.3042Z" fill="#3772FF"/>
</svg>
