<svg width="21" height="24" viewBox="0 0 21 24" fill="red" xmlns="http://www.w3.org/2000/svg">
<g clip-path="url(#clip0_14_7)">
<path d="M20.4134 6.51181L20.4127 6.49313C20.4023 6.2626 20.3953 6.01871 20.3911 5.74734C20.3715 4.42404 19.3196 3.32944 17.9961 3.25547C15.2367 3.10148 13.1021 2.2017 11.2782 0.423934L11.2626 0.409102C10.6677 -0.136367 9.77029 -0.136367 9.1752 0.409102L9.15963 0.423934C7.33573 2.2017 5.20109 3.10148 2.4417 3.25565C1.1184 3.32944 0.0662754 4.42404 0.0466832 5.74753C0.0426549 6.01706 0.0355138 6.26095 0.0250768 6.49313L0.0239782 6.53653C-0.0296715 9.3503 -0.0963217 12.8522 1.07518 16.0307C1.71935 17.7786 2.69493 19.298 3.97465 20.547C5.43217 21.9693 7.34122 23.0986 9.64871 23.9031C9.72378 23.9293 9.80178 23.9505 9.88125 23.9665C9.99331 23.9888 10.1061 24 10.2189 24C10.3317 24 10.4447 23.9888 10.5565 23.9665C10.636 23.9505 10.7146 23.9291 10.79 23.9028C13.0947 23.0967 15.0018 21.967 16.458 20.5448C17.7372 19.2955 18.7128 17.7757 19.3575 16.0274C20.5334 12.8394 20.4669 9.33089 20.4134 6.51181ZM18.0362 15.5402C16.8006 18.8903 14.2783 21.191 10.3253 22.5734C10.3112 22.5782 10.2962 22.5824 10.2806 22.5855C10.2398 22.5935 10.1982 22.5935 10.1568 22.5853C10.1414 22.5822 10.1264 22.5782 10.1125 22.5734C6.15525 21.1935 3.63133 18.8941 2.39665 15.5438C1.31688 12.614 1.37804 9.39937 1.43206 6.56344L1.43242 6.5477C1.44341 6.30398 1.45073 6.04874 1.45476 5.76822C1.46355 5.18063 1.93157 4.69449 2.52025 4.66172C4.08177 4.57456 5.45359 4.2728 6.71408 3.73923C7.97293 3.2064 9.09097 2.4553 10.1317 1.4431C10.1847 1.39842 10.2533 1.39824 10.3061 1.4431C11.347 2.4553 12.465 3.2064 13.7237 3.73923C14.9842 4.2728 16.356 4.57456 17.9177 4.66172C18.5064 4.69449 18.9744 5.18063 18.983 5.7684C18.9872 6.05038 18.9946 6.30563 19.0056 6.5477C19.0594 9.38692 19.1191 12.6041 18.0362 15.5402Z" fill="#3772FF"/>
<path d="M10.2184 6.01904C6.92035 6.01904 4.2373 8.70227 4.2373 12.0002C4.2373 15.2983 6.92035 17.9815 10.2184 17.9815C13.5164 17.9815 16.1996 15.2983 16.1996 12.0002C16.1996 8.70227 13.5164 6.01904 10.2184 6.01904ZM10.2184 16.5731C7.6969 16.5731 5.64557 14.5217 5.64557 12.0002C5.64557 9.47864 7.6969 7.42731 10.2184 7.42731C12.7398 7.42731 14.7911 9.47864 14.7911 12.0002C14.7911 14.5217 12.7398 16.5731 10.2184 16.5731Z" fill="#3772FF"/>
<path d="M11.9382 10.1434L9.16017 12.9215L8.40614 12.1675C8.13112 11.8924 7.68526 11.8924 7.41023 12.1675C7.13539 12.4425 7.13539 12.8884 7.41023 13.1632L8.66231 14.4153C8.79982 14.5528 8.98 14.6214 9.16017 14.6214C9.34035 14.6214 9.52052 14.5528 9.65804 14.4153L12.9342 11.1391C13.209 10.8641 13.209 10.4183 12.9342 10.1434C12.6591 9.86821 12.2133 9.86821 11.9382 10.1434Z" fill="#3772FF"/>
</g>
<defs>
<clipPath id="clip0_14_7">
<rect width="21" height="24" fill="white"/>
</clipPath>
</defs>
</svg>
