<svg width="20" height="20" viewBox="0 0 20 20" fill="none" xmlns="http://www.w3.org/2000/svg">
<path d="M10 20C15.5228 20 20 15.5228 20 10C20 4.47715 15.5228 0 10 0C4.47715 0 0 4.47715 0 10C0 15.5228 4.47715 20 10 20Z" fill="url(#paint0_linear_1067_50800)"/>
<path d="M12.755 6.65546C12.4193 6.65546 12.1465 6.92822 12.1465 7.26393C12.1465 7.59964 12.4193 7.87241 12.755 7.87241C13.0907 7.87241 13.3634 7.59964 13.3634 7.26393C13.3634 6.92822 13.0907 6.65546 12.755 6.65546Z" fill="white"/>
<path d="M10.0406 7.44019C8.62637 7.44019 7.47656 8.59 7.47656 10.0042C7.47656 11.4184 8.62637 12.5682 10.0406 12.5682C11.4547 12.5682 12.6046 11.4184 12.6046 10.0042C12.6046 8.59 11.4547 7.44019 10.0406 7.44019ZM10.0406 11.645C9.13414 11.645 8.39977 10.9064 8.39977 10.0042C8.39977 9.10196 9.13833 8.36339 10.0406 8.36339C10.9428 8.36339 11.6813 9.10196 11.6813 10.0042C11.6813 10.9064 10.9428 11.645 10.0406 11.645Z" fill="white"/>
<path d="M12.0757 15.2077H7.92123C6.19652 15.2077 4.79492 13.8061 4.79492 12.0814V7.92697C4.79492 6.20225 6.19652 4.80066 7.92123 4.80066H12.0757C13.8004 4.80066 15.202 6.20225 15.202 7.92697V12.0814C15.202 13.8061 13.8004 15.2077 12.0757 15.2077ZM7.92123 5.77842C6.73785 5.77842 5.77268 6.74359 5.77268 7.92697V12.0814C5.77268 13.2648 6.73785 14.23 7.92123 14.23H12.0757C13.259 14.23 14.2242 13.2648 14.2242 12.0814V7.92697C14.2242 6.74359 13.259 5.77842 12.0757 5.77842H7.92123Z" fill="white"/>
<defs>
<linearGradient id="paint0_linear_1067_50800" x1="2.92908" y1="2.92908" x2="17.0709" y2="17.0751" gradientUnits="userSpaceOnUse">
<stop stop-color="#FFE185"/>
<stop offset="0.21" stop-color="#FFBB36"/>
<stop offset="0.38" stop-color="#FF5176"/>
<stop offset="0.52" stop-color="#F63395"/>
<stop offset="0.74" stop-color="#A436D2"/>
<stop offset="1" stop-color="#5F4EED"/>
</linearGradient>
</defs>
</svg>
