<svg width="20" height="20" viewBox="0 0 20 20" fill="none" xmlns="http://www.w3.org/2000/svg">
<path d="M10 20C15.5228 20 20 15.5228 20 10C20 4.47715 15.5228 0 10 0C4.47715 0 0 4.47715 0 10C0 15.5228 4.47715 20 10 20Z" fill="url(#paint0_linear_1067_50790)"/>
<path d="M5.992 7.65838H7.71252V13.1808H5.992V7.65838ZM6.85226 4.91394C7.40198 4.91394 7.8468 5.35876 7.8468 5.90849C7.8468 6.45822 7.40198 6.90303 6.85226 6.90303C6.30253 6.90303 5.85352 6.45822 5.85352 5.90849C5.85352 5.35876 6.29833 4.91394 6.85226 4.91394Z" fill="white"/>
<path d="M8.7874 7.65838H10.4324V8.41373H10.4534C10.6842 7.97731 11.2423 7.5199 12.0774 7.5199C13.8147 7.5199 14.1378 8.66132 14.1378 10.151V13.1808H12.4215V10.4951C12.4215 9.85309 12.4089 9.03059 11.5276 9.03059C10.6464 9.03059 10.4995 9.7272 10.4995 10.449V13.1808H8.7832V7.65838H8.7874Z" fill="white"/>
<defs>
<linearGradient id="paint0_linear_1067_50790" x1="2.92488" y1="2.92908" x2="17.0709" y2="17.0751" gradientUnits="userSpaceOnUse">
<stop stop-color="#007BB8"/>
<stop offset="1" stop-color="#0044E9"/>
</linearGradient>
</defs>
</svg>
