<svg width="40" height="40" viewBox="0 0 40 40" fill="none" xmlns="http://www.w3.org/2000/svg">
<g clip-path="url(#clip0_5188_108894)">
<path d="M7.24986 34.9342V32.9432C7.24986 32.1816 6.76947 31.6829 5.94481 31.6829C5.53248 31.6829 5.08412 31.8143 4.77588 32.2473C4.53569 31.8839 4.19141 31.6829 3.675 31.6829C3.33072 31.6829 2.98645 31.7834 2.71423 32.1468V31.7486H1.99365V34.9342H2.71423V33.1751C2.71423 32.6107 3.02248 32.344 3.50286 32.344C3.98324 32.344 4.22344 32.6416 4.22344 33.1751V34.9342H4.94401V33.1751C4.94401 32.6107 5.28829 32.344 5.73264 32.344C6.21303 32.344 6.45322 32.6416 6.45322 33.1751V34.9342H7.24986ZM17.9384 31.7486H16.7695V30.786H16.0489V31.7486H15.3964V32.3787H16.0489V33.8401C16.0489 34.5708 16.3571 34.9999 17.1818 34.9999C17.49 34.9999 17.8343 34.8994 18.0745 34.7679L17.8663 34.1687C17.6582 34.3001 17.418 34.3349 17.2459 34.3349C16.9016 34.3349 16.7655 34.1339 16.7655 33.8053V32.3787H17.9344V31.7486H17.9384ZM24.0553 31.679C23.643 31.679 23.3668 31.88 23.1946 32.1429V31.7447H22.474V34.9303H23.1946V33.1365C23.1946 32.6068 23.4348 32.3053 23.8832 32.3053C24.0193 32.3053 24.1914 32.3401 24.3315 32.371L24.5397 31.7061C24.3956 31.679 24.1914 31.679 24.0553 31.679ZM14.8119 32.0115C14.4676 31.7795 13.9872 31.679 13.4708 31.679C12.6462 31.679 12.0977 32.0772 12.0977 32.7074C12.0977 33.237 12.5101 33.5385 13.2306 33.6352L13.5749 33.67C13.9512 33.7357 14.1594 33.8362 14.1594 34.0025C14.1594 34.2344 13.8832 34.4007 13.4028 34.4007C12.9224 34.4007 12.5421 34.2344 12.3019 34.0682L11.9576 34.5978C12.3339 34.8646 12.8503 34.996 13.3667 34.996C14.3275 34.996 14.88 34.563 14.88 33.9677C14.88 33.4032 14.4316 33.1056 13.7471 33.005L13.4028 32.9702C13.0945 32.9354 12.8543 32.8697 12.8543 32.6726C12.8543 32.4406 13.0945 32.3092 13.4748 32.3092C13.8872 32.3092 14.2995 32.4754 14.5077 32.5759L14.8119 32.0115ZM33.9832 31.679C33.5709 31.679 33.2947 31.88 33.1226 32.1429V31.7447H32.402V34.9303H33.1226V33.1365C33.1226 32.6068 33.3627 32.3053 33.8111 32.3053C33.9472 32.3053 34.1193 32.3401 34.2595 32.371L34.4676 31.7138C34.3275 31.679 34.1234 31.679 33.9832 31.679ZM24.7759 33.3414C24.7759 34.304 25.4644 34.9999 26.5293 34.9999C27.0097 34.9999 27.3539 34.8994 27.6982 34.6365L27.3539 34.072C27.0777 34.2731 26.8055 34.3697 26.4932 34.3697C25.9088 34.3697 25.4965 33.9715 25.4965 33.3414C25.4965 32.7421 25.9088 32.344 26.4932 32.313C26.8015 32.313 27.0777 32.4135 27.3539 32.6107L27.6982 32.0463C27.3539 31.7795 27.0097 31.6829 26.5293 31.6829C25.4644 31.679 24.7759 32.3787 24.7759 33.3414ZM31.4412 33.3414V31.7486H30.7206V32.1468C30.4804 31.8491 30.1362 31.6829 29.6878 31.6829C28.7591 31.6829 28.0385 32.3787 28.0385 33.3414C28.0385 34.304 28.7591 34.9999 29.6878 34.9999C30.1682 34.9999 30.5125 34.8336 30.7206 34.536V34.9342H31.4412V33.3414ZM28.7951 33.3414C28.7951 32.7769 29.1714 32.313 29.7919 32.313C30.3764 32.313 30.7887 32.746 30.7887 33.3414C30.7887 33.9058 30.3764 34.3697 29.7919 34.3697C29.1754 34.3349 28.7951 33.9019 28.7951 33.3414ZM20.1722 31.679C19.2114 31.679 18.5229 32.344 18.5229 33.3375C18.5229 34.3349 19.2114 34.996 20.2082 34.996C20.6886 34.996 21.169 34.8646 21.5493 34.563L21.205 34.0643C20.9288 34.2653 20.5845 34.3968 20.2443 34.3968C19.7959 34.3968 19.3515 34.1958 19.2475 33.6352H21.6854C21.6854 33.5347 21.6854 33.469 21.6854 33.3684C21.7174 32.344 21.0969 31.679 20.1722 31.679ZM20.1722 32.2782C20.6206 32.2782 20.9288 32.545 20.9969 33.0398H19.2795C19.3475 32.6107 19.6558 32.2782 20.1722 32.2782ZM38.0745 33.3414V30.4883H37.3539V32.1468C37.1137 31.8491 36.7695 31.6829 36.3211 31.6829C35.3924 31.6829 34.6718 32.3787 34.6718 33.3414C34.6718 34.304 35.3924 34.9999 36.3211 34.9999C36.8015 34.9999 37.1458 34.8336 37.3539 34.536V34.9342H38.0745V33.3414ZM35.4284 33.3414C35.4284 32.7769 35.8047 32.313 36.4252 32.313C37.0097 32.313 37.422 32.746 37.422 33.3414C37.422 33.9058 37.0097 34.3697 36.4252 34.3697C35.8047 34.3349 35.4284 33.9019 35.4284 33.3414ZM11.3051 33.3414V31.7486H10.5845V32.1468C10.3443 31.8491 10.0001 31.6829 9.5517 31.6829C8.62296 31.6829 7.90238 32.3787 7.90238 33.3414C7.90238 34.304 8.62296 34.9999 9.5517 34.9999C10.0321 34.9999 10.3764 34.8336 10.5845 34.536V34.9342H11.3051V33.3414ZM8.62696 33.3414C8.62696 32.7769 9.00326 32.313 9.62376 32.313C10.2082 32.313 10.6206 32.746 10.6206 33.3414C10.6206 33.9058 10.2082 34.3697 9.62376 34.3697C9.00326 34.3349 8.62696 33.9019 8.62696 33.3414Z" fill="black"/>
<path d="M25.3964 7.55542H14.5718V26.3363H25.3964V7.55542Z" fill="#FF5A00"/>
<path d="M15.2922 16.9459C15.2922 13.1302 17.1497 9.74356 20 7.55541C17.9023 5.96263 15.2562 5 12.3699 5C5.53243 5 0 10.3428 0 16.9459C0 23.549 5.53243 28.8917 12.3699 28.8917C15.2562 28.8917 17.9023 27.9291 20 26.3363C17.1457 24.1791 15.2922 20.7616 15.2922 16.9459Z" fill="#EB001B"/>
<path d="M40 16.9459C40 23.549 34.4676 28.8917 27.6301 28.8917C24.7438 28.8917 22.0977 27.9291 20 26.3363C22.8863 24.1443 24.7078 20.7616 24.7078 16.9459C24.7078 13.1302 22.8503 9.74356 20 7.55541C22.0937 5.96263 24.7398 5 27.6261 5C34.4676 5 40 10.3776 40 16.9459Z" fill="#F79E1B"/>
</g>
<defs>
<clipPath id="clip0_5188_108894">
<rect width="40" height="30" fill="white" transform="translate(0 5)"/>
</clipPath>
</defs>
</svg>
