<svg width="49" height="48" viewBox="0 0 49 48" fill="none" xmlns="http://www.w3.org/2000/svg">
<path d="M19.5 10V7C19.5 5.89543 20.3954 5 21.5 5H41.5C42.6046 5 43.5 5.89543 43.5 7V29C43.5 30.1046 42.6046 31 41.5 31H37.5" stroke="#585C68"/>
<path d="M27.5 18H7.5C6.39543 18 5.5 18.8954 5.5 20V40C5.5 41.1046 6.39543 42 7.5 42H27.5C28.6046 42 29.5 41.1046 29.5 40V20C29.5 18.8954 28.6046 18 27.5 18Z" stroke="#585C68"/>
<path d="M17.5 25V35" stroke="#585C68"/>
<path d="M12.5 30H22.5" stroke="#585C68"/>
</svg>
