<svg width="24" height="24" viewBox="0 0 24 24" fill="none" xmlns="http://www.w3.org/2000/svg">
<path d="M14.0919 2.19941C13.5134 2.07661 13.0008 2.54295 13.0008 3.13432V3.1655C13.0008 3.67057 13.3798 4.08967 13.8714 4.20558C17.794 5.13044 20.4643 8.87632 19.9608 12.97C19.5383 16.3128 17.0919 19.023 13.8761 19.7764C13.3825 19.892 13.0008 20.3147 13.0008 20.8216C13.0008 21.4132 13.5138 21.8831 14.0926 21.7607C19.0198 20.7187 22.4637 16.1289 21.9508 11C21.536 6.62154 18.3002 3.09275 14.0919 2.19941ZM11.0008 3.1622C11.0008 2.57159 10.4899 2.10542 9.91176 2.22632C8.71245 2.47713 7.56732 2.94564 6.53852 3.61942C6.05145 3.93841 6.01605 4.61737 6.42061 5.03608L6.46664 5.08371C6.82585 5.45548 7.40602 5.48594 7.84364 5.21074C8.55354 4.76434 9.33154 4.43229 10.1474 4.2267C10.6311 4.10482 11.0008 3.68892 11.0008 3.19016V3.1622ZM5.03711 6.44635C4.62058 6.02982 3.93167 6.06002 3.60949 6.55317C2.94132 7.5759 2.47551 8.71165 2.22187 9.90662C2.09886 10.4861 2.57545 11 3.16788 11C3.6689 11 4.09381 10.6271 4.21304 10.1405C4.41302 9.32428 4.73864 8.543 5.18171 7.82734C5.44841 7.39657 5.42097 6.83022 5.06271 6.47196L5.03711 6.44635ZM3.17443 13C2.582 13 2.10897 13.514 2.23353 14.0932C2.48934 15.2827 2.95875 16.4135 3.61764 17.4326C3.93992 17.9311 4.635 17.9632 5.05326 17.542L5.07057 17.5246C5.42515 17.1675 5.45301 16.6058 5.1887 16.1776C4.74734 15.4625 4.41922 14.6819 4.22068 13.8662C4.10157 13.3768 3.6781 13 3.17443 13ZM7.809 18.8633C7.3876 18.602 6.83533 18.6243 6.47728 18.9674C6.04716 19.3794 6.06949 20.078 6.56673 20.406C7.58204 21.0756 8.71418 21.5557 9.90317 21.8198C10.4835 21.9488 11.0008 21.4783 11.0008 20.8839C11.0008 20.3802 10.624 19.9592 10.1346 19.8401C9.31354 19.6403 8.52791 19.3091 7.809 18.8633ZM15.2958 8.70503C14.9064 8.31567 14.2751 8.31567 13.8858 8.70503L12.0008 10.59L10.1158 8.70503C9.72642 8.31567 9.09514 8.31567 8.70578 8.70503C8.31642 9.09439 8.31642 9.72567 8.70578 10.115L10.5908 12L8.70578 13.885C8.31642 14.2744 8.31642 14.9057 8.70578 15.295C9.09514 15.6844 9.72642 15.6844 10.1158 15.295L12.0008 13.41L13.8858 15.295C14.2751 15.6844 14.9064 15.6844 15.2958 15.295C15.6851 14.9057 15.6851 14.2744 15.2958 13.885L13.4108 12L15.2958 10.115C15.6851 9.72567 15.6851 9.09439 15.2958 8.70503Z" fill="#2A2A2A"/>
</svg>
