<svg width="65" height="64" viewBox="0 0 65 64" fill="none" xmlns="http://www.w3.org/2000/svg">
<rect x="0.333984" width="64" height="64" rx="8" fill="#EDE9FE"/>
<g clip-path="url(#clip0_5025_160415)">
<path d="M53.2798 46.5195H11.7202C11.3224 46.5195 11 46.842 11 47.2397C11 47.6375 11.3224 47.9599 11.7202 47.9599H53.2798C53.6776 47.9599 54 47.6375 54 47.2397C54 46.842 53.6776 46.5195 53.2798 46.5195Z" fill="#2B2F39"/>
<path d="M53.2798 49.5596H11.7202C11.3224 49.5596 11 49.882 11 50.2798C11 50.6775 11.3224 51 11.7202 51H53.2798C53.6776 51 54 50.6775 54 50.2798C54 49.882 53.6776 49.5596 53.2798 49.5596Z" fill="#2B2F39"/>
<path d="M48.5957 47.9599H16.4048C16.0043 47.9599 15.6797 47.6372 15.6797 47.2392V42.4619C15.6797 42.0617 16.0041 41.7373 16.4043 41.7373C16.8045 41.7373 17.1289 42.0617 17.1289 42.4619V46.5186H47.8706V28.8525H49.3198V47.2383C49.3198 47.6363 48.9952 47.959 48.5948 47.959L48.5957 47.9599Z" fill="#2B2F39"/>
<path d="M48.6863 29.666C46.982 29.666 45.4837 28.8833 44.6391 27.7097C43.7954 28.8833 42.2971 29.666 40.5928 29.666C38.8885 29.666 37.3902 28.8833 36.5466 27.7097C35.702 28.8833 34.2037 29.666 32.5003 29.666C30.7969 29.666 29.2977 28.8833 28.454 27.7097C27.6103 28.8833 26.112 29.666 24.4077 29.666C22.7034 29.666 21.2051 28.8833 20.3615 27.7097C19.5169 28.8833 18.0186 29.666 16.3143 29.666C13.6834 29.666 11.543 27.8019 11.543 25.5097V21.2611C11.543 21.1016 11.5965 20.9474 11.6937 20.8215L18.3218 12.281C18.4592 12.1037 18.6714 12 18.8962 12H46.1053C46.33 12 46.5423 12.1037 46.6796 12.2801L53.3069 20.8215C53.405 20.9474 53.4576 21.1025 53.4576 21.2611V25.5097C53.4576 27.801 51.3172 29.666 48.6863 29.666ZM44.6391 24.7899C45.0395 24.7899 45.3642 25.1126 45.3642 25.5106C45.3642 27.0077 46.8544 28.2256 48.6863 28.2256C50.5181 28.2256 52.0075 27.0077 52.0075 25.5106V21.5076L45.7486 13.4413H19.252L12.9931 21.5076V25.5106C12.9931 27.0077 14.4834 28.2256 16.3143 28.2256C18.1453 28.2256 19.6364 27.0077 19.6364 25.5106C19.6364 25.1126 19.961 24.7899 20.3615 24.7899C20.7619 24.7899 21.0865 25.1126 21.0865 25.5106C21.0865 27.0077 22.5768 28.2256 24.4077 28.2256C26.2387 28.2256 27.729 27.0077 27.729 25.5106C27.729 25.1126 28.0536 24.7899 28.454 24.7899C28.8545 24.7899 29.1791 25.1126 29.1791 25.5106C29.1791 27.0077 30.6693 28.2256 32.5003 28.2256C34.3312 28.2256 35.8224 27.0077 35.8224 25.5106C35.8224 25.1126 36.147 24.7899 36.5475 24.7899C36.9479 24.7899 37.2725 25.1126 37.2725 25.5106C37.2725 27.0077 38.7628 28.2256 40.5937 28.2256C42.4247 28.2256 43.9149 27.0077 43.9149 25.5106C43.9149 25.1126 44.2396 24.7899 44.64 24.7899H44.6391Z" fill="#2B2F39"/>
<path d="M21.086 25.5105H19.6367V21.2619C19.6367 21.152 19.6626 21.043 19.7107 20.9437L23.9372 12.4023L25.2384 13.0379L21.0851 21.4286V25.5096L21.086 25.5105Z" fill="#2B2F39"/>
<path d="M29.1797 25.5102H27.7305V21.2617C27.7305 21.2342 27.7323 21.2076 27.7349 21.181L28.7026 12.6396L30.1429 12.801L29.1797 21.3025V25.5102Z" fill="#2B2F39"/>
<path d="M44.6365 21.9823C44.3689 21.9823 44.112 21.8342 43.9854 21.5798L39.7581 13.0385C39.5815 12.6812 39.7296 12.2496 40.089 12.074C40.4493 11.8985 40.8827 12.0457 41.0593 12.4029L45.2866 20.9443C45.4632 21.3015 45.3151 21.7332 44.9557 21.9087C44.8532 21.9592 44.7435 21.9823 44.6365 21.9823Z" fill="#2B2F39"/>
<path d="M37.2679 25.5102H35.8187V21.3025L34.8555 12.801L36.2958 12.6396L37.2634 21.181C37.267 21.2076 37.2679 21.2342 37.2679 21.2617V25.5102Z" fill="#2B2F39"/>
<path d="M29.1533 47.1951H28.6241C28.0718 47.1951 27.6241 46.7473 27.6241 46.1951V35.5391C27.6241 34.9868 27.1763 34.5391 26.6241 34.5391H22.1288C21.5766 34.5391 21.1288 34.9868 21.1288 35.5391V46.4304C21.1288 46.8527 20.7865 47.1951 20.3642 47.1951C19.9419 47.1951 19.5996 46.8527 19.5996 46.4304V33.7334C19.5996 33.2879 19.9422 32.9268 20.3647 32.9268H28.3901C28.8126 32.9268 29.1552 33.2879 29.1552 33.7334V47.1932C29.1552 47.1942 29.1543 47.1951 29.1533 47.1951Z" fill="#2B2F39"/>
<path d="M42.1845 34.5703C42.7368 34.5703 43.1845 35.018 43.1845 35.5703V41.1473C43.1845 41.6996 42.7368 42.1473 42.1845 42.1473H35.4356C34.8833 42.1473 34.4356 41.6996 34.4356 41.1473V35.5703C34.4356 35.018 34.8833 34.5703 35.4356 34.5703H42.1845ZM44.6337 34.1299C44.6337 33.5776 44.186 33.1299 43.6337 33.1299H33.9863C33.434 33.1299 32.9863 33.5776 32.9863 34.1299V42.5886C32.9863 43.1408 33.434 43.5886 33.9863 43.5886H43.6337C44.186 43.5886 44.6337 43.1408 44.6337 42.5886V34.1299Z" fill="#2B2F39"/>
<path d="M39.5352 39.8979V34.2471C39.5352 33.8469 39.2108 33.5225 38.8106 33.5225C38.4104 33.5225 38.0859 33.8469 38.0859 34.2471V39.8979C38.0859 40.2981 38.4104 40.6226 38.8106 40.6226C39.2108 40.6226 39.5352 40.2981 39.5352 39.8979Z" fill="#2B2F39"/>
<path d="M43.8059 36.3525H38.5449V37.7929H43.8059V36.3525Z" fill="#2B2F39"/>
<path d="M17.1289 28.8535H15.6797V38.0469C15.6797 38.4471 16.0041 38.7715 16.4043 38.7715C16.8045 38.7715 17.1289 38.4471 17.1289 38.0469V28.8535Z" fill="#2B2F39"/>
</g>
<defs>
<clipPath id="clip0_5025_160415">
<rect width="43" height="39" fill="white" transform="translate(11 12)"/>
</clipPath>
</defs>
</svg>
