<svg width="209" height="176" viewBox="0 0 209 176" fill="none" xmlns="http://www.w3.org/2000/svg">
<path d="M9.152 113.32C8.98133 113.32 8.81067 113.299 8.64 113.256C8.46933 113.256 8.32 113.235 8.192 113.192C7.12533 112.851 6.29333 112.211 5.696 111.272C5.09867 110.333 4.65067 109.224 4.352 107.944C4.096 106.664 3.92533 105.363 3.84 104.04C3.79733 102.717 3.776 101.544 3.776 100.52C3.776 99.0266 3.75467 97.576 3.712 96.168C3.712 94.76 3.712 93.352 3.712 91.944C3.712 90.92 3.712 89.8746 3.712 88.808C3.75467 87.7413 3.79733 86.6533 3.84 85.544H1.6C1.088 85.544 0.704 85.3733 0.448 85.032C0.149333 84.6906 0 84.3066 0 83.88C0 83.496 0.149333 83.1333 0.448 82.792C0.704 82.4506 1.088 82.28 1.6 82.28H4.032C4.11733 80.6586 4.18133 78.9093 4.224 77.032C4.30933 75.1546 4.352 73.4266 4.352 71.848C4.352 71.2933 4.52267 70.888 4.864 70.632C5.20533 70.3333 5.58933 70.184 6.016 70.184C6.44267 70.184 6.82667 70.3333 7.168 70.632C7.50933 70.888 7.68 71.2933 7.68 71.848C7.68 73.4266 7.63733 75.1546 7.552 77.032C7.46667 78.9093 7.38133 80.6586 7.296 82.28H15.808C16.3627 82.28 16.768 82.4506 17.024 82.792C17.28 83.1333 17.408 83.496 17.408 83.88C17.408 84.3066 17.28 84.6906 17.024 85.032C16.768 85.3733 16.3627 85.544 15.808 85.544H7.168C7.12533 86.7386 7.08267 87.912 7.04 89.064C7.04 90.1733 7.04 91.2826 7.04 92.392V100.072C7.04 100.755 7.06133 101.608 7.104 102.632C7.14667 103.656 7.21067 104.701 7.296 105.768C7.424 106.835 7.59467 107.773 7.808 108.584C8.064 109.352 8.40533 109.821 8.832 109.992C9.088 110.077 9.28 110.12 9.408 110.12C9.74933 110.12 10.0907 110.056 10.432 109.928C10.816 109.757 11.1573 109.629 11.456 109.544C11.5413 109.501 11.648 109.48 11.776 109.48C11.904 109.48 11.9893 109.48 12.032 109.48C12.544 109.48 12.928 109.651 13.184 109.992C13.44 110.291 13.568 110.653 13.568 111.08C13.568 111.805 13.248 112.339 12.608 112.68C12.2667 112.851 11.7547 113 11.072 113.128C10.3893 113.256 9.74933 113.32 9.152 113.32Z" fill="url(#paint0_linear_3050_59913)"/>
<path d="M30.1605 113.576C27.4298 113.576 25.1045 112.851 23.1845 111.4C21.3072 109.907 19.8778 108.008 18.8965 105.704C17.9578 103.357 17.4885 100.925 17.4885 98.408C17.4885 96.0613 17.8938 93.8 18.7045 91.624C19.5578 89.4053 20.8378 87.5493 22.5445 86.056C24.1658 84.776 25.7872 83.8373 27.4085 83.24C29.0298 82.6426 30.6298 82.344 32.2085 82.344C34.9818 82.344 36.9658 83.0053 38.1605 84.328C39.3978 85.608 40.0165 87.1226 40.0165 88.872C40.0165 90.3226 39.6112 91.7946 38.8005 93.288C38.0325 94.7386 36.9658 95.9546 35.6005 96.936C34.1925 97.9173 32.5925 98.7066 30.8005 99.304C29.0512 99.8586 27.2805 100.136 25.4885 100.136C23.9098 100.136 22.3738 99.88 20.8805 99.368C20.9658 101.288 21.3712 103.08 22.0965 104.744C22.8218 106.408 23.8458 107.752 25.1685 108.776C26.5338 109.8 28.1978 110.312 30.1605 110.312C31.1418 110.312 32.2512 110.163 33.4885 109.864C34.7685 109.565 35.9205 109.096 36.9445 108.456C37.9685 107.773 38.5872 106.941 38.8005 105.96C38.8858 105.661 38.9285 105.299 38.9285 104.872C38.9285 104.445 38.9285 104.083 38.9285 103.784C38.9285 103.229 39.0992 102.824 39.4405 102.568C39.7818 102.312 40.1658 102.184 40.5925 102.184C40.9765 102.184 41.3392 102.312 41.6805 102.568C42.0218 102.824 42.1925 103.229 42.1925 103.784C42.1925 104.381 42.1925 104.936 42.1925 105.448C42.1925 105.917 42.0858 106.451 41.8725 107.048C41.3605 108.627 40.4432 109.907 39.1205 110.888C37.7978 111.827 36.3258 112.509 34.7045 112.936C33.1258 113.363 31.6112 113.576 30.1605 113.576ZM25.5525 96.808C26.3205 96.808 27.0245 96.744 27.6645 96.616C29.0725 96.36 30.4592 95.912 31.8245 95.272C33.2325 94.632 34.4058 93.7786 35.3445 92.712C36.2832 91.6026 36.7525 90.3013 36.7525 88.808C36.7525 87.8693 36.4112 87.144 35.7285 86.632C35.0458 86.12 34.2352 85.8 33.2965 85.672C33.0405 85.6293 32.7845 85.608 32.5285 85.608C32.2725 85.5653 32.0165 85.544 31.7605 85.544C29.8832 85.544 28.1978 86.056 26.7045 87.08C25.2112 88.0613 23.9738 89.3413 22.9925 90.92C22.0538 92.4986 21.4352 94.184 21.1365 95.976C21.7765 96.2746 22.4805 96.488 23.2485 96.616C24.0165 96.744 24.7845 96.808 25.5525 96.808Z" fill="url(#paint1_linear_3050_59913)"/>
<path d="M57.7825 113.448C56.7585 113.448 55.7345 113.341 54.7105 113.128C53.6865 112.957 52.7478 112.68 51.8945 112.296C51.3398 112.083 50.9132 111.763 50.6145 111.336C50.3585 110.909 50.2305 110.483 50.2305 110.056C50.2305 109.715 50.3372 109.437 50.5505 109.224C50.8065 108.968 51.1478 108.84 51.5745 108.84C52.0012 108.84 52.4918 108.968 53.0465 109.224C53.7292 109.523 54.4758 109.736 55.2865 109.864C56.1398 109.992 56.9932 110.056 57.8465 110.056C58.8705 110.056 59.8732 109.949 60.8545 109.736C61.8358 109.523 62.6678 109.203 63.3505 108.776C64.6305 107.923 65.7398 106.771 66.6785 105.32C67.6598 103.869 68.2572 102.397 68.4705 100.904C68.5558 100.307 68.6198 99.7093 68.6625 99.112C68.7052 98.5146 68.7265 97.9173 68.7265 97.32C68.7265 96.296 68.6412 95.2933 68.4705 94.312C68.3425 93.288 68.0865 92.3706 67.7025 91.56C67.0625 90.152 66.1878 89.0426 65.0785 88.232C64.0118 87.3786 62.6892 86.952 61.1105 86.952C59.2758 86.952 57.6972 87.4213 56.3745 88.36C55.0945 89.2986 54.0278 90.536 53.1745 92.072C52.3638 93.5653 51.7025 95.208 51.1905 97C50.6785 98.792 50.2945 100.563 50.0385 102.312C49.8252 104.019 49.6758 105.533 49.5905 106.856V109.16C49.5478 109.587 49.5265 110.013 49.5265 110.44C49.5265 110.867 49.5052 111.165 49.4625 111.336C49.3772 111.891 49.1425 112.317 48.7585 112.616C48.4172 112.915 48.0545 113.064 47.6705 113.064C47.2865 113.064 46.9025 112.915 46.5185 112.616C46.1772 112.317 45.9425 111.827 45.8145 111.144C45.7718 110.931 45.7505 110.568 45.7505 110.056C45.7505 109.501 45.7505 108.947 45.7505 108.392C45.7505 107.795 45.7505 107.24 45.7505 106.728C45.7932 106.173 45.8145 105.768 45.8145 105.512C45.8145 103.549 45.7932 101.565 45.7505 99.56C45.7078 97.5546 45.6865 95.528 45.6865 93.48C45.6865 90.664 45.7505 87.8693 45.8785 85.096C46.0492 82.28 46.3692 79.528 46.8385 76.84C47.0092 75.9866 47.2012 75.0693 47.4145 74.088C47.6705 73.064 48.0332 72.104 48.5025 71.208C48.9718 70.312 49.6332 69.6506 50.4865 69.224C50.8705 68.9253 51.3185 68.776 51.8305 68.776C52.5558 68.776 53.1105 68.9466 53.4945 69.288C53.9212 69.6293 54.1345 70.0133 54.1345 70.44C54.1345 71.0373 53.7505 71.4853 52.9825 71.784C52.8545 71.8266 52.7052 71.8693 52.5345 71.912C52.4065 71.912 52.2572 71.9546 52.0865 72.04C51.7025 72.168 51.3612 72.616 51.0625 73.384C50.8065 74.152 50.5932 74.9413 50.4225 75.752C50.2945 76.5626 50.2092 77.1173 50.1665 77.416C49.7398 79.8906 49.4838 82.4293 49.3985 85.032C49.3132 87.592 49.2492 90.1306 49.2065 92.648C49.9318 91.0266 50.8278 89.5333 51.8945 88.168C53.0038 86.8026 54.3052 85.7146 55.7985 84.904C57.3345 84.0506 59.1052 83.624 61.1105 83.624C63.3292 83.624 65.2705 84.2213 66.9345 85.416C68.6412 86.6106 69.9212 88.2106 70.7745 90.216C71.2438 91.2826 71.5638 92.4346 71.7345 93.672C71.9478 94.9093 72.0545 96.1466 72.0545 97.384C72.0545 98.0666 72.0332 98.7493 71.9905 99.432C71.9478 100.072 71.8838 100.691 71.7985 101.288C71.4998 103.336 70.7318 105.277 69.4945 107.112C68.2998 108.947 66.8278 110.419 65.0785 111.528C64.0545 112.168 62.9025 112.659 61.6225 113C60.3852 113.299 59.1052 113.448 57.7825 113.448Z" fill="url(#paint2_linear_3050_59913)"/>
<path d="M78.3045 112.744C77.8778 112.744 77.4512 112.637 77.0245 112.424C76.6405 112.168 76.4272 111.848 76.3845 111.464C76.3418 110.739 76.3205 110.056 76.3205 109.416C76.3205 108.733 76.3205 108.115 76.3205 107.56C76.3205 106.365 76.3205 105.213 76.3205 104.104C76.3632 102.952 76.3845 101.629 76.3845 100.136C76.3845 98.2586 76.3632 96.4026 76.3205 94.568C76.2778 92.7333 76.2565 90.8986 76.2565 89.064V84.2C76.2565 83.6453 76.4272 83.24 76.7685 82.984C77.1525 82.6853 77.5365 82.536 77.9205 82.536C78.3045 82.536 78.6672 82.6853 79.0085 82.984C79.3925 83.24 79.5845 83.6453 79.5845 84.2V87.272C80.6512 85.864 81.9952 84.648 83.6165 83.624C85.2378 82.5573 86.9658 82.024 88.8005 82.024C90.4218 82.024 91.9365 82.4506 93.3445 83.304C94.7525 84.1146 95.7338 85.3093 96.2885 86.888C96.5445 87.5706 96.6725 88.3173 96.6725 89.128C96.6725 89.9813 96.5018 90.8346 96.1605 91.688C95.8192 92.4986 95.2645 93.16 94.4965 93.672C94.1552 93.8853 93.8138 93.992 93.4725 93.992C93.0458 93.992 92.6618 93.8426 92.3205 93.544C92.0218 93.2453 91.8725 92.8826 91.8725 92.456C91.8725 91.9866 92.0432 91.56 92.3845 91.176C92.7258 90.792 92.9818 90.4506 93.1525 90.152C93.3658 89.8533 93.4725 89.5333 93.4725 89.192C93.4725 88.808 93.3872 88.424 93.2165 88.04C92.9178 87.144 92.3418 86.4613 91.4885 85.992C90.6778 85.5226 89.7818 85.288 88.8005 85.288C87.7338 85.288 86.7098 85.5866 85.7285 86.184C84.7472 86.7813 83.8725 87.4426 83.1045 88.168C81.9952 89.2346 81.1418 90.536 80.5445 92.072C79.9898 93.608 79.7125 95.144 79.7125 96.68V102.12C79.7125 103.699 79.7125 105.256 79.7125 106.792C79.7125 108.328 79.6912 109.885 79.6485 111.464C79.6485 111.933 79.4992 112.275 79.2005 112.488C78.9445 112.659 78.6458 112.744 78.3045 112.744Z" fill="url(#paint3_linear_3050_59913)"/>
<path d="M101.942 79.08C101.131 79.08 100.448 78.7813 99.8935 78.184C99.3388 77.5866 99.0615 76.8826 99.0615 76.072C99.0615 75.2613 99.3388 74.5573 99.8935 73.96C100.448 73.3626 101.131 73.064 101.942 73.064C102.71 73.064 103.371 73.3626 103.926 73.96C104.48 74.5573 104.758 75.2613 104.758 76.072C104.758 76.8826 104.48 77.5866 103.926 78.184C103.371 78.7813 102.71 79.08 101.942 79.08ZM105.014 114.152C103.862 114.152 102.774 113.661 101.75 112.68C100.811 111.741 100.171 110.525 99.8295 109.032C99.4882 107.539 99.3175 105.917 99.3175 104.168C99.3175 102.461 99.4242 100.712 99.6375 98.92C99.8508 97.128 100.043 95.464 100.214 93.928C100.427 92.3493 100.534 91.048 100.534 90.024C100.534 88.744 100.342 87.912 99.9575 87.528C98.8482 87.016 98.2935 86.3333 98.2935 85.48C98.2935 85.0533 98.4428 84.712 98.7415 84.456C99.0828 84.2 99.4668 84.072 99.8935 84.072C100.491 84.072 101.024 84.2426 101.494 84.584C101.963 84.9253 102.347 85.3093 102.646 85.736C103.115 86.3333 103.414 87.0586 103.542 87.912C103.712 88.7653 103.798 89.6826 103.798 90.664C103.798 91.8586 103.734 93.16 103.606 94.568C103.478 95.9333 103.328 97.2986 103.158 98.664C103.03 99.8586 102.902 101.011 102.774 102.12C102.688 103.187 102.646 104.211 102.646 105.192C102.646 106.344 102.752 107.368 102.966 108.264C103.179 109.16 103.542 109.843 104.054 110.312C104.352 110.611 104.715 110.76 105.142 110.76C105.91 110.76 106.635 110.355 107.318 109.544C108.043 108.733 108.555 108.051 108.854 107.496C109.024 107.197 109.174 106.899 109.302 106.6C109.43 106.259 109.579 105.939 109.75 105.64C110.048 104.957 110.539 104.616 111.222 104.616C111.648 104.616 112.032 104.765 112.374 105.064C112.758 105.363 112.95 105.747 112.95 106.216C112.95 106.344 112.907 106.536 112.822 106.792C112.523 107.731 111.968 108.776 111.158 109.928C110.39 111.08 109.472 112.083 108.406 112.936C107.339 113.747 106.208 114.152 105.014 114.152Z" fill="url(#paint4_linear_3050_59913)"/>
<path d="M132.234 113.896C130.485 113.896 129.013 113.384 127.819 112.36C126.624 111.293 125.643 110.013 124.875 108.52C124.107 107.027 123.467 105.64 122.955 104.36C122.869 104.104 122.699 103.656 122.443 103.016C122.229 102.376 121.994 101.672 121.739 100.904C121.525 100.093 121.312 99.368 121.099 98.728C120.928 98.088 120.843 97.64 120.843 97.384C120.8 96.9146 120.843 96.5306 120.971 96.232C121.141 95.8906 121.483 95.6346 121.995 95.464C122.592 95.2933 123.381 94.9946 124.363 94.568C125.387 94.0986 126.41 93.544 127.435 92.904C128.501 92.264 129.44 91.6026 130.251 90.92C131.061 90.2373 131.552 89.576 131.723 88.936C131.808 88.5946 131.85 88.296 131.85 88.04C131.85 87.6133 131.765 87.208 131.594 86.824C131.466 86.44 131.253 86.2266 130.954 86.184C130.699 86.0986 130.442 86.056 130.186 86.056C129.973 86.056 129.738 86.056 129.482 86.056C127.904 86.056 126.453 86.5466 125.131 87.528C123.851 88.5093 122.784 89.704 121.931 91.112C121.248 92.2213 120.608 93.5866 120.011 95.208C119.456 96.8293 118.987 98.472 118.603 100.136C118.261 101.8 118.091 103.293 118.091 104.616C118.091 105.768 118.069 106.92 118.027 108.072C117.984 109.224 117.963 110.355 117.963 111.464C117.963 111.891 117.792 112.232 117.451 112.488C117.152 112.701 116.789 112.808 116.363 112.808C116.021 112.808 115.68 112.723 115.339 112.552C115.04 112.381 114.826 112.104 114.699 111.72C114.656 111.549 114.613 110.952 114.571 109.928C114.528 108.861 114.485 107.645 114.443 106.28C114.443 104.915 114.421 103.677 114.379 102.568C114.379 101.459 114.379 100.776 114.379 100.52C114.379 98.2586 114.336 96.04 114.251 93.864C114.208 91.6453 114.187 89.4906 114.187 87.4C114.187 86.2053 114.208 85.0533 114.251 83.944C114.293 82.8346 114.357 81.7466 114.443 80.68C114.699 77.7786 115.253 75.2186 116.107 73C117.003 70.7813 118.432 69.1173 120.395 68.008C120.821 67.752 121.269 67.5813 121.739 67.496C122.251 67.368 122.763 67.304 123.275 67.304C123.744 67.304 124.171 67.3466 124.555 67.432C124.981 67.4746 125.365 67.6026 125.707 67.816C126.048 67.9866 126.283 68.2213 126.411 68.52C126.581 68.776 126.667 69.0533 126.667 69.352C126.667 69.7786 126.517 70.1626 126.219 70.504C125.963 70.8026 125.6 70.952 125.131 70.952C124.874 70.952 124.683 70.9306 124.555 70.888C124.256 70.8026 123.979 70.7386 123.723 70.696C123.509 70.6106 123.296 70.568 123.083 70.568C122.912 70.568 122.741 70.6106 122.571 70.696C122.4 70.7386 122.187 70.8026 121.931 70.888C121.419 71.1013 120.949 71.5493 120.523 72.232C120.096 72.872 119.733 73.576 119.435 74.344C119.179 75.112 118.965 75.7946 118.795 76.392C118.325 78.184 118.005 80.0186 117.835 81.896C117.707 83.7733 117.643 85.6506 117.643 87.528C117.643 88.2533 117.643 89 117.643 89.768C117.685 90.536 117.707 91.2826 117.707 92.008C118.432 90.4293 119.328 88.936 120.395 87.528C121.461 86.12 122.72 84.968 124.171 84.072C125.621 83.1333 127.243 82.664 129.035 82.664C129.93 82.664 130.827 82.792 131.723 83.048C132.874 83.3466 133.728 83.9866 134.283 84.968C134.88 85.9493 135.178 86.9946 135.178 88.104C135.178 88.744 135.093 89.32 134.923 89.832C134.538 91.112 133.728 92.3066 132.49 93.416C131.253 94.4826 129.888 95.4213 128.395 96.232C126.901 97.0426 125.579 97.6613 124.427 98.088C124.64 98.9413 124.96 100.072 125.387 101.48C125.856 102.845 126.411 104.232 127.051 105.64C127.733 107.005 128.48 108.179 129.29 109.16C130.101 110.099 130.976 110.568 131.914 110.568H132.042C133.536 110.568 134.688 110.141 135.499 109.288C136.309 108.392 136.928 107.347 137.354 106.152C137.824 104.915 138.293 103.784 138.762 102.76C138.933 102.376 139.146 102.099 139.402 101.928C139.701 101.757 140 101.672 140.298 101.672C140.768 101.672 141.173 101.864 141.514 102.248C141.856 102.589 141.963 103.08 141.835 103.72C141.536 105.213 140.96 106.749 140.106 108.328C139.253 109.907 138.165 111.229 136.842 112.296C135.52 113.363 133.984 113.896 132.234 113.896Z" fill="url(#paint5_linear_3050_59913)"/>
<path d="M149.952 113.512C149.27 113.512 148.566 113.32 147.84 112.936C146.731 112.339 145.92 111.443 145.408 110.248C144.896 109.011 144.577 107.731 144.449 106.408C144.32 105.043 144.257 103.869 144.257 102.888V90.152C144.257 88.7866 144.278 87.1866 144.32 85.352C144.406 83.4746 144.555 81.576 144.768 79.656C144.982 77.6933 145.302 75.8586 145.729 74.152C146.198 72.4453 146.795 71.08 147.52 70.056C148.288 68.9893 149.27 68.456 150.464 68.456C151.403 68.456 152.192 68.7546 152.832 69.352C153.472 69.9493 153.984 70.6746 154.368 71.528C154.795 72.3386 155.115 73.0853 155.328 73.768C155.67 74.92 155.926 76.1786 156.096 77.544C156.267 78.8666 156.352 80.2533 156.352 81.704C156.352 84.7333 155.947 87.784 155.136 90.856C154.368 93.928 153.152 96.4666 151.488 98.472C151.104 98.9413 150.529 99.5386 149.76 100.264C148.992 100.947 148.246 101.267 147.52 101.224V102.888C147.52 103.272 147.542 103.869 147.585 104.68C147.627 105.491 147.712 106.323 147.84 107.176C148.011 107.987 148.246 108.691 148.544 109.288C148.886 109.885 149.334 110.184 149.888 110.184C150.443 110.184 150.977 109.885 151.488 109.288C152.043 108.691 152.512 108.029 152.896 107.304C153.323 106.579 153.622 106.024 153.792 105.64C154.134 105 154.667 104.68 155.393 104.68C155.777 104.68 156.139 104.808 156.48 105.064C156.822 105.32 156.992 105.683 156.992 106.152C156.992 106.323 156.95 106.536 156.865 106.792C156.609 107.645 156.139 108.605 155.456 109.672C154.774 110.739 153.963 111.656 153.024 112.424C152.086 113.149 151.062 113.512 149.952 113.512ZM147.52 97.64C148.075 97.256 148.566 96.8293 148.992 96.36C149.803 95.4213 150.507 94.12 151.104 92.456C151.702 90.792 152.171 88.9573 152.512 86.952C152.896 84.9466 153.089 82.984 153.089 81.064C153.089 79.3146 152.918 77.672 152.576 76.136C152.278 74.6 151.766 73.3413 151.04 72.36C150.742 71.9333 150.486 71.72 150.272 71.72C150.102 71.72 149.952 71.848 149.824 72.104C149.611 72.488 149.419 72.8933 149.248 73.32C149.078 73.7466 148.928 74.1946 148.8 74.664C148.502 75.7306 148.267 77.032 148.096 78.568C147.926 80.104 147.798 81.7253 147.712 83.432C147.627 85.1386 147.563 86.7813 147.52 88.36C147.52 89.9386 147.52 91.2826 147.52 92.392V97.64Z" fill="url(#paint6_linear_3050_59913)"/>
<path d="M172.473 113.576C169.742 113.576 167.417 112.851 165.497 111.4C163.62 109.907 162.19 108.008 161.209 105.704C160.27 103.357 159.801 100.925 159.801 98.408C159.801 96.0613 160.206 93.8 161.017 91.624C161.87 89.4053 163.15 87.5493 164.857 86.056C166.478 84.776 168.1 83.8373 169.721 83.24C171.342 82.6426 172.942 82.344 174.521 82.344C177.294 82.344 179.278 83.0053 180.473 84.328C181.71 85.608 182.329 87.1226 182.329 88.872C182.329 90.3226 181.924 91.7946 181.113 93.288C180.345 94.7386 179.278 95.9546 177.913 96.936C176.505 97.9173 174.905 98.7066 173.113 99.304C171.364 99.8586 169.593 100.136 167.801 100.136C166.222 100.136 164.686 99.88 163.193 99.368C163.278 101.288 163.684 103.08 164.409 104.744C165.134 106.408 166.158 107.752 167.481 108.776C168.846 109.8 170.51 110.312 172.473 110.312C173.454 110.312 174.564 110.163 175.801 109.864C177.081 109.565 178.233 109.096 179.257 108.456C180.281 107.773 180.9 106.941 181.113 105.96C181.198 105.661 181.241 105.299 181.241 104.872C181.241 104.445 181.241 104.083 181.241 103.784C181.241 103.229 181.412 102.824 181.753 102.568C182.094 102.312 182.478 102.184 182.905 102.184C183.289 102.184 183.652 102.312 183.993 102.568C184.334 102.824 184.505 103.229 184.505 103.784C184.505 104.381 184.505 104.936 184.505 105.448C184.505 105.917 184.398 106.451 184.185 107.048C183.673 108.627 182.756 109.907 181.433 110.888C180.11 111.827 178.638 112.509 177.017 112.936C175.438 113.363 173.924 113.576 172.473 113.576ZM167.865 96.808C168.633 96.808 169.337 96.744 169.977 96.616C171.385 96.36 172.772 95.912 174.137 95.272C175.545 94.632 176.718 93.7786 177.657 92.712C178.596 91.6026 179.065 90.3013 179.065 88.808C179.065 87.8693 178.724 87.144 178.041 86.632C177.358 86.12 176.548 85.8 175.609 85.672C175.353 85.6293 175.097 85.608 174.841 85.608C174.585 85.5653 174.329 85.544 174.073 85.544C172.196 85.544 170.51 86.056 169.017 87.08C167.524 88.0613 166.286 89.3413 165.305 90.92C164.366 92.4986 163.748 94.184 163.449 95.976C164.089 96.2746 164.793 96.488 165.561 96.616C166.329 96.744 167.097 96.808 167.865 96.808Z" fill="url(#paint7_linear_3050_59913)"/>
<path d="M190.367 112.744C189.94 112.744 189.514 112.637 189.087 112.424C188.703 112.168 188.49 111.848 188.447 111.464C188.404 110.739 188.383 110.056 188.383 109.416C188.383 108.733 188.383 108.115 188.383 107.56C188.383 106.365 188.383 105.213 188.383 104.104C188.426 102.952 188.447 101.629 188.447 100.136C188.447 98.2586 188.426 96.4026 188.383 94.568C188.34 92.7333 188.319 90.8986 188.319 89.064V84.2C188.319 83.6453 188.49 83.24 188.831 82.984C189.215 82.6853 189.599 82.536 189.983 82.536C190.367 82.536 190.73 82.6853 191.071 82.984C191.455 83.24 191.647 83.6453 191.647 84.2V87.272C192.714 85.864 194.058 84.648 195.679 83.624C197.3 82.5573 199.028 82.024 200.863 82.024C202.484 82.024 203.999 82.4506 205.407 83.304C206.815 84.1146 207.796 85.3093 208.351 86.888C208.607 87.5706 208.735 88.3173 208.735 89.128C208.735 89.9813 208.564 90.8346 208.223 91.688C207.882 92.4986 207.327 93.16 206.559 93.672C206.218 93.8853 205.876 93.992 205.535 93.992C205.108 93.992 204.724 93.8426 204.383 93.544C204.084 93.2453 203.935 92.8826 203.935 92.456C203.935 91.9866 204.106 91.56 204.447 91.176C204.788 90.792 205.044 90.4506 205.215 90.152C205.428 89.8533 205.535 89.5333 205.535 89.192C205.535 88.808 205.45 88.424 205.279 88.04C204.98 87.144 204.404 86.4613 203.551 85.992C202.74 85.5226 201.844 85.288 200.863 85.288C199.796 85.288 198.772 85.5866 197.791 86.184C196.81 86.7813 195.935 87.4426 195.167 88.168C194.058 89.2346 193.204 90.536 192.607 92.072C192.052 93.608 191.775 95.144 191.775 96.68V102.12C191.775 103.699 191.775 105.256 191.775 106.792C191.775 108.328 191.754 109.885 191.711 111.464C191.711 111.933 191.562 112.275 191.263 112.488C191.007 112.659 190.708 112.744 190.367 112.744Z" fill="url(#paint8_linear_3050_59913)"/>
<g clip-path="url(#clip0_3050_59913)">
<path d="M114.093 120.349L119.196 120.349C117.493 122.515 114.801 123.914 111.772 123.914C106.623 123.914 102.449 119.873 102.449 114.889L97.0791 114.889C97.0791 122.731 103.67 129.111 111.773 129.111C116.151 129.111 120.087 127.248 122.781 124.298L122.781 128.721L127.478 128.721L127.478 115.533L114.093 115.533L114.093 120.349Z" fill="#41414B"/>
</g>
<g clip-path="url(#clip1_3050_59913)">
<path d="M101.132 144.714C101.38 145.054 101.72 145.182 102.297 145.23C102.485 144.331 102.699 143.824 103.199 143.102C102.777 143.041 102.515 142.865 102.064 142.421C101.565 143.158 101.326 143.811 101.128 144.708L101.132 144.714Z" fill="url(#paint9_linear_3050_59913)"/>
<path d="M69.3916 68.0421C69.0013 68.5417 68.9158 68.9781 69.0823 69.6533C69.6889 69.9375 70.1722 70.0598 70.6743 69.958C70.9341 69.2846 71.2918 68.9193 71.9641 68.3458C70.9707 68.3792 70.3552 68.3621 69.382 68.0398L69.3916 68.0421Z" fill="url(#paint10_linear_3050_59913)"/>
<path d="M62.514 129.14C63.2547 128.599 64.0138 128.275 65.1074 128.017C63.6198 126.234 62.7199 124.96 61.971 123.356C60.7556 123.32 60.1448 123.619 59.3633 124.161C59.8555 125.357 61 127.194 62.5103 129.134L62.514 129.14Z" fill="url(#paint11_linear_3050_59913)"/>
<path d="M102.126 133.218C102.734 133.853 103.451 134.478 104.447 134.664C105.08 134.294 105.529 134.078 106.261 133.885C105.715 133.539 105.582 133.105 105.601 132.186C104.626 132.732 103.563 132.946 102.124 133.227L102.126 133.218Z" fill="url(#paint12_linear_3050_59913)"/>
<path d="M120.82 86.4418C121.716 87.228 121.992 87.9347 122.229 89.0333C123.763 87.8359 125.164 86.4587 125.582 85.656C125.029 84.8973 124.395 84.3931 123.428 83.8133C122.969 84.7229 122.179 85.3846 120.816 86.4359L120.82 86.4418Z" fill="url(#paint13_linear_3050_59913)"/>
<path d="M117.345 70.337C118.087 71.2584 118.233 71.9948 118.277 73.1126C119.986 72.2013 121.591 71.0921 122.133 70.3854C121.725 69.5551 121.191 68.9484 120.343 68.2146C119.739 69.033 118.86 69.5361 117.345 70.337Z" fill="url(#paint14_linear_3050_59913)"/>
<path d="M195.437 101.707C194.826 101.361 194.528 101.141 194.225 100.631C194.026 100.826 193.871 100.921 193.689 100.917C193.981 101.491 194.312 101.805 194.934 102.235C195.16 102.097 195.312 101.931 195.441 101.713L195.437 101.707Z" fill="url(#paint15_linear_3050_59913)"/>
<path d="M86.7659 147.407C86.5971 148.083 86.813 148.638 87.3609 149.416C88.6882 148.696 89.5459 148.427 90.9815 148.287C90.6181 147.691 90.5534 147.183 90.6322 146.146C89.1787 146.296 88.1041 146.706 86.7719 147.404L86.7659 147.407Z" fill="url(#paint16_linear_3050_59913)"/>
<path d="M82.7457 126.386C82.6857 126.864 82.7969 127.181 83.1731 127.556C83.6827 127.507 84.0435 127.402 84.3313 127.136C84.2389 126.596 84.3319 126.212 84.5513 125.579C83.9149 125.984 83.5083 126.215 82.7457 126.386Z" fill="url(#paint17_linear_3050_59913)"/>
<path d="M67.7443 89.1674C67.4255 88.6178 67.0611 88.3821 66.3696 88.2805C65.882 88.7413 65.5891 89.1325 65.497 89.6384C66.0236 90.1267 66.2293 90.5981 66.5094 91.4329C66.8512 90.505 67.089 89.9431 67.7503 89.1638L67.7443 89.1674Z" fill="url(#paint18_linear_3050_59913)"/>
<path d="M54.6371 74.7907C54.1574 74.6744 53.7645 74.4725 53.2771 74.1156C53.0548 75.3467 52.8476 76.1599 52.4503 77.0235C52.8598 77.5341 53.1889 77.685 53.6854 77.8156C54.0067 77.2027 54.3675 76.0915 54.6408 74.7966L54.6371 74.7907Z" fill="url(#paint19_linear_3050_59913)"/>
<path d="M126.85 118.347C127.019 117.164 127.098 115.857 126.453 114.639C125.523 114.267 124.915 113.967 124.091 113.341C124.181 114.226 123.822 114.723 122.811 115.478C124.217 116.068 125.341 117.026 126.85 118.347Z" fill="url(#paint20_linear_3050_59913)"/>
<path d="M89.3349 91.6841C88.5231 91.8276 88.0419 91.843 87.2257 91.7112C87.1532 92.1151 87.1641 92.4682 87.3305 92.8082C87.8691 92.954 88.5636 92.9802 89.4959 92.9268C89.1833 92.4143 89.1165 92.1035 89.3386 91.6901L89.3349 91.6841Z" fill="url(#paint21_linear_3050_59913)"/>
<path d="M124.098 97.0589C124.252 97.7414 124.286 98.1458 124.198 98.8456C124.537 98.8922 124.842 98.8697 125.124 98.7145C125.226 98.2516 125.217 97.6603 125.138 96.8743C124.714 97.1575 124.453 97.2264 124.094 97.0529L124.098 97.0589Z" fill="url(#paint22_linear_3050_59913)"/>
<path d="M81.1397 111.349C81.4534 112.024 81.7719 112.533 82.2809 112.885C82.7417 112.702 82.994 112.499 83.1988 112.178C82.6196 111.698 82.3644 111.346 82.0901 110.655C81.8131 111.086 81.5799 111.293 81.1397 111.349Z" fill="url(#paint23_linear_3050_59913)"/>
<path d="M136.767 56.9897C135.756 57.1813 135.138 56.9858 134.266 56.561C134.256 58.2347 134.442 59.9202 134.758 60.6267C135.563 60.6593 136.242 60.4988 137.149 60.1499C136.778 59.354 136.754 58.4695 136.767 56.9897Z" fill="url(#paint24_linear_3050_59913)"/>
<path d="M63.6075 104.011C63.7414 103.144 64.0711 102.706 64.6547 102.121C63.314 101.639 61.9146 101.315 61.2553 101.373C61.0049 102.009 60.9384 102.597 60.9611 103.425C61.7064 103.347 62.4216 103.581 63.6039 104.005L63.6075 104.011Z" fill="url(#paint25_linear_3050_59913)"/>
<path d="M134.359 41.3621C134.406 41.0637 134.533 40.8149 134.866 40.5707C134.072 39.9515 133.483 39.6564 132.599 39.2796C132.176 39.6849 132.033 40.0007 131.959 40.2419C132.977 40.4226 133.545 40.7633 134.359 41.3621Z" fill="url(#paint26_linear_3050_59913)"/>
<path d="M44.7586 54.1524C45.3669 54.6808 45.6469 54.9925 45.8766 55.6373C46.1471 55.4642 46.3358 55.3982 46.5432 55.4434C46.3454 54.7301 46.043 54.3013 45.446 53.6842C45.163 53.7832 44.9474 53.9391 44.7586 54.1524Z" fill="url(#paint27_linear_3050_59913)"/>
<path d="M175.161 80.6149C175.674 80.5717 176.017 80.2891 176.442 79.7115C175.616 78.9476 175.22 78.4045 174.777 77.4236C174.45 77.827 174.095 77.9947 173.343 78.1832C173.799 79.1724 174.35 79.8341 175.163 80.6053L175.161 80.6149Z" fill="url(#paint28_linear_3050_59913)"/>
<path d="M185.858 102.945C186.749 103.146 187.354 102.998 188.127 102.362C188.122 101.401 187.995 100.71 187.553 100.121C186.529 100.197 185.838 99.9485 184.691 99.4216C185.33 100.684 185.688 101.487 185.86 102.935L185.858 102.945Z" fill="url(#paint29_linear_3050_59913)"/>
<path d="M79.6787 79.7897C78.3568 79.7536 77.5363 79.8696 76.4695 80.1849C76.7711 81.0148 77.1109 81.4781 77.5265 81.8379C78.1214 81.4996 78.6602 81.4981 79.4867 81.5665C79.278 80.8353 79.3552 80.4121 79.6728 79.7933L79.6787 79.7897Z" fill="url(#paint30_linear_3050_59913)"/>
<path d="M31.8627 67.3955C30.7405 67.1641 29.8074 67.0953 28.8997 67.4035C28.7051 68.1436 28.7314 68.6426 28.9376 69.1954C30.067 68.9156 30.741 68.9216 31.8529 69.2165C31.5711 68.4727 31.5186 67.9978 31.8627 67.3955Z" fill="url(#paint31_linear_3050_59913)"/>
<path d="M117.727 130.565C118.452 130.507 118.835 130.518 119.393 130.775C119.447 130.489 119.527 130.325 119.684 130.221C119.097 129.901 118.627 129.828 117.856 129.824C117.739 130.075 117.708 130.306 117.727 130.565Z" fill="url(#paint32_linear_3050_59913)"/>
<path d="M44.5368 99.1488C44.406 99.6047 44.5331 99.9605 44.7622 100.524C45.9818 99.9765 47.442 99.7566 49.1605 99.6653C48.9991 99.1996 49.0123 98.8726 49.1403 98.345C47.3193 98.3352 46.3016 98.4897 44.5368 99.1488Z" fill="url(#paint33_linear_3050_59913)"/>
<path d="M181.293 112.768C181.677 112.46 181.784 112.085 181.938 111.467C180.574 111.187 179.209 110.49 177.7 109.53C177.55 110.022 177.347 110.293 176.918 110.661C178.452 111.77 179.405 112.26 181.302 112.77L181.293 112.768Z" fill="url(#paint34_linear_3050_59913)"/>
<path d="M88.6738 79.954C88.7481 80.4647 89.0509 80.787 89.6534 81.1718C90.3667 80.3035 90.8784 79.8689 91.8266 79.3724C91.4031 79.0666 91.2211 78.7279 90.9835 77.9897C90.0247 78.509 89.3967 79.0881 88.6798 79.9504L88.6738 79.954Z" fill="url(#paint35_linear_3050_59913)"/>
<path d="M94.93 122.407C95.3968 122.221 95.6224 121.96 95.7755 121.434C95.4754 120.995 95.1957 120.724 94.8153 120.597C94.3749 120.947 93.983 121.055 93.2979 121.178C93.9841 121.553 94.3965 121.8 94.93 122.407Z" fill="url(#paint36_linear_3050_59913)"/>
<path d="M119.881 53.7389C119.825 55.31 119.958 56.2919 120.325 57.5643C121.31 57.2089 121.868 56.811 122.303 56.3171C121.908 55.6016 121.904 54.9659 121.997 53.9776C121.121 54.2173 120.615 54.1251 119.887 53.7353L119.881 53.7389Z" fill="url(#paint37_linear_3050_59913)"/>
<path d="M152.216 51.5267C152.089 52.5524 152.05 53.6805 152.626 54.7191C153.437 55.0174 153.966 55.2674 154.69 55.7986C154.601 55.0354 154.899 54.5999 155.758 53.9293C154.533 53.4496 153.547 52.6366 152.216 51.5267Z" fill="url(#paint38_linear_3050_59913)"/>
<path d="M101.908 94.3514C102.269 94.1645 102.545 94.135 102.988 94.3389C102.965 93.8051 102.826 93.4566 102.53 92.8361C102.179 92.6902 101.957 92.7277 101.569 92.9232C101.821 93.4565 101.958 93.8554 101.908 94.3514Z" fill="url(#paint39_linear_3050_59913)"/>
<path d="M99.6885 51.4494C99.4227 51.4561 99.1888 51.3943 98.9296 51.1435C98.5258 51.9294 98.3717 52.4812 98.1873 53.305C98.6072 53.6048 98.901 53.671 99.1131 53.697C99.1031 52.7956 99.3015 52.2495 99.6825 51.453L99.6885 51.4494Z" fill="url(#paint40_linear_3050_59913)"/>
<path d="M29.2217 91.9063C29.4772 90.475 29.696 89.7611 30.4806 88.8085C29.9639 88.5512 29.6809 88.315 29.5634 87.9615C28.6485 88.9282 28.2668 89.7905 27.8596 91.2815C28.2775 91.6317 28.7158 91.8141 29.2217 91.9063Z" fill="url(#paint41_linear_3050_59913)"/>
<path d="M80.8803 118.996C80.2092 119.062 79.8176 119.211 79.2115 119.678C79.787 120.3 80.0047 120.764 80.101 121.352C80.7354 121.333 81.1584 121.222 81.7911 120.959C81.3377 120.336 81.1221 119.821 80.8803 118.996Z" fill="url(#paint42_linear_3050_59913)"/>
<path d="M59.5669 50.2658C59.814 50.6711 60.0226 50.8791 60.5068 51.1235C60.7268 50.5724 60.963 50.2894 61.3037 50.0571C61.1009 49.6575 60.8993 49.4207 60.5462 49.0964C60.2886 49.5723 60.0249 49.8639 59.5669 50.2658Z" fill="url(#paint43_linear_3050_59913)"/>
<path d="M93.4045 50.3833C93.3016 50.724 93.3896 50.9892 93.5448 51.4178C94.471 51.0329 95.5595 50.9006 96.8438 50.8615C96.7359 50.5103 96.7498 50.2648 96.8547 49.8738C95.4944 49.8284 94.7289 49.9273 93.3985 50.3869L93.4045 50.3833Z" fill="url(#paint44_linear_3050_59913)"/>
<path d="M156.085 87.0625C156.597 87.6742 157.26 87.8502 158.358 87.8675C158.587 86.1503 158.911 85.1675 159.75 83.7405C158.946 83.6828 158.433 83.3907 157.519 82.6155C156.683 84.0737 156.335 85.3404 156.091 87.0589L156.085 87.0625Z" fill="url(#paint45_linear_3050_59913)"/>
<path d="M113.106 145.728C115.007 145.533 116.158 145.208 117.629 144.564C117.039 143.436 116.469 142.835 115.805 142.39C115.015 142.986 114.248 143.094 113.046 143.148C113.482 144.158 113.453 144.781 113.106 145.728Z" fill="url(#paint46_linear_3050_59913)"/>
<path d="M81.4958 53.1236C81.2135 52.8215 81.1052 52.5769 81.1736 52.0855C80.6648 52.2568 80.3647 52.4888 79.852 52.9486C79.8093 53.3344 79.9041 53.53 80.2032 53.8463C80.6434 53.4553 80.9924 53.2098 81.4862 53.1213L81.4958 53.1236Z" fill="url(#paint47_linear_3050_59913)"/>
<path d="M105.333 32.4815C106.199 32.0515 106.671 31.8865 107.483 31.931C107.416 31.5544 107.43 31.3089 107.57 31.1091C106.687 31.0017 106.085 31.1401 105.126 31.5121C105.1 31.8714 105.182 32.1809 105.327 32.4852L105.333 32.4815Z" fill="url(#paint48_linear_3050_59913)"/>
<path d="M134.298 117.329C134.904 116.673 135.785 116.267 137.958 116.144C137.749 115.225 137.32 114.481 136.457 113.682C134.852 113.999 133.926 114.318 132.655 115.264C133.467 115.791 133.798 116.293 134.292 117.332L134.298 117.329Z" fill="url(#paint49_linear_3050_59913)"/>
<path d="M74.8653 106.075C75.143 105.055 75.1443 104.4 74.8033 103.251C73.5761 103.746 72.766 103.798 71.8608 103.614C71.5263 104.554 71.4618 105.239 71.4825 106.306C72.6404 105.992 73.5153 105.966 74.8653 106.075Z" fill="url(#paint50_linear_3050_59913)"/>
<path d="M150.259 100.206C151.828 103.264 148.163 107.992 149.191 111.502L148.137 109.774C147.191 106.533 150.246 102.25 149.479 99.2099C149.426 98.9888 149.349 98.7823 149.257 98.577L149.987 99.775L150.259 100.206Z" fill="url(#paint51_linear_3050_59913)"/>
<path d="M145.099 95.9285C144.556 97.0768 143.571 98.1027 142.316 98.6312C141.699 98.893 141.332 98.8549 141.174 98.649C140.677 97.9953 142.372 95.6534 145.093 95.9321L145.099 95.9285Z" fill="url(#paint52_linear_3050_59913)"/>
<path d="M141.272 90.6177C140.692 91.5436 139.886 92.3132 138.974 92.6406C138.551 92.792 138.317 92.771 138.245 92.6518C138.008 92.2644 139.358 90.8444 141.276 90.6236L141.272 90.6177Z" fill="url(#paint53_linear_3050_59913)"/>
<path d="M145.088 92.2233L145.146 92.3187C145.229 92.4557 145.295 92.6037 145.351 92.7494C145.411 92.901 145.455 93.0539 145.487 93.2141C145.259 93.0266 144.994 92.8609 144.688 92.7206C143.86 92.3422 143.054 92.2534 142.331 92.3424C142.638 91.8529 142.881 91.3124 143.042 90.7726C143.241 90.831 143.442 90.905 143.637 90.9982C144.058 91.1915 144.41 91.4344 144.688 91.715C144.842 91.8743 144.979 92.0445 145.097 92.2256L145.088 92.2233Z" fill="url(#paint54_linear_3050_59913)"/>
<path d="M141.788 86.0598C141.977 86.3697 142.093 86.7077 142.152 87.0724C141.75 86.8023 141.219 86.6277 140.554 86.5834L139.5 84.855C140.644 84.9342 141.381 85.3922 141.788 86.0598Z" fill="url(#paint55_linear_3050_59913)"/>
<path d="M149.257 98.5769C149.355 98.7785 149.426 98.9887 149.479 99.2098C149.408 99.1469 149.337 99.084 149.256 99.0187C148.133 98.142 147.082 97.7449 146.159 97.6533C146.367 97.216 146.507 96.7625 146.576 96.3118C147.096 96.5344 147.643 96.8549 148.203 97.2903C148.467 97.4967 148.693 97.719 148.879 97.9571C149.034 98.1571 149.157 98.3598 149.257 98.5769Z" fill="url(#paint56_linear_3050_59913)"/>
<path d="M141.791 86.0658L142.845 87.7942C143.336 88.5988 143.349 89.6941 143.033 90.7702C142.875 91.3161 142.634 91.8469 142.322 92.34C141.742 93.266 140.936 94.0356 140.023 94.3629C139.601 94.5144 139.367 94.4933 139.291 94.3682L138.24 92.6457C138.317 92.7709 138.55 92.792 138.969 92.6345C139.882 92.3072 140.692 91.5436 141.268 90.6116C141.952 89.5077 142.316 88.1739 142.142 87.0701C142.083 86.7054 141.967 86.3674 141.781 86.0635L141.791 86.0658Z" fill="url(#paint57_linear_3050_59913)"/>
<path d="M145.146 92.3188L146.215 94.071C146.591 94.7412 146.694 95.5282 146.573 96.3216C146.504 96.7722 146.364 97.2257 146.156 97.663C145.614 98.8114 144.629 99.8372 143.373 100.366C142.756 100.628 142.389 100.589 142.231 100.384L141.177 98.6551C141.332 98.8551 141.699 98.8932 142.319 98.6374C143.575 98.1088 144.56 97.083 145.103 95.9346C145.52 95.0505 145.677 94.088 145.485 93.2238C145.453 93.0636 145.409 92.9107 145.349 92.7591C145.293 92.6134 145.227 92.4655 145.144 92.3284L145.146 92.3188Z" fill="url(#paint58_linear_3050_59913)"/>
<path d="M92.1074 89.6745L93.7828 92.4221C93.7828 92.4221 95.1118 96.6399 95.049 103.938C95.0493 103.979 95.046 104.014 95.0463 104.054C95.0403 104.729 95.1626 105.251 95.3845 105.655L93.7964 103.051C93.5169 102.632 93.3656 102.062 93.3709 101.307C93.4441 93.9449 92.1015 89.6782 92.1015 89.6782L92.1074 89.6745Z" fill="url(#paint59_linear_3050_59913)"/>
<path d="M114.362 123.37L115.972 126.01L116.092 126.206C116.648 127.225 116.346 128.447 115.966 130.036L114.291 127.288C114.507 126.396 114.692 125.613 114.722 124.924C114.743 124.356 114.649 123.84 114.372 123.372L114.362 123.37Z" fill="url(#paint60_linear_3050_59913)"/>
<path d="M114.362 123.37C114.646 123.835 114.733 124.354 114.712 124.922C114.209 124.633 113.565 124.355 112.762 124.084C110.622 123.377 108.443 123.57 107.22 121.658L107.143 121.533C106.891 121.106 106.688 120.585 106.536 119.933C107.769 120.776 109.443 120.785 111.083 121.33C112.92 121.943 113.896 122.591 114.359 123.364L114.362 123.37Z" fill="url(#paint61_linear_3050_59913)"/>
<path d="M104.249 104.853L105.851 107.482L106 107.726C106.862 109.326 106.466 112.151 106.294 115.126C106.174 117.235 106.276 118.784 106.545 119.936C106.697 120.587 106.9 121.109 107.152 121.536L105.466 118.77C104.778 117.588 104.428 115.659 104.618 112.379C104.74 110.285 104.971 108.264 104.802 106.699C104.722 105.979 104.56 105.35 104.258 104.856L104.249 104.853Z" fill="url(#paint62_linear_3050_59913)"/>
<path d="M104.242 104.841L104.249 104.853C104.551 105.348 104.713 105.976 104.793 106.696C102.371 105.957 97.027 108.12 95.4803 105.785L95.3931 105.642C95.1711 105.238 95.0489 104.715 95.0548 104.041C95.0545 104 95.0579 103.966 95.0576 103.925C97.6207 104.75 102.355 102.901 103.859 104.347C104.002 104.488 104.135 104.653 104.244 104.832L104.242 104.841Z" fill="url(#paint63_linear_3050_59913)"/>
</g>
<defs>
<linearGradient id="paint0_linear_3050_59913" x1="9.396" y1="94" x2="204.896" y2="94" gradientUnits="userSpaceOnUse">
<stop stop-color="#FFCD99"/>
<stop offset="1" stop-color="#FF5000"/>
</linearGradient>
<linearGradient id="paint1_linear_3050_59913" x1="9.396" y1="94" x2="204.896" y2="94" gradientUnits="userSpaceOnUse">
<stop stop-color="#FFCD99"/>
<stop offset="1" stop-color="#FF5000"/>
</linearGradient>
<linearGradient id="paint2_linear_3050_59913" x1="9.396" y1="94" x2="204.896" y2="94" gradientUnits="userSpaceOnUse">
<stop stop-color="#FFCD99"/>
<stop offset="1" stop-color="#FF5000"/>
</linearGradient>
<linearGradient id="paint3_linear_3050_59913" x1="9.396" y1="94" x2="204.896" y2="94" gradientUnits="userSpaceOnUse">
<stop stop-color="#FFCD99"/>
<stop offset="1" stop-color="#FF5000"/>
</linearGradient>
<linearGradient id="paint4_linear_3050_59913" x1="9.396" y1="94" x2="204.896" y2="94" gradientUnits="userSpaceOnUse">
<stop stop-color="#FFCD99"/>
<stop offset="1" stop-color="#FF5000"/>
</linearGradient>
<linearGradient id="paint5_linear_3050_59913" x1="9.396" y1="94" x2="204.896" y2="94" gradientUnits="userSpaceOnUse">
<stop stop-color="#FFCD99"/>
<stop offset="1" stop-color="#FF5000"/>
</linearGradient>
<linearGradient id="paint6_linear_3050_59913" x1="9.396" y1="94" x2="204.896" y2="94" gradientUnits="userSpaceOnUse">
<stop stop-color="#FFCD99"/>
<stop offset="1" stop-color="#FF5000"/>
</linearGradient>
<linearGradient id="paint7_linear_3050_59913" x1="9.396" y1="94" x2="204.896" y2="94" gradientUnits="userSpaceOnUse">
<stop stop-color="#FFCD99"/>
<stop offset="1" stop-color="#FF5000"/>
</linearGradient>
<linearGradient id="paint8_linear_3050_59913" x1="9.396" y1="94" x2="204.896" y2="94" gradientUnits="userSpaceOnUse">
<stop stop-color="#FFCD99"/>
<stop offset="1" stop-color="#FF5000"/>
</linearGradient>
<linearGradient id="paint9_linear_3050_59913" x1="101.853" y1="142.045" x2="100.039" y2="141.313" gradientUnits="userSpaceOnUse">
<stop stop-color="#FF5C5C"/>
<stop offset="0.3" stop-color="#F34444"/>
<stop offset="0.93" stop-color="#D60606"/>
<stop offset="1" stop-color="#D30000"/>
</linearGradient>
<linearGradient id="paint10_linear_3050_59913" x1="70.1027" y1="68.7482" x2="69.694" y2="71.0647" gradientUnits="userSpaceOnUse">
<stop stop-color="#FF5C5C"/>
<stop offset="0.3" stop-color="#F34444"/>
<stop offset="0.93" stop-color="#D60606"/>
<stop offset="1" stop-color="#D30000"/>
</linearGradient>
<linearGradient id="paint11_linear_3050_59913" x1="65.9997" y1="129.345" x2="62.1456" y2="131.709" gradientUnits="userSpaceOnUse">
<stop stop-color="#FF5C5C"/>
<stop offset="0.3" stop-color="#F34444"/>
<stop offset="0.93" stop-color="#D60606"/>
<stop offset="1" stop-color="#D30000"/>
</linearGradient>
<linearGradient id="paint12_linear_3050_59913" x1="104.539" y1="129.951" x2="105.657" y2="132.342" gradientUnits="userSpaceOnUse">
<stop stop-color="#FF5C5C"/>
<stop offset="0.3" stop-color="#F34444"/>
<stop offset="0.93" stop-color="#D60606"/>
<stop offset="1" stop-color="#D30000"/>
</linearGradient>
<linearGradient id="paint13_linear_3050_59913" x1="122.926" y1="84.7047" x2="125.667" y2="87.7004" gradientUnits="userSpaceOnUse">
<stop stop-color="#FF5C5C"/>
<stop offset="0.3" stop-color="#F34444"/>
<stop offset="0.93" stop-color="#D60606"/>
<stop offset="1" stop-color="#D30000"/>
</linearGradient>
<linearGradient id="paint14_linear_3050_59913" x1="119.074" y1="69.2367" x2="121.248" y2="72.6447" gradientUnits="userSpaceOnUse">
<stop stop-color="#FF5C5C"/>
<stop offset="0.3" stop-color="#F34444"/>
<stop offset="0.93" stop-color="#D60606"/>
<stop offset="1" stop-color="#D30000"/>
</linearGradient>
<linearGradient id="paint15_linear_3050_59913" x1="179.057" y1="93.7901" x2="179.88" y2="92.9105" gradientUnits="userSpaceOnUse">
<stop stop-color="#FF5C5C"/>
<stop offset="0.3" stop-color="#F34444"/>
<stop offset="0.93" stop-color="#D60606"/>
<stop offset="1" stop-color="#D30000"/>
</linearGradient>
<linearGradient id="paint16_linear_3050_59913" x1="89.4754" y1="149.357" x2="88.4628" y2="146.297" gradientUnits="userSpaceOnUse">
<stop stop-color="#4D8EFF"/>
<stop offset="0.43" stop-color="#3E76FF"/>
<stop offset="1" stop-color="#2850FF"/>
</linearGradient>
<linearGradient id="paint17_linear_3050_59913" x1="82.926" y1="125.803" x2="83.5554" y2="127.478" gradientUnits="userSpaceOnUse">
<stop stop-color="#4D8EFF"/>
<stop offset="0.43" stop-color="#3E76FF"/>
<stop offset="1" stop-color="#2850FF"/>
</linearGradient>
<linearGradient id="paint18_linear_3050_59913" x1="77.4693" y1="88.9991" x2="75.4723" y2="87.7562" gradientUnits="userSpaceOnUse">
<stop stop-color="#4D8EFF"/>
<stop offset="0.43" stop-color="#3E76FF"/>
<stop offset="1" stop-color="#2850FF"/>
</linearGradient>
<linearGradient id="paint19_linear_3050_59913" x1="39.5895" y1="76.2792" x2="41.8855" y2="77.041" gradientUnits="userSpaceOnUse">
<stop stop-color="#4D8EFF"/>
<stop offset="0.43" stop-color="#3E76FF"/>
<stop offset="1" stop-color="#2850FF"/>
</linearGradient>
<linearGradient id="paint20_linear_3050_59913" x1="127.361" y1="122.643" x2="128.993" y2="119.438" gradientUnits="userSpaceOnUse">
<stop stop-color="#4D8EFF"/>
<stop offset="0.43" stop-color="#3E76FF"/>
<stop offset="1" stop-color="#2850FF"/>
</linearGradient>
<linearGradient id="paint21_linear_3050_59913" x1="98.0359" y1="90.1003" x2="98.0778" y2="91.6617" gradientUnits="userSpaceOnUse">
<stop stop-color="#4D8EFF"/>
<stop offset="0.43" stop-color="#3E76FF"/>
<stop offset="1" stop-color="#2850FF"/>
</linearGradient>
<linearGradient id="paint22_linear_3050_59913" x1="118.516" y1="102.611" x2="119.824" y2="102.52" gradientUnits="userSpaceOnUse">
<stop stop-color="#4D8EFF"/>
<stop offset="0.43" stop-color="#3E76FF"/>
<stop offset="1" stop-color="#2850FF"/>
</linearGradient>
<linearGradient id="paint23_linear_3050_59913" x1="80.8251" y1="111.104" x2="81.8722" y2="110.276" gradientUnits="userSpaceOnUse">
<stop stop-color="#4D8EFF"/>
<stop offset="0.43" stop-color="#3E76FF"/>
<stop offset="1" stop-color="#2850FF"/>
</linearGradient>
<linearGradient id="paint24_linear_3050_59913" x1="139.674" y1="57.4206" x2="136.174" y2="57.6863" gradientUnits="userSpaceOnUse">
<stop stop-color="#4D8EFF"/>
<stop offset="0.43" stop-color="#3E76FF"/>
<stop offset="1" stop-color="#2850FF"/>
</linearGradient>
<linearGradient id="paint25_linear_3050_59913" x1="58.3131" y1="101.108" x2="59.0809" y2="98.2397" gradientUnits="userSpaceOnUse">
<stop stop-color="#4D8EFF"/>
<stop offset="0.43" stop-color="#3E76FF"/>
<stop offset="1" stop-color="#2850FF"/>
</linearGradient>
<linearGradient id="paint26_linear_3050_59913" x1="136.759" y1="44.191" x2="137.473" y2="42.8111" gradientUnits="userSpaceOnUse">
<stop stop-color="#4D8EFF"/>
<stop offset="0.43" stop-color="#3E76FF"/>
<stop offset="1" stop-color="#2850FF"/>
</linearGradient>
<linearGradient id="paint27_linear_3050_59913" x1="42.4748" y1="57.0831" x2="41.3523" y2="57.8916" gradientUnits="userSpaceOnUse">
<stop stop-color="#4D8EFF"/>
<stop offset="0.43" stop-color="#3E76FF"/>
<stop offset="1" stop-color="#2850FF"/>
</linearGradient>
<linearGradient id="paint28_linear_3050_59913" x1="182.228" y1="86.7477" x2="180.305" y2="88.2025" gradientUnits="userSpaceOnUse">
<stop stop-color="#FC9512"/>
<stop offset="0.68" stop-color="#FED319"/>
<stop offset="1" stop-color="#FFEB1C"/>
</linearGradient>
<linearGradient id="paint29_linear_3050_59913" x1="185.021" y1="101.226" x2="188.264" y2="100.359" gradientUnits="userSpaceOnUse">
<stop stop-color="#FC9512"/>
<stop offset="0.68" stop-color="#FED319"/>
<stop offset="1" stop-color="#FFEB1C"/>
</linearGradient>
<linearGradient id="paint30_linear_3050_59913" x1="73.4593" y1="82.6312" x2="73.9212" y2="84.9272" gradientUnits="userSpaceOnUse">
<stop stop-color="#FC9512"/>
<stop offset="0.68" stop-color="#FED319"/>
<stop offset="1" stop-color="#FFEB1C"/>
</linearGradient>
<linearGradient id="paint31_linear_3050_59913" x1="25.0028" y1="69.624" x2="25.0718" y2="71.7002" gradientUnits="userSpaceOnUse">
<stop stop-color="#FC9512"/>
<stop offset="0.68" stop-color="#FED319"/>
<stop offset="1" stop-color="#FFEB1C"/>
</linearGradient>
<linearGradient id="paint32_linear_3050_59913" x1="119.653" y1="130.157" x2="119.469" y2="131.402" gradientUnits="userSpaceOnUse">
<stop stop-color="#FC9512"/>
<stop offset="0.68" stop-color="#FED319"/>
<stop offset="1" stop-color="#FFEB1C"/>
</linearGradient>
<linearGradient id="paint33_linear_3050_59913" x1="46.9547" y1="100.221" x2="47.1068" y2="102.538" gradientUnits="userSpaceOnUse">
<stop stop-color="#FC9512"/>
<stop offset="0.68" stop-color="#FED319"/>
<stop offset="1" stop-color="#FFEB1C"/>
</linearGradient>
<linearGradient id="paint34_linear_3050_59913" x1="172.474" y1="105.705" x2="173.746" y2="103.659" gradientUnits="userSpaceOnUse">
<stop stop-color="#FC9512"/>
<stop offset="0.68" stop-color="#FED319"/>
<stop offset="1" stop-color="#FFEB1C"/>
</linearGradient>
<linearGradient id="paint35_linear_3050_59913" x1="90.4284" y1="78.2475" x2="88.8717" y2="76.4331" gradientUnits="userSpaceOnUse">
<stop stop-color="#FF3EB9"/>
<stop offset="0.04" stop-color="#FF43BB"/>
<stop offset="0.7" stop-color="#FF97E2"/>
<stop offset="1" stop-color="#FFB9F2"/>
</linearGradient>
<linearGradient id="paint36_linear_3050_59913" x1="106.801" y1="133.42" x2="108.007" y2="132.001" gradientUnits="userSpaceOnUse">
<stop stop-color="#FF3EB9"/>
<stop offset="0.04" stop-color="#FF43BB"/>
<stop offset="0.7" stop-color="#FF97E2"/>
<stop offset="1" stop-color="#FFB9F2"/>
</linearGradient>
<linearGradient id="paint37_linear_3050_59913" x1="119.961" y1="56.1896" x2="122.694" y2="55.6613" gradientUnits="userSpaceOnUse">
<stop stop-color="#FF3EB9"/>
<stop offset="0.04" stop-color="#FF43BB"/>
<stop offset="0.7" stop-color="#FF97E2"/>
<stop offset="1" stop-color="#FFB9F2"/>
</linearGradient>
<linearGradient id="paint38_linear_3050_59913" x1="157.926" y1="48.8999" x2="156.576" y2="51.6975" gradientUnits="userSpaceOnUse">
<stop stop-color="#FF3EB9"/>
<stop offset="0.04" stop-color="#FF43BB"/>
<stop offset="0.7" stop-color="#FF97E2"/>
<stop offset="1" stop-color="#FFB9F2"/>
</linearGradient>
<linearGradient id="paint39_linear_3050_59913" x1="93.7992" y1="84.1574" x2="95.1464" y2="83.8826" gradientUnits="userSpaceOnUse">
<stop stop-color="#FF3EB9"/>
<stop offset="0.04" stop-color="#FF43BB"/>
<stop offset="0.7" stop-color="#FF97E2"/>
<stop offset="1" stop-color="#FFB9F2"/>
</linearGradient>
<linearGradient id="paint40_linear_3050_59913" x1="111.412" y1="52.143" x2="110.113" y2="51.7554" gradientUnits="userSpaceOnUse">
<stop stop-color="#FF3EB9"/>
<stop offset="0.04" stop-color="#FF43BB"/>
<stop offset="0.7" stop-color="#FF97E2"/>
<stop offset="1" stop-color="#FFB9F2"/>
</linearGradient>
<linearGradient id="paint41_linear_3050_59913" x1="28.2633" y1="90.2744" x2="30.5598" y2="91.2639" gradientUnits="userSpaceOnUse">
<stop stop-color="#FF3EB9"/>
<stop offset="0.04" stop-color="#FF43BB"/>
<stop offset="0.7" stop-color="#FF97E2"/>
<stop offset="1" stop-color="#FFB9F2"/>
</linearGradient>
<linearGradient id="paint42_linear_3050_59913" x1="74.8821" y1="122.672" x2="72.9693" y2="123.539" gradientUnits="userSpaceOnUse">
<stop stop-color="#FF3EB9"/>
<stop offset="0.04" stop-color="#FF43BB"/>
<stop offset="0.7" stop-color="#FF97E2"/>
<stop offset="1" stop-color="#FFB9F2"/>
</linearGradient>
<linearGradient id="paint43_linear_3050_59913" x1="61.4945" y1="51.375" x2="62.6238" y2="52.3359" gradientUnits="userSpaceOnUse">
<stop stop-color="#FF3EB9"/>
<stop offset="0.04" stop-color="#FF43BB"/>
<stop offset="0.7" stop-color="#FF97E2"/>
<stop offset="1" stop-color="#FFB9F2"/>
</linearGradient>
<linearGradient id="paint44_linear_3050_59913" x1="96.261" y1="48.2316" x2="96.3285" y2="49.9708" gradientUnits="userSpaceOnUse">
<stop stop-color="#FF3EB9"/>
<stop offset="0.04" stop-color="#FF43BB"/>
<stop offset="0.7" stop-color="#FF97E2"/>
<stop offset="1" stop-color="#FFB9F2"/>
</linearGradient>
<linearGradient id="paint45_linear_3050_59913" x1="159.527" y1="85.483" x2="155.994" y2="84.3626" gradientUnits="userSpaceOnUse">
<stop stop-color="#00EE98"/>
<stop offset="0.28" stop-color="#00D685"/>
<stop offset="0.87" stop-color="#009854"/>
<stop offset="1" stop-color="#008A49"/>
</linearGradient>
<linearGradient id="paint46_linear_3050_59913" x1="119.106" y1="154.605" x2="118.019" y2="151.382" gradientUnits="userSpaceOnUse">
<stop stop-color="#00EE98"/>
<stop offset="0.28" stop-color="#00D685"/>
<stop offset="0.87" stop-color="#009854"/>
<stop offset="1" stop-color="#008A49"/>
</linearGradient>
<linearGradient id="paint47_linear_3050_59913" x1="94.8545" y1="56.5765" x2="94.2004" y2="55.3374" gradientUnits="userSpaceOnUse">
<stop stop-color="#00EE98"/>
<stop offset="0.28" stop-color="#00D685"/>
<stop offset="0.87" stop-color="#009854"/>
<stop offset="1" stop-color="#008A49"/>
</linearGradient>
<linearGradient id="paint48_linear_3050_59913" x1="106.509" y1="33.9431" x2="106.887" y2="35.5668" gradientUnits="userSpaceOnUse">
<stop stop-color="#00EE98"/>
<stop offset="0.28" stop-color="#00D685"/>
<stop offset="0.87" stop-color="#009854"/>
<stop offset="1" stop-color="#008A49"/>
</linearGradient>
<linearGradient id="paint49_linear_3050_59913" x1="133.812" y1="112.488" x2="132.108" y2="108.447" gradientUnits="userSpaceOnUse">
<stop stop-color="#00EE98"/>
<stop offset="0.28" stop-color="#00D685"/>
<stop offset="0.87" stop-color="#009854"/>
<stop offset="1" stop-color="#008A49"/>
</linearGradient>
<linearGradient id="paint50_linear_3050_59913" x1="78.2499" y1="109.575" x2="78.0543" y2="106.278" gradientUnits="userSpaceOnUse">
<stop stop-color="#00EE98"/>
<stop offset="0.28" stop-color="#00D685"/>
<stop offset="0.87" stop-color="#009854"/>
<stop offset="1" stop-color="#008A49"/>
</linearGradient>
<linearGradient id="paint51_linear_3050_59913" x1="146.328" y1="106.806" x2="152.127" y2="103.27" gradientUnits="userSpaceOnUse">
<stop stop-color="#4D8EFF"/>
<stop offset="0.43" stop-color="#3E76FF"/>
<stop offset="1" stop-color="#2850FF"/>
</linearGradient>
<linearGradient id="paint52_linear_3050_59913" x1="139.043" y1="99.0161" x2="154.163" y2="92.4374" gradientUnits="userSpaceOnUse">
<stop stop-color="#4D8EFF"/>
<stop offset="0.43" stop-color="#3E76FF"/>
<stop offset="1" stop-color="#2850FF"/>
</linearGradient>
<linearGradient id="paint53_linear_3050_59913" x1="137.419" y1="92.8121" x2="147.909" y2="87.691" gradientUnits="userSpaceOnUse">
<stop stop-color="#4D8EFF"/>
<stop offset="0.43" stop-color="#3E76FF"/>
<stop offset="1" stop-color="#2850FF"/>
</linearGradient>
<linearGradient id="paint54_linear_3050_59913" x1="138.389" y1="94.8607" x2="149.057" y2="89.6557" gradientUnits="userSpaceOnUse">
<stop stop-color="#4D8EFF"/>
<stop offset="0.43" stop-color="#3E76FF"/>
<stop offset="1" stop-color="#2850FF"/>
</linearGradient>
<linearGradient id="paint55_linear_3050_59913" x1="136.559" y1="87.8091" x2="143.702" y2="84.7208" gradientUnits="userSpaceOnUse">
<stop stop-color="#4D8EFF"/>
<stop offset="0.43" stop-color="#3E76FF"/>
<stop offset="1" stop-color="#2850FF"/>
</linearGradient>
<linearGradient id="paint56_linear_3050_59913" x1="139.833" y1="101.331" x2="155.533" y2="94.4964" gradientUnits="userSpaceOnUse">
<stop stop-color="#4D8EFF"/>
<stop offset="0.43" stop-color="#3E76FF"/>
<stop offset="1" stop-color="#2850FF"/>
</linearGradient>
<linearGradient id="paint57_linear_3050_59913" x1="137.903" y1="92.0915" x2="143.415" y2="88.7299" gradientUnits="userSpaceOnUse">
<stop stop-color="#4D8EFF"/>
<stop offset="0.43" stop-color="#3E76FF"/>
<stop offset="1" stop-color="#2850FF"/>
</linearGradient>
<linearGradient id="paint58_linear_3050_59913" x1="141.002" y1="98.3535" x2="146.705" y2="94.8756" gradientUnits="userSpaceOnUse">
<stop stop-color="#4D8EFF"/>
<stop offset="0.43" stop-color="#3E76FF"/>
<stop offset="1" stop-color="#2850FF"/>
</linearGradient>
<linearGradient id="paint59_linear_3050_59913" x1="91.393" y1="99.0955" x2="96.1013" y2="96.2246" gradientUnits="userSpaceOnUse">
<stop stop-color="#FDBF05"/>
<stop offset="0.31" stop-color="#FDA712"/>
<stop offset="0.96" stop-color="#FE6933"/>
<stop offset="1" stop-color="#FF6636"/>
</linearGradient>
<linearGradient id="paint60_linear_3050_59913" x1="114.265" y1="127.247" x2="116.059" y2="126.153" gradientUnits="userSpaceOnUse">
<stop stop-color="#FDBF05"/>
<stop offset="0.31" stop-color="#FDA712"/>
<stop offset="0.96" stop-color="#FE6933"/>
<stop offset="1" stop-color="#FF6636"/>
</linearGradient>
<linearGradient id="paint61_linear_3050_59913" x1="105.788" y1="125.05" x2="121.264" y2="116.668" gradientUnits="userSpaceOnUse">
<stop stop-color="#FDBF05"/>
<stop offset="0.31" stop-color="#FDA712"/>
<stop offset="0.96" stop-color="#FE6933"/>
<stop offset="1" stop-color="#FF6636"/>
</linearGradient>
<linearGradient id="paint62_linear_3050_59913" x1="103.049" y1="114.807" x2="108.348" y2="111.576" gradientUnits="userSpaceOnUse">
<stop stop-color="#FDBF05"/>
<stop offset="0.31" stop-color="#FDA712"/>
<stop offset="0.96" stop-color="#FE6933"/>
<stop offset="1" stop-color="#FF6636"/>
</linearGradient>
<linearGradient id="paint63_linear_3050_59913" x1="96.0843" y1="107.714" x2="111.939" y2="97.8341" gradientUnits="userSpaceOnUse">
<stop stop-color="#FDBF05"/>
<stop offset="0.31" stop-color="#FDA712"/>
<stop offset="0.96" stop-color="#FE6933"/>
<stop offset="1" stop-color="#FF6636"/>
</linearGradient>
<clipPath id="clip0_3050_59913">
<rect width="34.5251" height="16" fill="white" transform="translate(94.7988 114)"/>
</clipPath>
<clipPath id="clip1_3050_59913">
<rect width="137.65" height="121.203" fill="white" transform="translate(15.8965 71.6614) rotate(-31.373)"/>
</clipPath>
</defs>
</svg>
