<svg width="20" height="20" viewBox="0 0 20 20" fill="none" xmlns="http://www.w3.org/2000/svg">
<path d="M10 20C15.5228 20 20 15.5228 20 9.99999C20 4.47715 15.5228 0 10 0C4.47715 0 0 4.47715 0 9.99999C0 15.5228 4.47715 20 10 20Z" fill="url(#paint0_linear_1067_50812)"/>
<path d="M4.26652 9.76499C4.26652 9.76499 9.26861 7.71295 11.0059 6.98698C11.669 6.69743 13.9266 5.77422 13.9266 5.77422C13.9266 5.77422 14.9673 5.37136 14.8792 6.35332C14.8498 6.75617 14.619 8.17455 14.3882 9.70623C14.0399 11.8758 13.6664 14.2467 13.6664 14.2467C13.6664 14.2467 13.6077 14.914 13.1167 15.0273C12.6257 15.1448 11.8158 14.6244 11.669 14.5069C11.5515 14.4188 9.49942 13.1179 8.74826 12.4843C8.54683 12.3122 8.31603 11.9639 8.77764 11.5568C9.81834 10.6043 11.0605 9.41669 11.8158 8.66553C12.1641 8.31723 12.5082 7.50733 11.0647 8.49348C9.01263 9.91186 6.98578 11.2421 6.98578 11.2421C6.98578 11.2421 6.52417 11.5317 5.65552 11.2715C4.78687 11.0113 3.77554 10.663 3.77554 10.663C3.77554 10.663 3.08313 10.2308 4.26652 9.76499Z" fill="white"/>
<defs>
<linearGradient id="paint0_linear_1067_50812" x1="2.92908" y1="2.92908" x2="17.0709" y2="17.0751" gradientUnits="userSpaceOnUse">
<stop stop-color="#2CB5E5"/>
<stop offset="0.65" stop-color="#6C6EF5"/>
<stop offset="1" stop-color="#9146FF"/>
</linearGradient>
</defs>
</svg>
