<svg width="88" height="40" viewBox="0 0 88 40" fill="none" xmlns="http://www.w3.org/2000/svg">
<g clip-path="url(#clip0_5190_108908)">
<path fill-rule="evenodd" clip-rule="evenodd" d="M79.9044 6.43213C78.6888 6.43213 77.348 7.10751 76.8133 8.32075L71.1311 21.2985L69.0844 8.32075C68.8436 7.10739 68.0163 6.43213 66.7067 6.43213H59.5083L65.6653 27.9853C65.7786 28.3986 65.8001 28.8569 65.7172 29.3388C65.395 31.1375 63.6705 32.5966 61.8647 32.5966H57.8336C56.81 32.5966 56.1358 33.2284 55.8062 34.6587L54.9106 39.9999H62.0098C65.7134 39.9999 70.063 38.146 72.9644 33.0195L87.1792 6.43213H79.9045H79.9044Z" fill="#323E48"/>
<path fill-rule="evenodd" clip-rule="evenodd" d="M10.0244 0C12.1503 0 13.1777 0.845024 12.8036 2.96849L12.191 6.42777H17.0754L15.9991 12.5049H11.1125L9.78145 20.0292C9.32147 22.6507 11.9258 22.9999 13.4199 22.9999C13.7176 22.9999 13.965 22.9933 14.1421 22.9828L12.9474 29.7596C12.5786 29.7987 12.1985 29.8495 11.3941 29.8495C7.68592 29.8495 0.671197 28.8599 2.0505 21.0631L3.56081 12.5047H0L1.07175 6.42765H4.59763L5.73249 0H10.0243H10.0244Z" fill="#323E48"/>
<path fill-rule="evenodd" clip-rule="evenodd" d="M51.0688 6.70605L49.814 13.7913C51.3614 14.5788 52.4214 16.1782 52.4214 18.0255C52.4214 20.461 50.5888 22.4567 48.2297 22.7439L46.9756 29.8276C47.197 29.8416 47.4223 29.8491 47.6467 29.8491C54.2044 29.8491 59.5154 24.5537 59.5154 18.0256C59.5154 12.6881 55.9584 8.17204 51.0688 6.70618" fill="#00ADBB"/>
<path fill-rule="evenodd" clip-rule="evenodd" d="M45.4831 22.2611C43.9371 21.4781 42.8749 19.8713 42.8749 18.0262C42.8749 15.6061 44.7113 13.5951 47.0697 13.313L48.3223 6.22849C48.0994 6.21452 47.8726 6.2041 47.6497 6.2041C41.0972 6.2041 35.7832 11.5032 35.7832 18.0261C35.7832 23.3659 39.3417 27.885 44.2312 29.3507L45.4831 22.261V22.2611Z" fill="#00ADBB"/>
<path fill-rule="evenodd" clip-rule="evenodd" d="M19.9029 6.4321H24.0998C26.2265 6.4321 27.2494 7.27872 26.8747 9.4028L26.4154 11.9727C27.9791 8.81016 31.3709 6.20117 34.8502 6.20117C35.3065 6.20117 35.7458 6.29126 35.7458 6.29126L34.3895 13.9536C34.3895 13.9536 33.7806 13.8126 32.8302 13.8126C30.9762 13.8126 27.8406 14.3987 26.0955 17.8697C25.6792 18.7251 25.3592 19.7658 25.1376 21.0197L23.6192 29.6283H15.8008L19.903 6.43222L19.9029 6.4321Z" fill="#323E48"/>
<path fill-rule="evenodd" clip-rule="evenodd" d="M85.2641 30.1567C85.2641 30.0194 85.2182 29.9043 85.1189 29.8105C85.0219 29.7175 84.8982 29.6733 84.7456 29.6733H84.2337V30.635H84.7456C84.8981 30.635 85.0219 30.587 85.1189 30.5006C85.2182 30.4091 85.2641 30.2976 85.2641 30.1567ZM85.7248 32.0778H85.2788L84.6485 30.9589H84.2337V32.0778H83.8537V29.3359H84.7877C85.0285 29.3359 85.2337 29.4178 85.4017 29.5729C85.5684 29.73 85.6573 29.9256 85.6573 30.1567C85.6573 30.5375 85.4573 30.7899 85.0639 30.9095L85.7247 32.0779L85.7248 32.0778ZM86.7855 30.7088C86.7855 31.2999 86.5781 31.8026 86.1632 32.2167C85.7528 32.6337 85.2499 32.8411 84.6692 32.8411C84.0884 32.8411 83.5929 32.6337 83.1788 32.2167C82.7699 31.8026 82.5661 31.3001 82.5661 30.7088C82.5661 30.1175 82.7699 29.6187 83.1788 29.2024C83.5929 28.784 84.0899 28.5766 84.6692 28.5766C85.2485 28.5766 85.7528 28.784 86.1632 29.2024C86.5781 29.6187 86.7855 30.1198 86.7855 30.7088ZM87.1796 30.7088C87.1796 31.4003 86.9337 31.9915 86.4433 32.4764C85.9582 32.9628 85.367 33.2122 84.6693 33.2122C83.9715 33.2122 83.3878 32.9628 82.8952 32.4764C82.4063 31.9915 82.1597 31.4003 82.1597 30.7088C82.1597 30.0172 82.4063 29.4297 82.8952 28.9396C83.3878 28.454 83.9789 28.209 84.6693 28.209C85.3597 28.209 85.9582 28.454 86.4433 28.9396C86.9337 29.4297 87.1796 30.0194 87.1796 30.7088Z" fill="#323E48"/>
</g>
<defs>
<clipPath id="clip0_5190_108908">
<rect width="87.1795" height="40" fill="white"/>
</clipPath>
</defs>
</svg>
