<svg width="20" height="20" viewBox="0 0 20 20" fill="none" xmlns="http://www.w3.org/2000/svg">
<path d="M10 20C15.5228 20 20 15.5228 20 10C20 4.47715 15.5228 0 10 0C4.47715 0 0 4.47715 0 10C0 15.5228 4.47715 20 10 20Z" fill="url(#paint0_linear_1067_50809)"/>
<path d="M10.8489 9.29917L14.164 5.44269H13.3793L10.5006 8.79141L8.20095 5.44269H5.54883L9.02764 10.5035L5.54883 14.5447H6.33355L9.37594 11.0113L11.8056 14.5447H14.4578L10.8489 9.29498V9.29917ZM9.77459 10.5497L9.4221 10.0461L6.61891 6.03438H7.82747L10.0893 9.26981L10.4418 9.77337L13.3835 13.9823H12.1749L9.77459 10.5497Z" fill="white"/>
<defs>
<linearGradient id="paint0_linear_1067_50809" x1="2.92908" y1="2.92908" x2="17.0751" y2="17.0709" gradientUnits="userSpaceOnUse">
<stop stop-color="#23004A"/>
<stop offset="0.96" stop-color="#010003"/>
<stop offset="1"/>
</linearGradient>
</defs>
</svg>
