<svg width="40" height="40" viewBox="0 0 40 40" fill="none" xmlns="http://www.w3.org/2000/svg">
<path d="M11.3866 11.9006L8.21319 20.7018L7.86641 18.9168C7.86641 18.9168 7.86641 18.9164 7.86641 18.916L6.73326 12.9853C6.54647 12.1609 5.9733 11.9273 5.26654 11.9001H0.0531973L0 12.1613C0.956752 12.4135 1.83711 12.7488 2.63907 13.155C2.64547 13.1591 3.35063 13.6024 3.64022 14.4902L3.71781 14.7922C3.72861 14.8482 3.74061 14.8947 3.75421 14.9335L6.29328 24.7939H9.71991L14.8129 11.9006H11.3866V11.9006Z" fill="#1730C4"/>
<path d="M16.1195 11.9006L14.0928 24.8076H17.333L19.3597 11.9006H16.1195Z" fill="#1730C4"/>
<path d="M25.8931 17.077C24.76 16.4862 24.0656 16.0882 24.0656 15.4839C24.0788 14.9347 24.6528 14.372 25.9319 14.372C26.9855 14.3444 27.7594 14.6051 28.3458 14.8663L28.639 15.0035L29.0798 12.2166C28.4406 11.9554 27.4271 11.667 26.1735 11.667C22.9737 11.667 20.7202 13.4244 20.7066 15.937C20.6802 17.7909 22.3197 18.8204 23.5465 19.4388C24.8 20.0703 25.2264 20.4827 25.2264 21.0458C25.2136 21.9106 24.2132 22.3089 23.2805 22.3089C21.9869 22.3089 21.2938 22.1034 20.2402 21.6222L19.8134 21.4158L19.3599 24.3132C20.1198 24.6699 21.5202 24.9863 22.9737 24.9999C26.3735 24.9999 28.587 23.2696 28.6134 20.5919C28.6262 19.1224 27.7602 17.9969 25.8935 17.0765L25.8931 17.077Z" fill="#1730C4"/>
<path d="M37.3858 11.9006H34.8795C34.1068 11.9006 33.5196 12.1338 33.186 12.9713L28.373 24.8072H31.7729C31.7729 24.8072 32.3324 23.2141 32.4528 22.8709H36.613C36.7062 23.3241 36.9998 24.8072 36.9998 24.8072H40.0001L37.3858 11.9006ZM33.386 20.2352C33.6528 19.4936 34.6795 16.6238 34.6795 16.6238C34.6659 16.6514 34.9459 15.8687 35.1059 15.3879L35.3323 16.5003C35.3323 16.5003 35.9459 19.5896 36.0791 20.2352H33.386V20.2352Z" fill="#1730C4"/>
</svg>
