<svg width="20" height="20" viewBox="0 0 20 20" fill="none" xmlns="http://www.w3.org/2000/svg">
<path d="M10 20C15.5228 20 20 15.5228 20 10C20 4.47715 15.5228 0 10 0C4.47715 0 0 4.47715 0 10C0 15.5228 4.47715 20 10 20Z" fill="url(#paint0_linear_1082_57534)"/>
<path d="M4.85156 15.1615L5.59013 12.4003C5.17049 11.6449 4.95228 10.7973 4.95228 9.937C4.95228 7.12541 7.23931 4.83838 10.0509 4.83838C12.8625 4.83838 15.1495 7.12541 15.1495 9.937C15.1495 12.7486 12.8625 15.0356 10.0509 15.0356C9.20742 15.0356 8.37233 14.8216 7.62538 14.4187L4.85156 15.1615ZM7.76386 13.3822L7.94011 13.4871C8.58215 13.869 9.31233 14.0704 10.0509 14.0704C12.3295 14.0704 14.1843 12.2156 14.1843 9.937C14.1843 7.65835 12.3295 5.80355 10.0509 5.80355C7.77225 5.80355 5.91745 7.65835 5.91745 9.937C5.91745 10.6881 6.12727 11.4309 6.52173 12.0814L6.63083 12.2576L6.21959 13.7977L7.77225 13.3822H7.76386Z" fill="white"/>
<path fill-rule="evenodd" clip-rule="evenodd" d="M11.948 10.6462C11.7382 10.5203 11.4654 10.3819 11.2179 10.4826C11.029 10.5581 10.9073 10.8561 10.7856 11.0071C10.7227 11.0869 10.6471 11.0952 10.5506 11.0575C9.83724 10.7721 9.29171 10.2979 8.90145 9.6433C8.83431 9.54258 8.8469 9.46285 8.92663 9.36633C9.04413 9.22785 9.1952 9.06839 9.22457 8.87955C9.25814 8.69072 9.17002 8.4725 9.09029 8.30465C8.98957 8.09063 8.88047 7.78429 8.66645 7.6626C8.46922 7.5493 8.20904 7.61224 8.0328 7.75492C7.73066 8.00251 7.58378 8.38857 7.58798 8.77464C7.58798 8.88375 7.60057 8.99285 7.62994 9.09776C7.69289 9.34955 7.80619 9.58874 7.94047 9.81115C8.04119 9.979 8.1461 10.1469 8.2636 10.3021C8.64547 10.8183 9.11966 11.2673 9.66519 11.6072C9.93796 11.7751 10.2359 11.9219 10.5422 12.0226C10.8863 12.136 11.1927 12.2534 11.562 12.1821C11.948 12.1066 12.3299 11.8674 12.4852 11.4939C12.5313 11.3848 12.5523 11.2589 12.5271 11.1414C12.4726 10.898 12.1495 10.7553 11.9522 10.6378L11.948 10.6462Z" fill="white"/>
<defs>
<linearGradient id="paint0_linear_1082_57534" x1="2.92908" y1="2.92908" x2="17.0709" y2="17.0709" gradientUnits="userSpaceOnUse">
<stop stop-color="#00FB73"/>
<stop offset="1" stop-color="#00B25B"/>
</linearGradient>
</defs>
</svg>
