<?xml version="1.0" encoding="UTF-8"?>
<svg id="Layer_2" data-name="Layer 2" xmlns="http://www.w3.org/2000/svg" viewBox="0 0 23.96 29.45">
  <defs>
    <style>
      .cls-1 {
        stroke-width: 0px;
        fill: white;
      }
    </style>
  </defs>
  <g id="Layer_1-2" data-name="Layer 1">
    <g>
      <path class="cls-1" d="m21.58,29.45H2.37c-1.31,0-2.37-1.06-2.37-2.37V9.23c0-1.31,1.06-2.37,2.37-2.37h19.21c1.31,0,2.37,1.06,2.37,2.37v17.84c0,1.31-1.06,2.37-2.37,2.37ZM2.37,8.86c-.21,0-.37.17-.37.37v17.84c0,.21.17.37.37.37h19.21c.21,0,.37-.17.37-.37V9.23c0-.21-.17-.37-.37-.37H2.37Z"/>
      <path class="cls-1" d="m17.78,10.61h-2v-4.8c0-2.1-1.71-3.8-3.8-3.8s-3.8,1.71-3.8,3.8v4.8h-2v-4.8c0-3.2,2.6-5.8,5.8-5.8s5.8,2.6,5.8,5.8v4.8Z"/>
    </g>
  </g>
</svg>