<?xml version="1.0" encoding="UTF-8"?>
<svg id="Layer_2" data-name="Layer 2" xmlns="http://www.w3.org/2000/svg" viewBox="0 0 32.28 31.3">
  <defs>
    <style>
      .cls-1 {
        stroke-width: 0px;
      }
    </style>
  </defs>
  <g id="Layer_1-2" data-name="Layer 1">
    <g>
      <polygon class="cls-1" points="30.16 31.3 2.12 31.3 2.12 13.02 4.12 13.02 4.12 29.19 28.16 29.19 28.16 13.02 30.16 13.02 30.16 31.3"/>
      <path class="cls-1" d="m26.34,15.02c-2.04,0-3.84-1.04-4.9-2.61-1.06,1.57-2.85,2.61-4.88,2.61h-.83c-2.03,0-3.83-1.04-4.88-2.61-1.06,1.57-2.86,2.61-4.9,2.61s-3.79-.97-4.9-2.58C-.07,10.83-.31,8.79.4,6.97L3.09,0h26.11l2.69,6.97c.7,1.82.46,3.86-.64,5.47-1.11,1.62-2.95,2.59-4.91,2.59Zm-5.9-5.88h2c0,2.14,1.75,3.88,3.9,3.88,1.32,0,2.51-.63,3.26-1.72.74-1.08.9-2.4.43-3.62l-2.2-5.69H4.46l-2.2,5.69c-.47,1.22-.31,2.54.43,3.62.75,1.09,1.93,1.72,3.25,1.72,2.15,0,3.9-1.74,3.9-3.88h2c0,2.14,1.74,3.88,3.88,3.88h.83c2.14,0,3.88-1.74,3.88-3.88Z"/>
    </g>
  </g>
</svg>