<svg width="500" height="500" version="1.1" xmlns="http://www.w3.org/2000/svg" desc="Created with imagetracer.js version 1.2.6" ><path fill="rgb(202,202,202)" stroke="rgb(202,202,202)" stroke-width="1" opacity="1" d="M 78.5 198 L 77.5 200 L 78.5 198 Z " /><path fill="rgb(202,202,202)" stroke="rgb(202,202,202)" stroke-width="1" opacity="1" d="M 168.5 198 L 167.5 200 L 168.5 198 Z " /><path fill="rgb(202,202,202)" stroke="rgb(202,202,202)" stroke-width="1" opacity="1" d="M 172.5 198 L 170.5 201 L 172.5 198 Z " /><path fill="rgb(202,202,202)" stroke="rgb(202,202,202)" stroke-width="1" opacity="1" d="M 188.5 198 L 192 198.5 L 188.5 199 L 188.5 198 Z " /><path fill="rgb(202,202,202)" stroke="rgb(202,202,202)" stroke-width="1" opacity="1" d="M 316.5 198 L 314.5 201 L 316.5 198 Z " /><path fill="rgb(202,202,202)" stroke="rgb(202,202,202)" stroke-width="1" opacity="1" d="M 347.5 198 L 345.5 201 L 347.5 198 Z " /><path fill="rgb(202,202,202)" stroke="rgb(202,202,202)" stroke-width="1" opacity="1" d="M 365.5 198 Q 368.8 196.9 368 199.5 L 366.5 199 L 365.5 198 Z " /><path fill="rgb(202,202,202)" stroke="rgb(202,202,202)" stroke-width="1" opacity="1" d="M 389.5 198 L 389.5 201 Q 386.5 199.5 389.5 198 Z " /><path fill="rgb(202,202,202)" stroke="rgb(202,202,202)" stroke-width="1" opacity="1" d="M 441.5 198 L 444 198.5 L 441.5 199 L 441.5 198 Z " /><path fill="rgb(202,202,202)" stroke="rgb(202,202,202)" stroke-width="1" opacity="1" d="M 256.5 199 L 253.5 203 L 256.5 199 Z " /><path fill="rgb(202,202,202)" stroke="rgb(202,202,202)" stroke-width="1" opacity="1" d="M 419.5 199 L 415.5 204 L 419.5 199 Z " /><path fill="rgb(202,202,202)" stroke="rgb(202,202,202)" stroke-width="1" opacity="1" d="M 135.5 200 L 134.5 202 L 135.5 200 Z " /><path fill="rgb(202,202,202)" stroke="rgb(202,202,202)" stroke-width="1" opacity="1" d="M 198.5 200 L 202 205 Q 199 206.3 200 202.5 L 198.5 200 Z " /><path fill="rgb(202,202,202)" stroke="rgb(202,202,202)" stroke-width="1" opacity="1" d="M 387.5 201 L 385.5 204 Q 383.8 201.3 382 205.5 L 379.5 209 L 381 206.5 L 384.5 202 Q 386 204.5 387.5 201 Z " /><path fill="rgb(202,202,202)" stroke="rgb(202,202,202)" stroke-width="1" opacity="1" d="M 139.5 202 L 140 265.5 L 139 265.5 L 139.5 202 Z " /><path fill="rgb(202,202,202)" stroke="rgb(202,202,202)" stroke-width="1" opacity="1" d="M 308.5 202 L 307.5 204 L 308.5 202 Z " /><path fill="rgb(202,202,202)" stroke="rgb(202,202,202)" stroke-width="1" opacity="1" d="M 169.5 203 L 170 230.5 L 169 230.5 L 169.5 203 Z " /><path fill="rgb(202,202,202)" stroke="rgb(202,202,202)" stroke-width="1" opacity="1" d="M 313.5 203 L 314 267.5 L 313 267.5 L 313.5 203 Z " /><path fill="rgb(202,202,202)" stroke="rgb(202,202,202)" stroke-width="1" opacity="1" d="M 344.5 203 L 345 234.5 L 346 235.5 L 344 236.5 L 344.5 203 Z " /><path fill="rgb(202,202,202)" stroke="rgb(202,202,202)" stroke-width="1" opacity="1" d="M 452 204 Q 455 203 454 206 Q 451 207 452 204 Z " /><path fill="rgb(202,202,202)" stroke="rgb(202,202,202)" stroke-width="1" opacity="1" d="M 70.5 206 Q 69.7 211.8 73 213.5 L 72 214.5 L 72 277 L 70 277 Q 71.1 274.3 68.5 275 L 67 278 L 80.5 278 L 81 280 L 60 279.5 L 62.5 278 L 64.5 279 L 68.5 274 L 70 273.5 L 69.5 272 L 71 272.5 L 70 270.5 L 70.5 206 Z " /><path fill="rgb(202,202,202)" stroke="rgb(202,202,202)" stroke-width="1" opacity="1" d="M 199 207 Q 202 206 201 209 Q 198 210 199 207 Z " /><path fill="rgb(202,202,202)" stroke="rgb(202,202,202)" stroke-width="1" opacity="1" d="M 372 207 Q 375 206 374 209 Q 371 210 372 207 Z " /><path fill="rgb(202,202,202)" stroke="rgb(202,202,202)" stroke-width="1" opacity="1" d="M 161.5 208 L 162 210.5 L 161 210.5 L 161.5 208 Z " /><path fill="rgb(202,202,202)" stroke="rgb(202,202,202)" stroke-width="1" opacity="1" d="M 305.5 208 L 306 272.5 L 305 272.5 L 305.5 208 Z " /><path fill="rgb(202,202,202)" stroke="rgb(202,202,202)" stroke-width="1" opacity="1" d="M 377.5 208 L 376 210.5 L 372.5 215 L 372.5 213 L 371 212.5 L 372.5 212 Q 373.7 214.3 375 211.5 L 377.5 208 Z " /><path fill="rgb(202,202,202)" stroke="rgb(202,202,202)" stroke-width="1" opacity="1" d="M 451 208 Q 454 207 453 210 Q 450 211 451 208 Z " /><path fill="rgb(202,202,202)" stroke="rgb(202,202,202)" stroke-width="1" opacity="1" d="M 250.5 209 L 251 273.5 L 250 273.5 L 250.5 209 Z " /><path fill="rgb(202,202,202)" stroke="rgb(202,202,202)" stroke-width="1" opacity="1" d="M 413.5 209 L 414 224.5 L 413 224.5 L 413.5 209 Z " /><path fill="rgb(202,202,202)" stroke="rgb(202,202,202)" stroke-width="1" opacity="1" d="M 129.5 211 Q 131.8 210.3 131 212.5 L 129.5 211 Z " /><path fill="rgb(202,202,202)" stroke="rgb(202,202,202)" stroke-width="1" opacity="1" d="M 198 211 Q 201 210 200 213 Q 197 214 198 211 Z " /><path fill="rgb(202,202,202)" stroke="rgb(202,202,202)" stroke-width="1" opacity="1" d="M 450.5 212 Q 452.8 211.3 452 213.5 L 450.5 212 Z " /><path fill="rgb(202,202,202)" stroke="rgb(202,202,202)" stroke-width="1" opacity="1" d="M 369.5 215 L 370 216.5 L 366 219.5 L 369.5 215 Z " /><path fill="rgb(202,202,202)" stroke="rgb(202,202,202)" stroke-width="1" opacity="1" d="M 126.5 218 L 127.5 220 Q 124.7 220.7 126.5 218 Z " /><path fill="rgb(202,202,202)" stroke="rgb(202,202,202)" stroke-width="1" opacity="1" d="M 196 218 Q 199 217 198 220 Q 195 221 196 218 Z " /><path fill="rgb(202,202,202)" stroke="rgb(202,202,202)" stroke-width="1" opacity="1" d="M 364.5 219 L 363 221.5 L 360.5 225 L 362 222.5 L 364.5 219 Z " /><path fill="rgb(202,202,202)" stroke="rgb(202,202,202)" stroke-width="1" opacity="1" d="M 448 219 Q 451 218 450 221 Q 447 222 448 219 Z " /><path fill="rgb(202,202,202)" stroke="rgb(202,202,202)" stroke-width="1" opacity="1" d="M 195 222 Q 198 221 197 224 Q 194 225 195 222 Z " /><path fill="rgb(202,202,202)" stroke="rgb(202,202,202)" stroke-width="1" opacity="1" d="M 124.5 223 L 125.5 225 Q 122.7 225.7 124.5 223 Z " /><path fill="rgb(202,202,202)" stroke="rgb(202,202,202)" stroke-width="1" opacity="1" d="M 161.5 223 L 162 225.5 L 161 225.5 L 161.5 223 Z " /><path fill="rgb(202,202,202)" stroke="rgb(202,202,202)" stroke-width="1" opacity="1" d="M 447 223 Q 450 222 449 225 Q 446 226 447 223 Z " /><path fill="rgb(202,202,202)" stroke="rgb(202,202,202)" stroke-width="1" opacity="1" d="M 358.5 224 L 357 226.5 L 354 230.5 L 354.5 232 L 351.5 231 L 349 232.5 L 355 228.5 L 358.5 224 Z " /><path fill="rgb(202,202,202)" stroke="rgb(202,202,202)" stroke-width="1" opacity="1" d="M 194 226 Q 197 225 196 228 Q 193 229 194 226 Z " /><path fill="rgb(202,202,202)" stroke="rgb(202,202,202)" stroke-width="1" opacity="1" d="M 446 227 Q 449 226 448 229 Q 445 230 446 227 Z " /><path fill="rgb(202,202,202)" stroke="rgb(202,202,202)" stroke-width="1" opacity="1" d="M 122.5 228 L 123.5 230 L 122.5 228 Z " /><path fill="rgb(202,202,202)" stroke="rgb(202,202,202)" stroke-width="1" opacity="1" d="M 416.5 231 L 419.5 235 L 416.5 231 Z " /><path fill="rgb(202,202,202)" stroke="rgb(202,202,202)" stroke-width="1" opacity="1" d="M 120.5 233 Q 122.8 232.3 122 234.5 L 120.5 233 Z " /><path fill="rgb(202,202,202)" stroke="rgb(202,202,202)" stroke-width="1" opacity="1" d="M 170.5 233 L 174 235.5 L 171.5 237 L 170.5 233 Z " /><path fill="rgb(202,202,202)" stroke="rgb(202,202,202)" stroke-width="1" opacity="1" d="M 192 233 Q 195 232 194 235 Q 191 236 192 233 Z " /><path fill="rgb(202,202,202)" stroke="rgb(202,202,202)" stroke-width="1" opacity="1" d="M 364.5 233 L 368.5 238 L 364.5 233 Z " /><path fill="rgb(202,202,202)" stroke="rgb(202,202,202)" stroke-width="1" opacity="1" d="M 348.5 234 L 350 234.5 L 347.5 236 L 348.5 234 Z " /><path fill="rgb(202,202,202)" stroke="rgb(202,202,202)" stroke-width="1" opacity="1" d="M 355.5 234 L 358.5 238 L 355.5 234 Z " /><path fill="rgb(202,202,202)" stroke="rgb(202,202,202)" stroke-width="1" opacity="1" d="M 444 234 Q 447 233 446 236 Q 443 237 444 234 Z " /><path fill="rgb(202,202,202)" stroke="rgb(202,202,202)" stroke-width="1" opacity="1" d="M 191 237 Q 194 236 193 239 Q 190 240 191 237 Z " /><path fill="rgb(202,202,202)" stroke="rgb(202,202,202)" stroke-width="1" opacity="1" d="M 118.5 238 Q 120.8 237.3 120 239.5 L 118.5 238 Z " /><path fill="rgb(202,202,202)" stroke="rgb(202,202,202)" stroke-width="1" opacity="1" d="M 167.5 238 L 163.5 243 L 167.5 238 Z " /><path fill="rgb(202,202,202)" stroke="rgb(202,202,202)" stroke-width="1" opacity="1" d="M 344.5 238 L 345 266.5 L 344 266.5 L 344.5 238 Z " /><path fill="rgb(202,202,202)" stroke="rgb(202,202,202)" stroke-width="1" opacity="1" d="M 443 238 Q 446 237 445 240 Q 442 241 443 238 Z " /><path fill="rgb(202,202,202)" stroke="rgb(202,202,202)" stroke-width="1" opacity="1" d="M 102 239 L 107 239.5 L 102.5 241 L 102 239 Z " /><path fill="rgb(202,202,202)" stroke="rgb(202,202,202)" stroke-width="1" opacity="1" d="M 359.5 239 L 360.5 241 L 359.5 239 Z " /><path fill="rgb(202,202,202)" stroke="rgb(202,202,202)" stroke-width="1" opacity="1" d="M 418.5 239 L 416.5 242 L 418.5 239 Z " /><path fill="rgb(202,202,202)" stroke="rgb(202,202,202)" stroke-width="1" opacity="1" d="M 100.5 240 L 101 241.5 L 98.5 243 L 100.5 240 Z " /><path fill="rgb(202,202,202)" stroke="rgb(202,202,202)" stroke-width="1" opacity="1" d="M 110.5 240 L 112.5 243 L 114 243.5 L 112.5 244 Q 108.9 242.9 110.5 240 Z " /><path fill="rgb(202,202,202)" stroke="rgb(202,202,202)" stroke-width="1" opacity="1" d="M 190.5 241 Q 192.8 240.3 192 242.5 L 190.5 241 Z " /><path fill="rgb(202,202,202)" stroke="rgb(202,202,202)" stroke-width="1" opacity="1" d="M 169.5 242 L 170 267.5 L 169 267.5 L 169.5 242 Z " /><path fill="rgb(202,202,202)" stroke="rgb(202,202,202)" stroke-width="1" opacity="1" d="M 442.5 242 Q 444.8 241.3 444 243.5 L 442.5 242 Z " /><path fill="rgb(202,202,202)" stroke="rgb(202,202,202)" stroke-width="1" opacity="1" d="M 95.5 245 L 98 246 L 97.5 250 L 95.5 245 Z " /><path fill="rgb(202,202,202)" stroke="rgb(202,202,202)" stroke-width="1" opacity="1" d="M 113.5 245 L 117 246.5 L 115 247.5 L 115.5 249 L 113.5 245 Z " /><path fill="rgb(202,202,202)" stroke="rgb(202,202,202)" stroke-width="1" opacity="1" d="M 161.5 247 L 162 249.5 L 161 249.5 L 161.5 247 Z " /><path fill="rgb(202,202,202)" stroke="rgb(202,202,202)" stroke-width="1" opacity="1" d="M 188 248 Q 191 247 190 250 Q 187 251 188 248 Z " /><path fill="rgb(202,202,202)" stroke="rgb(202,202,202)" stroke-width="1" opacity="1" d="M 413.5 248 L 414 273.5 L 413 273.5 L 413.5 248 Z " /><path fill="rgb(202,202,202)" stroke="rgb(202,202,202)" stroke-width="1" opacity="1" d="M 376.5 249 L 377.5 251 L 376.5 249 Z " /><path fill="rgb(202,202,202)" stroke="rgb(202,202,202)" stroke-width="1" opacity="1" d="M 440 249 Q 443 248 442 251 Q 439 252 440 249 Z " /><path fill="rgb(202,202,202)" stroke="rgb(202,202,202)" stroke-width="1" opacity="1" d="M 113.5 250 L 114.5 252 Q 111.7 252.7 113.5 250 Z " /><path fill="rgb(202,202,202)" stroke="rgb(202,202,202)" stroke-width="1" opacity="1" d="M 187 252 Q 190 251 189 254 Q 186 255 187 252 Z " /><path fill="rgb(202,202,202)" stroke="rgb(202,202,202)" stroke-width="1" opacity="1" d="M 378.5 252 L 379.5 254 L 378.5 252 Z " /><path fill="rgb(202,202,202)" stroke="rgb(202,202,202)" stroke-width="1" opacity="1" d="M 439 253 Q 442 252 441 255 Q 438 256 439 253 Z " /><path fill="rgb(202,202,202)" stroke="rgb(202,202,202)" stroke-width="1" opacity="1" d="M 370.5 255 L 371.5 257 L 370.5 255 Z " /><path fill="rgb(202,202,202)" stroke="rgb(202,202,202)" stroke-width="1" opacity="1" d="M 380.5 255 L 381.5 257 L 380.5 255 Z " /><path fill="rgb(202,202,202)" stroke="rgb(202,202,202)" stroke-width="1" opacity="1" d="M 186 256 Q 189 255 188 258 Q 185 259 186 256 Z " /><path fill="rgb(202,202,202)" stroke="rgb(202,202,202)" stroke-width="1" opacity="1" d="M 438 257 Q 441 256 440 259 Q 437 260 438 257 Z " /><path fill="rgb(202,202,202)" stroke="rgb(202,202,202)" stroke-width="1" opacity="1" d="M 372.5 258 L 373.5 260 L 372.5 258 Z " /><path fill="rgb(202,202,202)" stroke="rgb(202,202,202)" stroke-width="1" opacity="1" d="M 382.5 258 L 383.5 260 L 382.5 258 Z " /><path fill="rgb(202,202,202)" stroke="rgb(202,202,202)" stroke-width="1" opacity="1" d="M 185 260 L 187 260.5 L 185 261.5 L 185 260 Z " /><path fill="rgb(202,202,202)" stroke="rgb(202,202,202)" stroke-width="1" opacity="1" d="M 374.5 261 L 375.5 263 L 374.5 261 Z " /><path fill="rgb(202,202,202)" stroke="rgb(202,202,202)" stroke-width="1" opacity="1" d="M 384.5 261 L 385.5 263 L 384.5 261 Z " /><path fill="rgb(202,202,202)" stroke="rgb(202,202,202)" stroke-width="1" opacity="1" d="M 376.5 264 L 377.5 266 L 376.5 264 Z " /><path fill="rgb(202,202,202)" stroke="rgb(202,202,202)" stroke-width="1" opacity="1" d="M 421.5 266 L 422 268.5 L 421 268.5 L 421.5 266 Z " /><path fill="rgb(202,202,202)" stroke="rgb(202,202,202)" stroke-width="1" opacity="1" d="M 378.5 267 L 379.5 269 L 378.5 267 Z " /><path fill="rgb(202,202,202)" stroke="rgb(202,202,202)" stroke-width="1" opacity="1" d="M 380.5 270 L 381.5 272 L 380.5 270 Z " /><path fill="rgb(202,202,202)" stroke="rgb(202,202,202)" stroke-width="1" opacity="1" d="M 208.5 271 L 208.5 274 L 206 273.5 L 208.5 271 Z " /><path fill="rgb(202,202,202)" stroke="rgb(202,202,202)" stroke-width="1" opacity="1" d="M 292.5 271 L 293 273 L 291 272.5 L 292.5 271 Z " /><path fill="rgb(202,202,202)" stroke="rgb(202,202,202)" stroke-width="1" opacity="1" d="M 256.5 273 L 253.5 277 L 256.5 273 Z " /><path fill="rgb(202,202,202)" stroke="rgb(202,202,202)" stroke-width="1" opacity="1" d="M 382.5 273 L 384 276.5 L 383 276.5 L 382.5 273 Z " /><path fill="rgb(202,202,202)" stroke="rgb(202,202,202)" stroke-width="1" opacity="1" d="M 310.5 274 L 308.5 277 L 310.5 274 Z " /><path fill="rgb(202,202,202)" stroke="rgb(202,202,202)" stroke-width="1" opacity="1" d="M 418.5 274 L 416.5 277 L 418.5 274 Z " /><path fill="rgb(202,202,202)" stroke="rgb(202,202,202)" stroke-width="1" opacity="1" d="M 335.5 275 L 333.5 278 L 335.5 275 Z " /><path fill="rgb(202,202,202)" stroke="rgb(202,202,202)" stroke-width="1" opacity="1" d="M 129.5 276 L 128.5 278 L 129.5 276 Z " /><path fill="rgb(202,202,202)" stroke="rgb(202,202,202)" stroke-width="1" opacity="1" d="M 133.5 276 L 133.5 278 L 144.5 278 L 146 279.5 L 125 280 Q 123.9 277.3 126.5 278 L 129.5 279 L 133.5 276 Z " /><path fill="rgb(202,202,202)" stroke="rgb(202,202,202)" stroke-width="1" opacity="1" d="M 338.5 276 L 338.5 278 L 350.5 278 L 351 280 L 330.5 280 L 330 278 L 334.5 279 L 338.5 276 Z " /><path fill="rgb(202,202,202)" stroke="rgb(202,202,202)" stroke-width="1" opacity="1" d="M 162.5 277 L 163.5 278 L 185.5 278 L 186.5 279 L 206 279.5 L 155 280 Q 153.9 277.3 156.5 278 L 160.5 279 L 162.5 277 Z " /><path fill="rgb(202,202,202)" stroke="rgb(202,202,202)" stroke-width="1" opacity="1" d="M 191.5 277 L 194 277.5 L 191.5 278 L 191.5 277 Z " /><path fill="rgb(202,202,202)" stroke="rgb(202,202,202)" stroke-width="1" opacity="1" d="M 275.5 277 L 278 277.5 L 275.5 278 L 275.5 277 Z " /><path fill="rgb(202,202,202)" stroke="rgb(202,202,202)" stroke-width="1" opacity="1" d="M 306.5 277 L 307.5 278 L 320 278 L 319.5 280 L 299 280 Q 297.9 277.3 300.5 278 L 304.5 279 L 306.5 277 Z " /><path fill="rgb(202,202,202)" stroke="rgb(202,202,202)" stroke-width="1" opacity="1" d="M 386.5 277 L 387.5 278 L 401 278 L 400.5 280 L 380 280 Q 378.9 277.3 381.5 278 L 384.5 279 L 386.5 277 Z " /><path fill="rgb(202,202,202)" stroke="rgb(202,202,202)" stroke-width="1" opacity="1" d="M 443.5 277 L 447 277.5 L 443.5 278 L 443.5 277 Z " /><path fill="rgb(202,202,202)" stroke="rgb(202,202,202)" stroke-width="1" opacity="1" d="M 244 278 L 249.5 279 L 250.5 278 L 269.5 278 L 270.5 279 L 289 279.5 L 244 280 L 244 278 Z " /><path fill="rgb(202,202,202)" stroke="rgb(202,202,202)" stroke-width="1" opacity="1" d="M 407 278 L 412.5 279 L 413.5 278 L 437.5 278 L 438.5 279 L 457.5 279 L 459 278.5 L 457.5 280 L 407 280 L 407 278 Z " /><path fill="rgb(202,202,202)" stroke="rgb(202,202,202)" stroke-width="1" opacity="1" d="M 202.5 305 L 203.5 307 L 202.5 305 Z " /><path fill="rgb(202,202,202)" stroke="rgb(202,202,202)" stroke-width="1" opacity="1" d="M 108.5 309 L 113 310.5 L 111.5 311 L 109.5 310 L 108 312.5 L 109.5 315 Q 106.5 314.5 107 310.5 L 108.5 309 Z " /><path fill="rgb(202,202,202)" stroke="rgb(202,202,202)" stroke-width="1" opacity="1" d="M 127.5 309 L 127 310.5 L 127 312 L 131 312 L 131 314 Q 125.8 311.9 127 316.5 L 127.5 318 L 126 314.5 L 126 312.5 L 127.5 309 Z " /><path fill="rgb(202,202,202)" stroke="rgb(202,202,202)" stroke-width="1" opacity="1" d="M 147.5 309 L 148 310.5 L 146.5 313 L 145.5 311 Q 148 311.7 147.5 309 Z " /><path fill="rgb(202,202,202)" stroke="rgb(202,202,202)" stroke-width="1" opacity="1" d="M 166.5 309 L 167 317.5 L 166 317.5 L 166.5 309 Z " /><path fill="rgb(202,202,202)" stroke="rgb(202,202,202)" stroke-width="1" opacity="1" d="M 168.5 309 L 172 310.5 L 170 315 Q 167 316 168 313 Q 170.7 314.1 170 311.5 L 170.5 310 Q 167.5 310.5 168.5 309 Z " /><path fill="rgb(202,202,202)" stroke="rgb(202,202,202)" stroke-width="1" opacity="1" d="M 183.5 309 Q 186.5 310.5 185 316.5 L 183 317.5 Q 185.5 316 184 310.5 L 183.5 309 Z " /><path fill="rgb(202,202,202)" stroke="rgb(202,202,202)" stroke-width="1" opacity="1" d="M 186.5 309 L 189 309.5 Q 186.9 312.8 186.5 309 Z " /><path fill="rgb(202,202,202)" stroke="rgb(202,202,202)" stroke-width="1" opacity="1" d="M 204.5 309 L 204 310.5 Q 202.5 316 205 317.5 L 202 315.5 Q 201.4 310.4 204.5 309 Z " /><path fill="rgb(202,202,202)" stroke="rgb(202,202,202)" stroke-width="1" opacity="1" d="M 218.5 309 L 219.5 311 L 218.5 309 Z " /><path fill="rgb(202,202,202)" stroke="rgb(202,202,202)" stroke-width="1" opacity="1" d="M 239 309 L 243 309.5 L 239.5 311 L 239 309 Z " /><path fill="rgb(202,202,202)" stroke="rgb(202,202,202)" stroke-width="1" opacity="1" d="M 244.5 309 L 245.5 311 L 244.5 309 Z " /><path fill="rgb(202,202,202)" stroke="rgb(202,202,202)" stroke-width="1" opacity="1" d="M 271.5 309 Q 274.5 310.5 273 316.5 L 271 317.5 Q 273.5 316 272 310.5 L 271.5 309 Z " /><path fill="rgb(202,202,202)" stroke="rgb(202,202,202)" stroke-width="1" opacity="1" d="M 277.5 309 L 278 311 L 276 310.5 L 277.5 309 Z " /><path fill="rgb(202,202,202)" stroke="rgb(202,202,202)" stroke-width="1" opacity="1" d="M 291.5 309 L 294 309.5 L 290.5 311 L 291.5 309 Z " /><path fill="rgb(202,202,202)" stroke="rgb(202,202,202)" stroke-width="1" opacity="1" d="M 296.5 309 Q 299.5 310.5 296.5 312 Q 293.5 310.5 296.5 309 Z " /><path fill="rgb(202,202,202)" stroke="rgb(202,202,202)" stroke-width="1" opacity="1" d="M 313.5 309 L 316 309.5 L 313 310.5 L 314.5 315 L 315.5 313 L 316 314.5 L 313 315.5 L 314 317.5 L 312 316.5 L 313 313.5 L 312 310.5 L 313.5 309 Z " /><path fill="rgb(202,202,202)" stroke="rgb(202,202,202)" stroke-width="1" opacity="1" d="M 332.5 309 L 332 310.5 Q 331.2 313.5 335 312 L 335 314 Q 330.5 312.5 332 317 L 334.5 318 L 335.5 316 L 336 317.5 Q 334.7 320.3 333.5 318 L 331 316.5 L 332 313.5 L 331 310.5 L 332.5 309 Z " /><path fill="rgb(202,202,202)" stroke="rgb(202,202,202)" stroke-width="1" opacity="1" d="M 350.5 309 L 348.5 312 L 350.5 309 Z " /><path fill="rgb(202,202,202)" stroke="rgb(202,202,202)" stroke-width="1" opacity="1" d="M 370.5 309 L 370 310.5 Q 369.2 313.5 373 312 L 373 314 Q 368.5 312.5 370 317 L 372.5 318 L 373.5 316 L 374 317.5 Q 372.8 320.3 371.5 318 L 369 316.5 L 370 313.5 L 369 310.5 L 370.5 309 Z " /><path fill="rgb(202,202,202)" stroke="rgb(202,202,202)" stroke-width="1" opacity="1" d="M 385.5 309 Q 388.5 310.5 387 316.5 L 385 317.5 Q 387.5 316 386 310.5 L 385.5 309 Z " /><path fill="rgb(202,202,202)" stroke="rgb(202,202,202)" stroke-width="1" opacity="1" d="M 390.5 309 L 392 312.5 L 391 314.5 Q 393.3 315.8 390.5 317 L 388 313 Q 392.1 314.7 391 310.5 L 390.5 309 Z " /><path fill="rgb(202,202,202)" stroke="rgb(202,202,202)" stroke-width="1" opacity="1" d="M 153.5 311 L 153 312.5 L 154 315.5 L 149.5 319 L 149 317 L 152 315.5 Q 151.3 311.8 153.5 311 Z " /><path fill="rgb(202,202,202)" stroke="rgb(202,202,202)" stroke-width="1" opacity="1" d="M 237.5 311 L 239 314.5 L 238 314.5 L 237.5 311 Z " /><path fill="rgb(202,202,202)" stroke="rgb(202,202,202)" stroke-width="1" opacity="1" d="M 353 311 Q 356 310 355 313 Q 352 314 353 311 Z " /><path fill="rgb(202,202,202)" stroke="rgb(202,202,202)" stroke-width="1" opacity="1" d="M 276.5 312 L 277 314.5 L 276 314.5 L 276.5 312 Z " /><path fill="rgb(202,202,202)" stroke="rgb(202,202,202)" stroke-width="1" opacity="1" d="M 289.5 312 Q 292.3 313.3 290 314.5 L 289.5 316 L 289 314.5 L 289.5 312 Z " /><path fill="rgb(202,202,202)" stroke="rgb(202,202,202)" stroke-width="1" opacity="1" d="M 298.5 312 L 299 314.5 L 298 314.5 L 298.5 312 Z " /><path fill="rgb(202,202,202)" stroke="rgb(202,202,202)" stroke-width="1" opacity="1" d="M 350.5 312 L 349.5 314 L 350.5 312 Z " /><path fill="rgb(202,202,202)" stroke="rgb(202,202,202)" stroke-width="1" opacity="1" d="M 111.5 313 L 113 317 L 109.5 319 L 108.5 317 L 107 317.5 L 107.5 315 L 110.5 317 L 112 314.5 L 111.5 313 Z " /><path fill="rgb(202,202,202)" stroke="rgb(202,202,202)" stroke-width="1" opacity="1" d="M 186 313 Q 189 312 188 315 Q 185 316 186 313 Z " /><path fill="rgb(202,202,202)" stroke="rgb(202,202,202)" stroke-width="1" opacity="1" d="M 220.5 314 L 224 315.5 L 223.5 318 L 220.5 314 Z " /><path fill="rgb(202,202,202)" stroke="rgb(202,202,202)" stroke-width="1" opacity="1" d="M 245.5 314 L 246 317.5 L 245 317.5 L 245.5 314 Z " /><path fill="rgb(202,202,202)" stroke="rgb(202,202,202)" stroke-width="1" opacity="1" d="M 351.5 314 L 354 314.5 L 351.5 319 L 352 317.5 L 351.5 314 Z " /><path fill="rgb(202,202,202)" stroke="rgb(202,202,202)" stroke-width="1" opacity="1" d="M 145.5 316 L 148 316.5 Q 145.9 319.8 145.5 316 Z " /><path fill="rgb(202,202,202)" stroke="rgb(202,202,202)" stroke-width="1" opacity="1" d="M 237.5 316 L 238.5 318 L 237.5 316 Z " /><path fill="rgb(202,202,202)" stroke="rgb(202,202,202)" stroke-width="1" opacity="1" d="M 296 316 L 298 316.5 L 296 317.5 L 296 316 Z " /><path fill="rgb(202,202,202)" stroke="rgb(202,202,202)" stroke-width="1" opacity="1" d="M 316.5 316 L 317.5 318 L 315 317.5 L 316.5 316 Z " /><path fill="rgb(202,202,202)" stroke="rgb(202,202,202)" stroke-width="1" opacity="1" d="M 241 317 Q 244 316 243 319 Q 240 320 241 317 Z " /><path fill="rgb(202,202,202)" stroke="rgb(202,202,202)" stroke-width="1" opacity="1" d="M 293 317 L 295 317.5 L 293 318.5 L 293 317 Z " /><path fill="rgb(255,255,255)" stroke="rgb(255,255,255)" stroke-width="1" opacity="1" d="M 0 0 L 500 0 L 500 500 L 0 500 L 0 0 Z M 61 197 L 61 198 L 75 199 L 70 207 L 70 272 L 69 274 L 65 278 L 62 278 L 61 280 L 81 280 L 81 278 L 67 278 L 70 276 Q 69 278 72 277 L 73 214 L 101 279 Q 100 282 103 281 L 107 271 L 98 252 L 99 244 L 104 240 L 110 241 L 114 247 L 113 251 Q 112 253 115 252 L 130 214 L 131 214 L 131 274 L 128 278 Q 124 277 125 280 L 146 280 L 145 278 L 133 278 Q 139 274 140 266 L 140 202 L 141 199 L 146 198 L 146 197 L 125 198 L 138 199 L 136 200 L 131 207 L 116 245 Q 113 246 114 244 L 109 239 L 101 240 L 97 246 L 77 204 L 77 201 L 81 198 L 61 197 Z M 156 197 L 156 198 L 168 199 Q 163 202 161 209 L 161 226 L 163 231 L 171 237 L 168 238 Q 163 241 161 248 L 161 275 L 160 277 L 155 278 L 156 280 L 206 280 L 209 274 L 209 271 L 204 275 L 191 278 L 163 278 Q 168 274 170 268 L 170 241 L 176 237 L 191 237 L 185 261 L 186 262 L 188 258 L 190 247 L 203 201 L 203 197 L 156 197 Z M 245 197 L 245 198 L 258 199 L 257 199 Q 252 203 250 210 L 250 276 Q 249 279 244 278 L 245 280 L 289 280 L 293 273 L 293 271 L 288 275 L 275 278 L 252 278 L 254 277 Q 258 274 259 269 L 259 203 L 260 201 L 265 198 L 245 197 Z M 300 197 L 300 198 L 313 199 L 312 199 Q 307 202 305 209 L 305 275 L 304 277 L 302 278 Q 298 277 299 280 L 320 280 L 320 278 L 307 278 L 309 277 L 314 268 L 314 202 L 320 198 L 300 197 Z M 331 197 L 331 198 L 343 199 L 336 208 L 336 275 L 333 278 Q 329 277 330 280 L 351 280 L 351 278 L 338 278 Q 344 274 345 267 L 345 238 Q 347 233 355 234 L 362 243 L 383 275 Q 385 280 380 278 L 381 280 L 401 280 L 401 278 L 387 278 L 390 271 L 388 266 L 369 238 Q 365 231 354 231 L 389 201 L 396 198 L 400 198 L 400 197 L 362 198 L 369 200 L 369 198 L 389 199 L 378 208 L 373 212 L 374 209 L 372 203 L 370 202 L 372 206 L 371 214 L 347 235 L 345 235 L 345 202 L 351 198 L 331 197 Z M 408 197 L 408 198 L 421 199 L 420 199 Q 414 202 413 210 Q 411 224 416 232 L 423 237 L 419 239 L 413 249 L 413 275 L 412 277 Q 411 279 407 278 L 408 280 L 458 280 L 461 274 L 461 271 L 460 273 L 453 276 L 443 278 L 415 278 L 417 277 L 422 269 L 422 242 L 423 240 L 428 237 L 444 238 L 437 262 L 439 262 L 454 203 L 456 199 L 456 197 L 408 197 Z M 214 238 L 214 239 L 238 239 L 214 238 Z M 203 305 Q 201 308 204 307 L 203 305 Z M 109 309 L 107 311 Q 107 315 110 315 Q 112 314 111 317 L 108 315 L 107 318 L 110 319 L 112 318 L 113 315 L 111 313 L 109 310 L 112 311 L 113 311 Q 112 308 109 309 Z M 125 309 L 125 311 Q 127 316 124 318 L 128 318 L 127 317 Q 126 312 131 314 L 130 318 L 133 318 L 132 317 Q 131 311 133 310 L 131 309 L 131 311 L 131 312 L 127 312 L 128 310 L 125 309 Z M 148 309 Q 144 310 145 317 L 150 319 L 152 318 Q 155 317 154 312 Q 153 308 148 309 Z M 166 309 L 166 318 L 169 318 L 168 317 Q 167 314 170 315 Q 173 315 172 311 Q 171 308 166 309 Z M 184 309 Q 185 311 184 317 L 184 318 L 187 318 L 186 315 L 190 313 L 189 311 Q 190 308 184 309 Z M 202 309 L 202 311 Q 204 316 201 318 L 205 318 L 204 317 Q 203 311 205 310 L 202 309 Z M 217 309 L 217 311 Q 219 316 216 318 L 219 318 L 218 317 L 219 312 L 220 315 L 225 318 L 225 311 L 226 310 L 224 309 L 224 311 L 224 315 L 220 311 L 217 309 Z M 240 309 Q 236 310 237 317 L 242 319 L 246 318 L 246 314 L 245 314 L 243 314 L 244 317 Q 240 318 239 316 Q 238 311 241 310 L 245 311 L 246 311 Q 245 308 240 309 Z M 272 309 Q 273 311 272 317 L 272 318 L 275 318 L 274 314 L 277 315 L 277 313 L 276 313 Q 273 314 274 310 L 278 311 Q 279 308 272 309 Z M 292 309 Q 288 310 289 316 L 294 319 L 297 318 L 299 315 L 298 311 Q 297 308 292 309 Z M 311 309 L 311 311 Q 313 316 310 318 L 314 318 L 313 317 L 314 315 L 315 318 L 318 318 Q 315 317 316 313 L 316 311 Q 317 308 311 309 Z M 330 309 L 330 311 Q 332 316 329 318 L 334 318 Q 335 320 336 318 L 336 316 L 332 317 Q 331 313 335 314 Q 336 311 332 312 Q 331 309 335 310 L 336 311 Q 337 307 330 309 Z M 348 309 L 352 319 L 356 310 L 354 309 L 353 312 Q 354 315 351 314 L 350 312 L 351 310 L 348 309 Z M 368 309 L 368 311 Q 370 316 367 318 L 372 318 Q 373 320 374 318 L 374 316 L 370 317 Q 369 313 373 314 Q 374 311 370 312 Q 369 309 373 310 L 374 311 Q 375 307 368 309 Z M 386 309 Q 386 311 386 317 L 386 318 L 389 318 L 388 316 L 392 318 L 394 318 L 392 317 L 391 315 L 392 311 Q 391 308 386 309 Z " /><path fill="rgb(255,255,255)" stroke="rgb(255,255,255)" stroke-width="1" opacity="1" d="M 173.5 198 L 194.5 199 L 200 202.5 L 200 206.5 L 192 236 L 174.5 236 L 170 232.5 L 170 201.5 L 173.5 198 Z " /><path fill="rgb(255,255,255)" stroke="rgb(255,255,255)" stroke-width="1" opacity="1" d="M 426.5 198 L 440.5 198 L 452 201 L 453 203.5 L 444 236 L 426.5 236 L 423 233.5 L 422 231.5 L 422 202.5 L 424.5 199 L 426.5 198 Z " /><path fill="rgb(255,255,255)" stroke="rgb(255,255,255)" stroke-width="1" opacity="1" d="M 148.5 310 L 152 311.5 Q 153 316 150.5 317 L 147 315.5 L 146 313.5 L 148.5 310 Z " /><path fill="rgb(255,255,255)" stroke="rgb(255,255,255)" stroke-width="1" opacity="1" d="M 168 310 Q 171.3 308.9 170 313 Q 166.7 314.1 168 310 Z " /><path fill="rgb(255,255,255)" stroke="rgb(255,255,255)" stroke-width="1" opacity="1" d="M 186.5 310 L 188 313 Q 184.5 314.1 186.5 310 Z " /><path fill="rgb(255,255,255)" stroke="rgb(255,255,255)" stroke-width="1" opacity="1" d="M 292.5 310 Q 296.5 309.5 297 312.5 Q 297.8 316.3 295.5 317 Q 291.1 318.5 292 315.5 L 291 311.5 L 292.5 310 Z " /><path fill="rgb(255,255,255)" stroke="rgb(255,255,255)" stroke-width="1" opacity="1" d="M 313.5 310 L 315 313 Q 311.5 314.1 313.5 310 Z " /><path fill="rgb(255,255,255)" stroke="rgb(255,255,255)" stroke-width="1" opacity="1" d="M 388 310 Q 391.3 308.9 390 313 Q 386.7 314.1 388 310 Z " /><path fill="rgb(23,23,23)" stroke="rgb(23,23,23)" stroke-width="1" opacity="1" d="M 61.5 197 L 81 197.5 L 77 199.5 L 77 204.5 L 104 264.5 L 106 272.5 L 103 280 Q 100 281.3 101 277.5 L 73 213.5 L 71 211.5 L 71 204.5 L 74.5 199 L 76 198.5 L 61.5 198 L 61.5 197 Z " /><path fill="rgb(23,23,23)" stroke="rgb(23,23,23)" stroke-width="1" opacity="1" d="M 125.5 197 L 145 197.5 L 140 200.5 L 139 202.5 L 139 268.5 L 134.5 276 L 127.5 279 L 127.5 278 L 130 276.5 L 131 274.5 L 131 211.5 L 131 209.5 Q 132.1 202.1 137.5 199 L 139 198.5 L 125.5 198 L 125.5 197 Z " /><path fill="rgb(23,23,23)" stroke="rgb(23,23,23)" stroke-width="1" opacity="1" d="M 156.5 197 L 202.5 197 L 203 199.5 L 201.5 203 L 198.5 200 L 191.5 198 L 172.5 198 L 169 203.5 L 169 230.5 L 172.5 236 L 191.5 236 L 192.5 235 L 193 237 L 173.5 237 L 171 238 L 169 242.5 L 169 269.5 L 163.5 277 Q 162.1 279.6 157.5 279 L 157.5 278 L 161 275.5 L 161 250.5 L 163 243.5 L 168.5 238 L 172 236.5 L 164 231.5 L 161 222.5 L 161 211.5 L 162 206.5 L 166.5 200 L 169 198.5 L 156.5 198 L 156.5 197 Z " /><path fill="rgb(23,23,23)" stroke="rgb(23,23,23)" stroke-width="1" opacity="1" d="M 245.5 197 L 265 197.5 L 260 199 L 259 201.5 L 259 266.5 Q 257.6 274.6 251.5 278 L 246.5 279 L 246.5 278 L 250 275.5 L 251 273.5 L 251 207.5 Q 252.4 201.4 257.5 199 L 259 198.5 L 245.5 198 L 245.5 197 Z " /><path fill="rgb(23,23,23)" stroke="rgb(23,23,23)" stroke-width="1" opacity="1" d="M 300.5 197 L 319 197.5 L 314 200.5 L 313 203.5 L 313 269.5 L 307.5 277 Q 306.1 279.6 301.5 279 L 301.5 278 L 305 275.5 L 306 272.5 L 306 206.5 L 310.5 200 L 313 198.5 L 300.5 198 L 300.5 197 Z " /><path fill="rgb(23,23,23)" stroke="rgb(23,23,23)" stroke-width="1" opacity="1" d="M 331.5 197 L 350 197.5 L 345 200.5 L 344 203.5 L 344 236.5 L 348.5 233 L 354.5 228 L 352.5 232 L 357.5 231 Q 366.4 232.6 370 239.5 L 387 264.5 Q 389.8 267.2 389 273.5 L 384.5 279 L 382 278.5 L 384 274.5 L 355.5 234 Q 345.8 232.3 344 238.5 L 344 268.5 L 339.5 276 L 332.5 279 L 332.5 278 L 336 275.5 L 336 209.5 Q 337.1 202.1 342.5 199 L 344 198.5 L 331.5 198 L 331.5 197 Z " /><path fill="rgb(23,23,23)" stroke="rgb(23,23,23)" stroke-width="1" opacity="1" d="M 362.5 197 L 400 197.5 L 392.5 199 L 391.5 198 L 362.5 198 L 362.5 197 Z " /><path fill="rgb(23,23,23)" stroke="rgb(23,23,23)" stroke-width="1" opacity="1" d="M 408.5 197 L 454.5 197 L 455 200.5 L 453.5 204 L 450.5 200 Q 441 196 425.5 198 L 423 199 L 422 201.5 L 422 232.5 L 423 235 L 425.5 236 L 445 236 L 444.5 238 L 443.5 237 L 425.5 237 L 422 240.5 L 422 265.5 L 421 270.5 L 414.5 278 L 409.5 279 L 409.5 278 L 413 275.5 L 414 273.5 L 414 246.5 L 420.5 238 L 424 236.5 L 415 229.5 L 414 226.5 L 414 207.5 Q 415.4 201.4 420.5 199 L 422 198.5 L 408.5 198 L 408.5 197 Z " /><path fill="rgb(23,23,23)" stroke="rgb(23,23,23)" stroke-width="1" opacity="1" d="M 368.5 199 L 370.5 202 L 368.5 199 Z " /><path fill="rgb(23,23,23)" stroke="rgb(23,23,23)" stroke-width="1" opacity="1" d="M 389.5 199 L 391 199.5 L 382.5 206 L 387.5 200 L 389.5 199 Z " /><path fill="rgb(23,23,23)" stroke="rgb(23,23,23)" stroke-width="1" opacity="1" d="M 380.5 206 L 376.5 211 L 380.5 206 Z " /><path fill="rgb(23,23,23)" stroke="rgb(23,23,23)" stroke-width="1" opacity="1" d="M 372.5 209 L 373.5 212 L 375 211.5 L 370 215.5 L 371.5 213 L 373 212.5 L 372.5 209 Z " /><path fill="rgb(23,23,23)" stroke="rgb(23,23,23)" stroke-width="1" opacity="1" d="M 450.5 213 L 451 215.5 L 450 215.5 L 450.5 213 Z " /><path fill="rgb(23,23,23)" stroke="rgb(23,23,23)" stroke-width="1" opacity="1" d="M 367.5 217 L 363.5 222 L 367.5 217 Z " /><path fill="rgb(23,23,23)" stroke="rgb(23,23,23)" stroke-width="1" opacity="1" d="M 361.5 222 L 357.5 227 L 361.5 222 Z " /><path fill="rgb(23,23,23)" stroke="rgb(23,23,23)" stroke-width="1" opacity="1" d="M 123.5 227 L 124 228.5 L 122.5 231 L 122 229.5 L 123.5 227 Z " /><path fill="rgb(23,23,23)" stroke="rgb(23,23,23)" stroke-width="1" opacity="1" d="M 214.5 238 L 237 238.5 L 214.5 239 L 214.5 238 Z " /><path fill="rgb(23,23,23)" stroke="rgb(23,23,23)" stroke-width="1" opacity="1" d="M 111.5 241 L 112.5 243 L 111.5 241 Z " /><path fill="rgb(23,23,23)" stroke="rgb(23,23,23)" stroke-width="1" opacity="1" d="M 190.5 242 L 191 244.5 L 190 244.5 L 190.5 242 Z " /><path fill="rgb(23,23,23)" stroke="rgb(23,23,23)" stroke-width="1" opacity="1" d="M 98.5 243 L 98 244.5 L 97.5 246 L 97 244.5 L 98.5 243 Z " /><path fill="rgb(23,23,23)" stroke="rgb(23,23,23)" stroke-width="1" opacity="1" d="M 442.5 243 L 443 245.5 L 442 245.5 L 442.5 243 Z " /><path fill="rgb(23,23,23)" stroke="rgb(23,23,23)" stroke-width="1" opacity="1" d="M 115.5 247 L 115 248.5 L 114.5 251 L 114 248.5 L 115.5 247 Z " /><path fill="rgb(23,23,23)" stroke="rgb(23,23,23)" stroke-width="1" opacity="1" d="M 70.5 271 L 71 272.5 L 69 273.5 L 70.5 271 Z " /><path fill="rgb(23,23,23)" stroke="rgb(23,23,23)" stroke-width="1" opacity="1" d="M 208.5 272 L 208 273.5 L 206 279 L 186 278.5 L 202.5 276 L 208.5 272 Z " /><path fill="rgb(23,23,23)" stroke="rgb(23,23,23)" stroke-width="1" opacity="1" d="M 460.5 272 L 460 273.5 L 457.5 279 L 438 278.5 L 454.5 276 L 460.5 272 Z " /><path fill="rgb(23,23,23)" stroke="rgb(23,23,23)" stroke-width="1" opacity="1" d="M 290.5 273 L 292 273.5 L 290 279 L 270 278.5 L 282.5 277 L 290.5 273 Z " /><path fill="rgb(23,23,23)" stroke="rgb(23,23,23)" stroke-width="1" opacity="1" d="M 68.5 275 L 67.5 277 L 68.5 275 Z " /><path fill="rgb(23,23,23)" stroke="rgb(23,23,23)" stroke-width="1" opacity="1" d="M 65.5 277 L 64.5 279 L 63 278.5 L 65.5 277 Z " /><path fill="rgb(23,23,23)" stroke="rgb(23,23,23)" stroke-width="1" opacity="1" d="M 125 309 L 127 309.5 L 126 312.5 L 126 314.5 L 127 317.5 L 125 318 L 125 309 Z " /><path fill="rgb(23,23,23)" stroke="rgb(23,23,23)" stroke-width="1" opacity="1" d="M 131.5 309 L 132 317.5 L 131 317.5 L 131.5 309 Z " /><path fill="rgb(23,23,23)" stroke="rgb(23,23,23)" stroke-width="1" opacity="1" d="M 148.5 309 L 153 310 L 154 314.5 L 153 314.5 Q 153.5 310.5 150.5 310 Q 147.5 310.5 148.5 309 Z " /><path fill="rgb(23,23,23)" stroke="rgb(23,23,23)" stroke-width="1" opacity="1" d="M 167.5 309 L 168 317.5 L 167 317.5 L 167.5 309 Z " /><path fill="rgb(23,23,23)" stroke="rgb(23,23,23)" stroke-width="1" opacity="1" d="M 184.5 309 L 186 309.5 L 186 318 L 184 317.5 Q 186.5 316 185 310.5 L 184.5 309 Z " /><path fill="rgb(23,23,23)" stroke="rgb(23,23,23)" stroke-width="1" opacity="1" d="M 187.5 309 Q 189.8 309.8 189 313.5 L 188 313.5 L 187.5 309 Z " /><path fill="rgb(23,23,23)" stroke="rgb(23,23,23)" stroke-width="1" opacity="1" d="M 202 309 L 204 309.5 L 202.5 312 L 202 309 Z " /><path fill="rgb(23,23,23)" stroke="rgb(23,23,23)" stroke-width="1" opacity="1" d="M 217.5 309 L 223.5 316 L 224.5 309 L 225 317.5 L 218 312.5 L 217.5 318 L 217.5 309 Z " /><path fill="rgb(23,23,23)" stroke="rgb(23,23,23)" stroke-width="1" opacity="1" d="M 243.5 309 L 244.5 311 L 243.5 309 Z " /><path fill="rgb(23,23,23)" stroke="rgb(23,23,23)" stroke-width="1" opacity="1" d="M 272.5 309 L 274 309.5 L 274 318 L 272 317.5 Q 274.5 316 273 310.5 L 272.5 309 Z " /><path fill="rgb(23,23,23)" stroke="rgb(23,23,23)" stroke-width="1" opacity="1" d="M 294.5 309 L 298 311.5 L 297.5 316 Q 298.1 311.4 295.5 310 L 294.5 309 Z " /><path fill="rgb(23,23,23)" stroke="rgb(23,23,23)" stroke-width="1" opacity="1" d="M 311 309 L 313 309.5 L 312 312.5 L 312 314.5 L 313 317.5 L 311 318 L 311 309 Z " /><path fill="rgb(23,23,23)" stroke="rgb(23,23,23)" stroke-width="1" opacity="1" d="M 314.5 309 L 316 312.5 L 315 314.5 L 317 317.5 L 315 316.5 L 314 313.5 L 315 310.5 L 314.5 309 Z " /><path fill="rgb(23,23,23)" stroke="rgb(23,23,23)" stroke-width="1" opacity="1" d="M 330 309 L 332 309.5 L 331 312.5 L 331 314.5 L 332 317.5 L 330 318 L 330 309 Z " /><path fill="rgb(23,23,23)" stroke="rgb(23,23,23)" stroke-width="1" opacity="1" d="M 348 309 L 350 309.5 L 350 311.5 L 352 317.5 L 351 317.5 L 348 309 Z " /><path fill="rgb(23,23,23)" stroke="rgb(23,23,23)" stroke-width="1" opacity="1" d="M 368 309 L 370 309.5 L 369 312.5 L 369 314.5 L 370 317.5 L 368 318 L 368 309 Z " /><path fill="rgb(23,23,23)" stroke="rgb(23,23,23)" stroke-width="1" opacity="1" d="M 386.5 309 L 388 309.5 L 388 318 L 386 317.5 Q 388.5 316 387 310.5 L 386.5 309 Z " /><path fill="rgb(23,23,23)" stroke="rgb(23,23,23)" stroke-width="1" opacity="1" d="M 389.5 309 L 391 312.5 L 390 312.5 L 389.5 309 Z " /><path fill="rgb(23,23,23)" stroke="rgb(23,23,23)" stroke-width="1" opacity="1" d="M 170.5 310 L 172 312.5 L 170 313.5 L 171 311.5 L 170.5 310 Z " /><path fill="rgb(23,23,23)" stroke="rgb(23,23,23)" stroke-width="1" opacity="1" d="M 238.5 310 L 239 311.5 L 238 314.5 L 240.5 318 L 237 315.5 L 238.5 310 Z " /><path fill="rgb(23,23,23)" stroke="rgb(23,23,23)" stroke-width="1" opacity="1" d="M 291.5 310 L 291 311.5 L 290 313.5 L 293 317.5 L 291.5 317 Q 288.9 317.8 290 314.5 L 290 312.5 L 291.5 310 Z " /><path fill="rgb(23,23,23)" stroke="rgb(23,23,23)" stroke-width="1" opacity="1" d="M 108.5 311 L 112 315.5 L 108 312.5 L 108.5 311 Z " /><path fill="rgb(23,23,23)" stroke="rgb(23,23,23)" stroke-width="1" opacity="1" d="M 145.5 312 L 147 317 L 149 317.5 L 147.5 318 Q 143.7 316.7 145.5 312 Z " /><path fill="rgb(23,23,23)" stroke="rgb(23,23,23)" stroke-width="1" opacity="1" d="M 244.5 314 L 245 318 L 243 317.5 L 244.5 314 Z " /><path fill="rgb(23,23,23)" stroke="rgb(23,23,23)" stroke-width="1" opacity="1" d="M 389.5 314 L 392.5 318 Q 390.3 318.8 391 316.5 L 389.5 314 Z " /><path fill="rgb(23,23,23)" stroke="rgb(23,23,23)" stroke-width="1" opacity="1" d="M 152.5 316 L 151.5 318 L 152.5 316 Z " /><path fill="rgb(23,23,23)" stroke="rgb(23,23,23)" stroke-width="1" opacity="1" d="M 202.5 316 L 203.5 318 Q 200.7 318.7 202.5 316 Z " /></svg>