<?xml version="1.0" encoding="UTF-8"?>
<svg id="Layer_2" data-name="Layer 2" xmlns="http://www.w3.org/2000/svg" viewBox="0 0 23.43 34.96">
  <defs>
    <style>
      .cls-1 {
        stroke-width: 0px;
      }
    </style>
  </defs>
  <g id="Layer_1-2" data-name="Layer 1">
    <g>
      <path class="cls-1" d="m19.96,34.96H3.47c-1.92,0-3.47-1.56-3.47-3.47V3.47C0,1.56,1.56,0,3.47,0h16.48c1.92,0,3.47,1.56,3.47,3.47v28.02c0,1.92-1.56,3.47-3.47,3.47ZM3.47,2c-.81,0-1.47.66-1.47,1.47v28.02c0,.81.66,1.47,1.47,1.47h16.48c.81,0,1.47-.66,1.47-1.47V3.47c0-.81-.66-1.47-1.47-1.47H3.47Z"/>
      <rect class="cls-1" x="10.07" y="4.94" width="3.3" height="2"/>
      <rect class="cls-1" x="8.42" y="28.02" width="6.59" height="2"/>
    </g>
  </g>
</svg>