<?xml version="1.0" encoding="UTF-8"?>
<svg id="Layer_2" data-name="Layer 2" xmlns="http://www.w3.org/2000/svg" viewBox="0 0 33.52 33.89">
  <defs>
    <style>
      .cls-1 {
        stroke-width: 0px;
      }
    </style>
  </defs>
  <g id="Layer_1-2" data-name="Layer 1">
    <g>
      <path class="cls-1" d="m26.53,8.66l-14.51-.02-.5-1.87L23.26,0l4.13,7.16-.87,1.5Zm-10.79-2.01h9.05s-2.27-3.92-2.27-3.92l-6.79,3.92Z"/>
      <path class="cls-1" d="m30.95,33.89H2.58c-1.42,0-2.58-1.16-2.58-2.58V9.25c0-1.42,1.16-2.58,2.58-2.58h28.37c1.42,0,2.58,1.16,2.58,2.58v22.06c0,1.42-1.16,2.58-2.58,2.58ZM2.58,8.67c-.32,0-.58.26-.58.58v22.06c0,.32.26.58.58.58h28.37c.32,0,.58-.26.58-.58V9.25c0-.32-.26-.58-.58-.58H2.58Z"/>
      <path class="cls-1" d="m33.52,25.22h-7.9c-2.83,0-5.14-2.22-5.14-4.94s2.3-4.94,5.14-4.94h7.9v9.88Zm-7.9-7.88c-1.73,0-3.14,1.32-3.14,2.94s1.41,2.94,3.14,2.94h5.9v-5.88h-5.9Z"/>
      <rect class="cls-1" x="31.52" y="11.22" width="2" height="18.91"/>
    </g>
  </g>
</svg>