<?xml version="1.0" encoding="UTF-8"?>
<svg id="Layer_2" data-name="Layer 2" xmlns="http://www.w3.org/2000/svg" viewBox="0 0 32.99 32.99">
  <defs>
    <style>
      .cls-1 {
        stroke-width: 0px;
      }
    </style>
  </defs>
  <g id="Layer_1-2" data-name="Layer 1">
    <g>
      <path class="cls-1" d="m20.37,15.82c-1.14,0-2.29-.31-3.3-.92l-.57-.34-.57.34c-2.04,1.23-4.57,1.22-6.61,0l-.57-.34-.57.34c-2.04,1.23-4.57,1.22-6.61,0l-1.57-.94v-7.77h32.99v7.77l-1.57.94c-2.04,1.23-4.57,1.22-6.61,0l-.57-.34-.57.34c-1.02.61-2.16.92-3.31.92Zm-3.87-3.59l1.6.96c1.4.84,3.15.84,4.55,0l1.6-.96,1.6.96c1.4.84,3.15.84,4.55,0l.6-.36v-4.63H2v4.63l.6.36c1.4.84,3.15.84,4.55,0l1.6-.96,1.6.96c1.4.84,3.15.84,4.55,0l1.6-.96Z"/>
      <polygon class="cls-1" points="29.89 32.99 3.1 32.99 3.1 15.33 5.1 15.33 5.1 30.99 27.89 30.99 27.89 14.95 29.89 14.95 29.89 32.99"/>
      <polygon class="cls-1" points="29.89 7.2 27.89 7.2 27.89 2 5.1 2 5.1 7.06 3.1 7.06 3.1 0 29.89 0 29.89 7.2"/>
      <path class="cls-1" d="m21.37,32.99h-9.75v-11.3h9.75v11.3Zm-7.75-2h5.75v-7.3h-5.75v7.3Z"/>
    </g>
  </g>
</svg>