<?xml version="1.0" encoding="UTF-8"?>
<svg id="Layer_2" data-name="Layer 2" xmlns="http://www.w3.org/2000/svg" viewBox="0 0 23.48 24.87">
  <defs>
    <style>
      .cls-1 {
        stroke-width: 0px;
        fill: white;
      }
    </style>
  </defs>
  <g id="Layer_1-2" data-name="Layer 1">
    <g>
      <path class="cls-1" d="m11.74,11.55c-3.18,0-5.77-2.59-5.77-5.77S8.56,0,11.74,0s5.77,2.59,5.77,5.77-2.59,5.77-5.77,5.77Zm0-9.55c-2.08,0-3.77,1.69-3.77,3.77s1.69,3.77,3.77,3.77,3.77-1.69,3.77-3.77-1.69-3.77-3.77-3.77Z"/>
      <path class="cls-1" d="m23.48,24.87h-2c0-5.37-4.37-9.74-9.74-9.74S2,19.5,2,24.87H0c0-6.48,5.27-11.74,11.74-11.74s11.74,5.27,11.74,11.74Z"/>
    </g>
  </g>
</svg>