<svg width="64" height="64" viewBox="0 0 64 64" fill="none" xmlns="http://www.w3.org/2000/svg">
<rect width="64" height="64" rx="32" fill="black"/>
<g clip-path="url(#clip0_4063_95780)">
<path d="M33.6718 32.6347V37.376H38.3732C36.8043 39.5084 34.3257 40.8853 31.5351 40.8853C26.7923 40.8853 22.9465 36.9082 22.9465 32.0011C22.9465 27.094 26.7913 23.1158 31.534 23.1158C35.3511 23.1158 38.5834 25.6929 39.7011 29.256H44.8026C43.566 22.8467 38.0887 18 31.534 18C24.0717 18 18 24.2808 18 32C18 39.7192 24.0717 46 31.534 46C35.5666 46 39.1927 44.1663 41.6744 41.262V45.6157H46.0011V32.6336H33.6718V32.6347Z" fill="white"/>
</g>
<defs>
<clipPath id="clip0_4063_95780">
<rect width="28" height="28" fill="white" transform="translate(18 18)"/>
</clipPath>
</defs>
</svg>
