<svg width="24" height="24" viewBox="0 0 24 24" fill="none" xmlns="http://www.w3.org/2000/svg">
<path d="M11 2H9C4 2 2 4 2 9V15C2 20 4 22 9 22H15C20 22 22 20 22 15V13" stroke="#292D32" stroke-width="1.5" stroke-linecap="round" stroke-linejoin="round"/>
<path d="M6.6225 17.6225C7.4525 18.4525 8.7925 18.4525 9.6225 17.6225L22.6225 4.6225C23.4525 3.7925 23.4525 2.4525 22.6225 1.6225C21.7925 0.7925 20.4525 0.7925 19.6225 1.6225L6.6225 14.6225C5.7925 15.4525 5.7925 16.7925 6.6225 17.6225Z" stroke="#292D32" stroke-width="1.5" stroke-linecap="round" stroke-linejoin="round"/>
<path d="M21.1325 6.11255L18.1325 3.11255" stroke="#292D32" stroke-width="1.5" stroke-linecap="round" stroke-linejoin="round"/>
</svg>
