<svg width="209" height="48" viewBox="0 0 209 48" fill="none" xmlns="http://www.w3.org/2000/svg">
<path d="M9.152 46.32C8.98133 46.32 8.81067 46.2986 8.64 46.256C8.46933 46.256 8.32 46.2346 8.192 46.192C7.12533 45.8506 6.29333 45.2106 5.696 44.272C5.09867 43.3333 4.65067 42.224 4.352 40.944C4.096 39.664 3.92533 38.3626 3.84 37.04C3.79733 35.7173 3.776 34.544 3.776 33.52C3.776 32.0266 3.75467 30.576 3.712 29.168C3.712 27.76 3.712 26.352 3.712 24.944C3.712 23.92 3.712 22.8746 3.712 21.808C3.75467 20.7413 3.79733 19.6533 3.84 18.544H1.6C1.088 18.544 0.704 18.3733 0.448 18.032C0.149333 17.6906 0 17.3066 0 16.88C0 16.496 0.149333 16.1333 0.448 15.792C0.704 15.4506 1.088 15.28 1.6 15.28H4.032C4.11733 13.6586 4.18133 11.9093 4.224 10.032C4.30933 8.15462 4.352 6.42662 4.352 4.84796C4.352 4.29329 4.52267 3.88796 4.864 3.63195C5.20533 3.33329 5.58933 3.18396 6.016 3.18396C6.44267 3.18396 6.82667 3.33329 7.168 3.63195C7.50933 3.88796 7.68 4.29329 7.68 4.84796C7.68 6.42662 7.63733 8.15462 7.552 10.032C7.46667 11.9093 7.38133 13.6586 7.296 15.28H15.808C16.3627 15.28 16.768 15.4506 17.024 15.792C17.28 16.1333 17.408 16.496 17.408 16.88C17.408 17.3066 17.28 17.6906 17.024 18.032C16.768 18.3733 16.3627 18.544 15.808 18.544H7.168C7.12533 19.7386 7.08267 20.912 7.04 22.064C7.04 23.1733 7.04 24.2826 7.04 25.392V33.072C7.04 33.7546 7.06133 34.608 7.104 35.632C7.14667 36.656 7.21067 37.7013 7.296 38.768C7.424 39.8346 7.59467 40.7733 7.808 41.584C8.064 42.352 8.40533 42.8213 8.832 42.992C9.088 43.0773 9.28 43.12 9.408 43.12C9.74933 43.12 10.0907 43.056 10.432 42.928C10.816 42.7573 11.1573 42.6293 11.456 42.544C11.5413 42.5013 11.648 42.48 11.776 42.48C11.904 42.48 11.9893 42.48 12.032 42.48C12.544 42.48 12.928 42.6506 13.184 42.992C13.44 43.2906 13.568 43.6533 13.568 44.08C13.568 44.8053 13.248 45.3386 12.608 45.68C12.2667 45.8506 11.7547 46 11.072 46.128C10.3893 46.256 9.74933 46.32 9.152 46.32Z" fill="url(#paint0_linear_3050_59914)"/>
<path d="M30.1605 46.576C27.4298 46.576 25.1045 45.8506 23.1845 44.4C21.3072 42.9066 19.8778 41.008 18.8965 38.704C17.9578 36.3573 17.4885 33.9253 17.4885 31.408C17.4885 29.0613 17.8938 26.8 18.7045 24.624C19.5578 22.4053 20.8378 20.5493 22.5445 19.056C24.1658 17.776 25.7872 16.8373 27.4085 16.24C29.0298 15.6426 30.6298 15.344 32.2085 15.344C34.9818 15.344 36.9658 16.0053 38.1605 17.328C39.3978 18.608 40.0165 20.1226 40.0165 21.872C40.0165 23.3226 39.6112 24.7946 38.8005 26.288C38.0325 27.7386 36.9658 28.9546 35.6005 29.936C34.1925 30.9173 32.5925 31.7066 30.8005 32.304C29.0512 32.8586 27.2805 33.136 25.4885 33.136C23.9098 33.136 22.3738 32.88 20.8805 32.368C20.9658 34.288 21.3712 36.08 22.0965 37.744C22.8218 39.408 23.8458 40.752 25.1685 41.776C26.5338 42.8 28.1978 43.312 30.1605 43.312C31.1418 43.312 32.2512 43.1626 33.4885 42.864C34.7685 42.5653 35.9205 42.096 36.9445 41.456C37.9685 40.7733 38.5872 39.9413 38.8005 38.96C38.8858 38.6613 38.9285 38.2986 38.9285 37.872C38.9285 37.4453 38.9285 37.0826 38.9285 36.784C38.9285 36.2293 39.0992 35.824 39.4405 35.568C39.7818 35.312 40.1658 35.184 40.5925 35.184C40.9765 35.184 41.3392 35.312 41.6805 35.568C42.0218 35.824 42.1925 36.2293 42.1925 36.784C42.1925 37.3813 42.1925 37.936 42.1925 38.448C42.1925 38.9173 42.0858 39.4506 41.8725 40.048C41.3605 41.6266 40.4432 42.9066 39.1205 43.888C37.7978 44.8266 36.3258 45.5093 34.7045 45.936C33.1258 46.3626 31.6112 46.576 30.1605 46.576ZM25.5525 29.808C26.3205 29.808 27.0245 29.744 27.6645 29.616C29.0725 29.36 30.4592 28.912 31.8245 28.272C33.2325 27.632 34.4058 26.7786 35.3445 25.712C36.2832 24.6026 36.7525 23.3013 36.7525 21.808C36.7525 20.8693 36.4112 20.144 35.7285 19.632C35.0458 19.12 34.2352 18.8 33.2965 18.672C33.0405 18.6293 32.7845 18.608 32.5285 18.608C32.2725 18.5653 32.0165 18.544 31.7605 18.544C29.8832 18.544 28.1978 19.056 26.7045 20.08C25.2112 21.0613 23.9738 22.3413 22.9925 23.92C22.0538 25.4986 21.4352 27.184 21.1365 28.976C21.7765 29.2746 22.4805 29.488 23.2485 29.616C24.0165 29.744 24.7845 29.808 25.5525 29.808Z" fill="url(#paint1_linear_3050_59914)"/>
<path d="M57.7825 46.448C56.7585 46.448 55.7345 46.3413 54.7105 46.128C53.6865 45.9573 52.7478 45.68 51.8945 45.296C51.3398 45.0826 50.9132 44.7626 50.6145 44.336C50.3585 43.9093 50.2305 43.4826 50.2305 43.056C50.2305 42.7146 50.3372 42.4373 50.5505 42.224C50.8065 41.968 51.1478 41.84 51.5745 41.84C52.0012 41.84 52.4918 41.968 53.0465 42.224C53.7292 42.5226 54.4758 42.736 55.2865 42.864C56.1398 42.992 56.9932 43.056 57.8465 43.056C58.8705 43.056 59.8732 42.9493 60.8545 42.736C61.8358 42.5226 62.6678 42.2026 63.3505 41.776C64.6305 40.9226 65.7398 39.7706 66.6785 38.32C67.6598 36.8693 68.2572 35.3973 68.4705 33.904C68.5558 33.3066 68.6198 32.7093 68.6625 32.112C68.7052 31.5146 68.7265 30.9173 68.7265 30.32C68.7265 29.296 68.6412 28.2933 68.4705 27.312C68.3425 26.288 68.0865 25.3706 67.7025 24.56C67.0625 23.152 66.1878 22.0426 65.0785 21.232C64.0118 20.3786 62.6892 19.952 61.1105 19.952C59.2758 19.952 57.6972 20.4213 56.3745 21.36C55.0945 22.2986 54.0278 23.536 53.1745 25.072C52.3638 26.5653 51.7025 28.208 51.1905 30C50.6785 31.792 50.2945 33.5626 50.0385 35.312C49.8252 37.0186 49.6758 38.5333 49.5905 39.856V42.16C49.5478 42.5866 49.5265 43.0133 49.5265 43.44C49.5265 43.8666 49.5052 44.1653 49.4625 44.336C49.3772 44.8906 49.1425 45.3173 48.7585 45.616C48.4172 45.9146 48.0545 46.064 47.6705 46.064C47.2865 46.064 46.9025 45.9146 46.5185 45.616C46.1772 45.3173 45.9425 44.8266 45.8145 44.144C45.7718 43.9306 45.7505 43.568 45.7505 43.056C45.7505 42.5013 45.7505 41.9466 45.7505 41.392C45.7505 40.7946 45.7505 40.24 45.7505 39.728C45.7932 39.1733 45.8145 38.768 45.8145 38.512C45.8145 36.5493 45.7932 34.5653 45.7505 32.56C45.7078 30.5546 45.6865 28.528 45.6865 26.48C45.6865 23.664 45.7505 20.8693 45.8785 18.096C46.0492 15.28 46.3692 12.528 46.8385 9.83996C47.0092 8.98662 47.2012 8.06929 47.4145 7.08796C47.6705 6.06396 48.0332 5.10396 48.5025 4.20795C48.9718 3.31196 49.6332 2.65062 50.4865 2.22396C50.8705 1.92529 51.3185 1.77596 51.8305 1.77596C52.5558 1.77596 53.1105 1.94662 53.4945 2.28796C53.9212 2.62929 54.1345 3.01329 54.1345 3.43996C54.1345 4.03729 53.7505 4.48529 52.9825 4.78395C52.8545 4.82662 52.7052 4.86929 52.5345 4.91196C52.4065 4.91196 52.2572 4.95462 52.0865 5.03996C51.7025 5.16796 51.3612 5.61596 51.0625 6.38396C50.8065 7.15196 50.5932 7.94129 50.4225 8.75196C50.2945 9.56262 50.2092 10.1173 50.1665 10.416C49.7398 12.8906 49.4838 15.4293 49.3985 18.032C49.3132 20.592 49.2492 23.1306 49.2065 25.648C49.9318 24.0266 50.8278 22.5333 51.8945 21.168C53.0038 19.8026 54.3052 18.7146 55.7985 17.904C57.3345 17.0506 59.1052 16.624 61.1105 16.624C63.3292 16.624 65.2705 17.2213 66.9345 18.416C68.6412 19.6106 69.9212 21.2106 70.7745 23.216C71.2438 24.2826 71.5638 25.4346 71.7345 26.672C71.9478 27.9093 72.0545 29.1466 72.0545 30.384C72.0545 31.0666 72.0332 31.7493 71.9905 32.432C71.9478 33.072 71.8838 33.6906 71.7985 34.288C71.4998 36.336 70.7318 38.2773 69.4945 40.112C68.2998 41.9466 66.8278 43.4186 65.0785 44.528C64.0545 45.168 62.9025 45.6586 61.6225 46C60.3852 46.2986 59.1052 46.448 57.7825 46.448Z" fill="url(#paint2_linear_3050_59914)"/>
<path d="M78.3045 45.744C77.8778 45.744 77.4512 45.6373 77.0245 45.424C76.6405 45.168 76.4272 44.848 76.3845 44.464C76.3418 43.7386 76.3205 43.056 76.3205 42.416C76.3205 41.7333 76.3205 41.1146 76.3205 40.56C76.3205 39.3653 76.3205 38.2133 76.3205 37.104C76.3632 35.952 76.3845 34.6293 76.3845 33.136C76.3845 31.2586 76.3632 29.4026 76.3205 27.568C76.2778 25.7333 76.2565 23.8986 76.2565 22.064V17.2C76.2565 16.6453 76.4272 16.24 76.7685 15.984C77.1525 15.6853 77.5365 15.536 77.9205 15.536C78.3045 15.536 78.6672 15.6853 79.0085 15.984C79.3925 16.24 79.5845 16.6453 79.5845 17.2V20.272C80.6512 18.864 81.9952 17.648 83.6165 16.624C85.2378 15.5573 86.9658 15.024 88.8005 15.024C90.4218 15.024 91.9365 15.4506 93.3445 16.304C94.7525 17.1146 95.7338 18.3093 96.2885 19.888C96.5445 20.5706 96.6725 21.3173 96.6725 22.128C96.6725 22.9813 96.5018 23.8346 96.1605 24.688C95.8192 25.4986 95.2645 26.16 94.4965 26.672C94.1552 26.8853 93.8138 26.992 93.4725 26.992C93.0458 26.992 92.6618 26.8426 92.3205 26.544C92.0218 26.2453 91.8725 25.8826 91.8725 25.456C91.8725 24.9866 92.0432 24.56 92.3845 24.176C92.7258 23.792 92.9818 23.4506 93.1525 23.152C93.3658 22.8533 93.4725 22.5333 93.4725 22.192C93.4725 21.808 93.3872 21.424 93.2165 21.04C92.9178 20.144 92.3418 19.4613 91.4885 18.992C90.6778 18.5226 89.7818 18.288 88.8005 18.288C87.7338 18.288 86.7098 18.5866 85.7285 19.184C84.7472 19.7813 83.8725 20.4426 83.1045 21.168C81.9952 22.2346 81.1418 23.536 80.5445 25.072C79.9898 26.608 79.7125 28.144 79.7125 29.68V35.12C79.7125 36.6986 79.7125 38.256 79.7125 39.792C79.7125 41.328 79.6912 42.8853 79.6485 44.464C79.6485 44.9333 79.4992 45.2746 79.2005 45.488C78.9445 45.6586 78.6458 45.744 78.3045 45.744Z" fill="url(#paint3_linear_3050_59914)"/>
<path d="M101.942 12.08C101.131 12.08 100.448 11.7813 99.8935 11.184C99.3388 10.5866 99.0615 9.88262 99.0615 9.07196C99.0615 8.26129 99.3388 7.55729 99.8935 6.95996C100.448 6.36262 101.131 6.06396 101.942 6.06396C102.71 6.06396 103.371 6.36262 103.926 6.95996C104.48 7.55729 104.758 8.26129 104.758 9.07196C104.758 9.88262 104.48 10.5866 103.926 11.184C103.371 11.7813 102.71 12.08 101.942 12.08ZM105.014 47.152C103.862 47.152 102.774 46.6613 101.75 45.68C100.811 44.7413 100.171 43.5253 99.8295 42.032C99.4882 40.5386 99.3175 38.9173 99.3175 37.168C99.3175 35.4613 99.4242 33.712 99.6375 31.92C99.8508 30.128 100.043 28.464 100.214 26.928C100.427 25.3493 100.534 24.048 100.534 23.024C100.534 21.744 100.342 20.912 99.9575 20.528C98.8482 20.016 98.2935 19.3333 98.2935 18.48C98.2935 18.0533 98.4428 17.712 98.7415 17.456C99.0828 17.2 99.4668 17.072 99.8935 17.072C100.491 17.072 101.024 17.2426 101.494 17.584C101.963 17.9253 102.347 18.3093 102.646 18.736C103.115 19.3333 103.414 20.0586 103.542 20.912C103.712 21.7653 103.798 22.6826 103.798 23.664C103.798 24.8586 103.734 26.16 103.606 27.568C103.478 28.9333 103.328 30.2986 103.158 31.664C103.03 32.8586 102.902 34.0106 102.774 35.12C102.688 36.1866 102.646 37.2106 102.646 38.192C102.646 39.344 102.752 40.368 102.966 41.264C103.179 42.16 103.542 42.8426 104.054 43.312C104.352 43.6106 104.715 43.76 105.142 43.76C105.91 43.76 106.635 43.3546 107.318 42.544C108.043 41.7333 108.555 41.0506 108.854 40.496C109.024 40.1973 109.174 39.8986 109.302 39.6C109.43 39.2586 109.579 38.9386 109.75 38.64C110.048 37.9573 110.539 37.616 111.222 37.616C111.648 37.616 112.032 37.7653 112.374 38.064C112.758 38.3626 112.95 38.7466 112.95 39.216C112.95 39.344 112.907 39.536 112.822 39.792C112.523 40.7306 111.968 41.776 111.158 42.928C110.39 44.08 109.472 45.0826 108.406 45.936C107.339 46.7466 106.208 47.152 105.014 47.152Z" fill="url(#paint4_linear_3050_59914)"/>
<path d="M132.234 46.896C130.485 46.896 129.013 46.384 127.819 45.36C126.624 44.2933 125.643 43.0133 124.875 41.52C124.107 40.0266 123.467 38.64 122.955 37.36C122.869 37.104 122.699 36.656 122.443 36.016C122.229 35.376 121.994 34.672 121.739 33.904C121.525 33.0933 121.312 32.368 121.099 31.728C120.928 31.088 120.843 30.64 120.843 30.384C120.8 29.9146 120.843 29.5306 120.971 29.232C121.141 28.8906 121.483 28.6346 121.995 28.464C122.592 28.2933 123.381 27.9946 124.363 27.568C125.387 27.0986 126.41 26.544 127.435 25.904C128.501 25.264 129.44 24.6026 130.251 23.92C131.061 23.2373 131.552 22.576 131.723 21.936C131.808 21.5946 131.85 21.296 131.85 21.04C131.85 20.6133 131.765 20.208 131.594 19.824C131.466 19.44 131.253 19.2266 130.954 19.184C130.699 19.0986 130.442 19.056 130.186 19.056C129.973 19.056 129.738 19.056 129.482 19.056C127.904 19.056 126.453 19.5466 125.131 20.528C123.851 21.5093 122.784 22.704 121.931 24.112C121.248 25.2213 120.608 26.5866 120.011 28.208C119.456 29.8293 118.987 31.472 118.603 33.136C118.261 34.8 118.091 36.2933 118.091 37.616C118.091 38.768 118.069 39.92 118.027 41.072C117.984 42.224 117.963 43.3546 117.963 44.464C117.963 44.8906 117.792 45.232 117.451 45.488C117.152 45.7013 116.789 45.808 116.363 45.808C116.021 45.808 115.68 45.7226 115.339 45.552C115.04 45.3813 114.826 45.104 114.699 44.72C114.656 44.5493 114.613 43.952 114.571 42.928C114.528 41.8613 114.485 40.6453 114.443 39.28C114.443 37.9146 114.421 36.6773 114.379 35.568C114.379 34.4586 114.379 33.776 114.379 33.52C114.379 31.2586 114.336 29.04 114.251 26.864C114.208 24.6453 114.187 22.4906 114.187 20.4C114.187 19.2053 114.208 18.0533 114.251 16.944C114.293 15.8346 114.357 14.7466 114.443 13.68C114.699 10.7786 115.253 8.21862 116.107 5.99996C117.003 3.78129 118.432 2.11729 120.395 1.00796C120.821 0.751956 121.269 0.581289 121.739 0.495956C122.251 0.367956 122.763 0.303955 123.275 0.303955C123.744 0.303955 124.171 0.346622 124.555 0.431957C124.981 0.474623 125.365 0.602623 125.707 0.815956C126.048 0.986623 126.283 1.22129 126.411 1.51995C126.581 1.77596 126.667 2.05329 126.667 2.35196C126.667 2.77862 126.517 3.16262 126.219 3.50396C125.963 3.80262 125.6 3.95196 125.131 3.95196C124.874 3.95196 124.683 3.93062 124.555 3.88795C124.256 3.80262 123.979 3.73862 123.723 3.69596C123.509 3.61062 123.296 3.56796 123.083 3.56796C122.912 3.56796 122.741 3.61062 122.571 3.69596C122.4 3.73862 122.187 3.80262 121.931 3.88795C121.419 4.10129 120.949 4.54929 120.523 5.23196C120.096 5.87196 119.733 6.57596 119.435 7.34396C119.179 8.11196 118.965 8.79462 118.795 9.39196C118.325 11.184 118.005 13.0186 117.835 14.896C117.707 16.7733 117.643 18.6506 117.643 20.528C117.643 21.2533 117.643 22 117.643 22.768C117.685 23.536 117.707 24.2826 117.707 25.008C118.432 23.4293 119.328 21.936 120.395 20.528C121.461 19.12 122.72 17.968 124.171 17.072C125.621 16.1333 127.243 15.664 129.035 15.664C129.93 15.664 130.827 15.792 131.723 16.048C132.874 16.3466 133.728 16.9866 134.283 17.968C134.88 18.9493 135.178 19.9946 135.178 21.104C135.178 21.744 135.093 22.32 134.923 22.832C134.538 24.112 133.728 25.3066 132.49 26.416C131.253 27.4826 129.888 28.4213 128.395 29.232C126.901 30.0426 125.579 30.6613 124.427 31.088C124.64 31.9413 124.96 33.072 125.387 34.48C125.856 35.8453 126.411 37.232 127.051 38.64C127.733 40.0053 128.48 41.1786 129.29 42.16C130.101 43.0986 130.976 43.568 131.914 43.568H132.042C133.536 43.568 134.688 43.1413 135.499 42.288C136.309 41.392 136.928 40.3466 137.354 39.152C137.824 37.9146 138.293 36.784 138.762 35.76C138.933 35.376 139.146 35.0986 139.402 34.928C139.701 34.7573 140 34.672 140.298 34.672C140.768 34.672 141.173 34.864 141.514 35.248C141.856 35.5893 141.963 36.08 141.835 36.72C141.536 38.2133 140.96 39.7493 140.106 41.328C139.253 42.9066 138.165 44.2293 136.842 45.296C135.52 46.3626 133.984 46.896 132.234 46.896Z" fill="url(#paint5_linear_3050_59914)"/>
<path d="M149.952 46.512C149.27 46.512 148.566 46.32 147.84 45.936C146.731 45.3386 145.92 44.4426 145.408 43.248C144.896 42.0106 144.577 40.7306 144.449 39.408C144.32 38.0426 144.257 36.8693 144.257 35.888V23.152C144.257 21.7866 144.278 20.1866 144.32 18.352C144.406 16.4746 144.555 14.576 144.768 12.656C144.982 10.6933 145.302 8.85862 145.729 7.15195C146.198 5.44529 146.795 4.07996 147.52 3.05596C148.288 1.98929 149.27 1.45596 150.464 1.45596C151.403 1.45596 152.192 1.75462 152.832 2.35196C153.472 2.94929 153.984 3.67462 154.368 4.52796C154.795 5.33862 155.115 6.08529 155.328 6.76796C155.67 7.91996 155.926 9.17862 156.096 10.544C156.267 11.8666 156.352 13.2533 156.352 14.704C156.352 17.7333 155.947 20.784 155.136 23.856C154.368 26.928 153.152 29.4666 151.488 31.472C151.104 31.9413 150.529 32.5386 149.76 33.264C148.992 33.9466 148.246 34.2666 147.52 34.224V35.888C147.52 36.272 147.542 36.8693 147.585 37.68C147.627 38.4906 147.712 39.3226 147.84 40.176C148.011 40.9866 148.246 41.6906 148.544 42.288C148.886 42.8853 149.334 43.184 149.888 43.184C150.443 43.184 150.977 42.8853 151.488 42.288C152.043 41.6906 152.512 41.0293 152.896 40.304C153.323 39.5786 153.622 39.024 153.792 38.64C154.134 38 154.667 37.68 155.393 37.68C155.777 37.68 156.139 37.808 156.48 38.064C156.822 38.32 156.992 38.6826 156.992 39.152C156.992 39.3226 156.95 39.536 156.865 39.792C156.609 40.6453 156.139 41.6053 155.456 42.672C154.774 43.7386 153.963 44.656 153.024 45.424C152.086 46.1493 151.062 46.512 149.952 46.512ZM147.52 30.64C148.075 30.256 148.566 29.8293 148.992 29.36C149.803 28.4213 150.507 27.12 151.104 25.456C151.702 23.792 152.171 21.9573 152.512 19.952C152.896 17.9466 153.089 15.984 153.089 14.064C153.089 12.3146 152.918 10.672 152.576 9.13596C152.278 7.59996 151.766 6.34129 151.04 5.35995C150.742 4.93329 150.486 4.71996 150.272 4.71996C150.102 4.71996 149.952 4.84796 149.824 5.10395C149.611 5.48795 149.419 5.89329 149.248 6.31996C149.078 6.74662 148.928 7.19462 148.8 7.66396C148.502 8.73062 148.267 10.032 148.096 11.568C147.926 13.104 147.798 14.7253 147.712 16.432C147.627 18.1386 147.563 19.7813 147.52 21.36C147.52 22.9386 147.52 24.2826 147.52 25.392V30.64Z" fill="url(#paint6_linear_3050_59914)"/>
<path d="M172.473 46.576C169.742 46.576 167.417 45.8506 165.497 44.4C163.62 42.9066 162.19 41.008 161.209 38.704C160.27 36.3573 159.801 33.9253 159.801 31.408C159.801 29.0613 160.206 26.8 161.017 24.624C161.87 22.4053 163.15 20.5493 164.857 19.056C166.478 17.776 168.1 16.8373 169.721 16.24C171.342 15.6426 172.942 15.344 174.521 15.344C177.294 15.344 179.278 16.0053 180.473 17.328C181.71 18.608 182.329 20.1226 182.329 21.872C182.329 23.3226 181.924 24.7946 181.113 26.288C180.345 27.7386 179.278 28.9546 177.913 29.936C176.505 30.9173 174.905 31.7066 173.113 32.304C171.364 32.8586 169.593 33.136 167.801 33.136C166.222 33.136 164.686 32.88 163.193 32.368C163.278 34.288 163.684 36.08 164.409 37.744C165.134 39.408 166.158 40.752 167.481 41.776C168.846 42.8 170.51 43.312 172.473 43.312C173.454 43.312 174.564 43.1626 175.801 42.864C177.081 42.5653 178.233 42.096 179.257 41.456C180.281 40.7733 180.9 39.9413 181.113 38.96C181.198 38.6613 181.241 38.2986 181.241 37.872C181.241 37.4453 181.241 37.0826 181.241 36.784C181.241 36.2293 181.412 35.824 181.753 35.568C182.094 35.312 182.478 35.184 182.905 35.184C183.289 35.184 183.652 35.312 183.993 35.568C184.334 35.824 184.505 36.2293 184.505 36.784C184.505 37.3813 184.505 37.936 184.505 38.448C184.505 38.9173 184.398 39.4506 184.185 40.048C183.673 41.6266 182.756 42.9066 181.433 43.888C180.11 44.8266 178.638 45.5093 177.017 45.936C175.438 46.3626 173.924 46.576 172.473 46.576ZM167.865 29.808C168.633 29.808 169.337 29.744 169.977 29.616C171.385 29.36 172.772 28.912 174.137 28.272C175.545 27.632 176.718 26.7786 177.657 25.712C178.596 24.6026 179.065 23.3013 179.065 21.808C179.065 20.8693 178.724 20.144 178.041 19.632C177.358 19.12 176.548 18.8 175.609 18.672C175.353 18.6293 175.097 18.608 174.841 18.608C174.585 18.5653 174.329 18.544 174.073 18.544C172.196 18.544 170.51 19.056 169.017 20.08C167.524 21.0613 166.286 22.3413 165.305 23.92C164.366 25.4986 163.748 27.184 163.449 28.976C164.089 29.2746 164.793 29.488 165.561 29.616C166.329 29.744 167.097 29.808 167.865 29.808Z" fill="url(#paint7_linear_3050_59914)"/>
<path d="M190.367 45.744C189.94 45.744 189.514 45.6373 189.087 45.424C188.703 45.168 188.49 44.848 188.447 44.464C188.404 43.7386 188.383 43.056 188.383 42.416C188.383 41.7333 188.383 41.1146 188.383 40.56C188.383 39.3653 188.383 38.2133 188.383 37.104C188.426 35.952 188.447 34.6293 188.447 33.136C188.447 31.2586 188.426 29.4026 188.383 27.568C188.34 25.7333 188.319 23.8986 188.319 22.064V17.2C188.319 16.6453 188.49 16.24 188.831 15.984C189.215 15.6853 189.599 15.536 189.983 15.536C190.367 15.536 190.73 15.6853 191.071 15.984C191.455 16.24 191.647 16.6453 191.647 17.2V20.272C192.714 18.864 194.058 17.648 195.679 16.624C197.3 15.5573 199.028 15.024 200.863 15.024C202.484 15.024 203.999 15.4506 205.407 16.304C206.815 17.1146 207.796 18.3093 208.351 19.888C208.607 20.5706 208.735 21.3173 208.735 22.128C208.735 22.9813 208.564 23.8346 208.223 24.688C207.882 25.4986 207.327 26.16 206.559 26.672C206.218 26.8853 205.876 26.992 205.535 26.992C205.108 26.992 204.724 26.8426 204.383 26.544C204.084 26.2453 203.935 25.8826 203.935 25.456C203.935 24.9866 204.106 24.56 204.447 24.176C204.788 23.792 205.044 23.4506 205.215 23.152C205.428 22.8533 205.535 22.5333 205.535 22.192C205.535 21.808 205.45 21.424 205.279 21.04C204.98 20.144 204.404 19.4613 203.551 18.992C202.74 18.5226 201.844 18.288 200.863 18.288C199.796 18.288 198.772 18.5866 197.791 19.184C196.81 19.7813 195.935 20.4426 195.167 21.168C194.058 22.2346 193.204 23.536 192.607 25.072C192.052 26.608 191.775 28.144 191.775 29.68V35.12C191.775 36.6986 191.775 38.256 191.775 39.792C191.775 41.328 191.754 42.8853 191.711 44.464C191.711 44.9333 191.562 45.2746 191.263 45.488C191.007 45.6586 190.708 45.744 190.367 45.744Z" fill="url(#paint8_linear_3050_59914)"/>
<defs>
<linearGradient id="paint0_linear_3050_59914" x1="9.396" y1="27" x2="204.896" y2="27" gradientUnits="userSpaceOnUse">
<stop stop-color="#FFCD99"/>
<stop offset="1" stop-color="#FF5000"/>
</linearGradient>
<linearGradient id="paint1_linear_3050_59914" x1="9.396" y1="27" x2="204.896" y2="27" gradientUnits="userSpaceOnUse">
<stop stop-color="#FFCD99"/>
<stop offset="1" stop-color="#FF5000"/>
</linearGradient>
<linearGradient id="paint2_linear_3050_59914" x1="9.396" y1="27" x2="204.896" y2="27" gradientUnits="userSpaceOnUse">
<stop stop-color="#FFCD99"/>
<stop offset="1" stop-color="#FF5000"/>
</linearGradient>
<linearGradient id="paint3_linear_3050_59914" x1="9.396" y1="27" x2="204.896" y2="27" gradientUnits="userSpaceOnUse">
<stop stop-color="#FFCD99"/>
<stop offset="1" stop-color="#FF5000"/>
</linearGradient>
<linearGradient id="paint4_linear_3050_59914" x1="9.396" y1="27" x2="204.896" y2="27" gradientUnits="userSpaceOnUse">
<stop stop-color="#FFCD99"/>
<stop offset="1" stop-color="#FF5000"/>
</linearGradient>
<linearGradient id="paint5_linear_3050_59914" x1="9.396" y1="27" x2="204.896" y2="27" gradientUnits="userSpaceOnUse">
<stop stop-color="#FFCD99"/>
<stop offset="1" stop-color="#FF5000"/>
</linearGradient>
<linearGradient id="paint6_linear_3050_59914" x1="9.396" y1="27" x2="204.896" y2="27" gradientUnits="userSpaceOnUse">
<stop stop-color="#FFCD99"/>
<stop offset="1" stop-color="#FF5000"/>
</linearGradient>
<linearGradient id="paint7_linear_3050_59914" x1="9.396" y1="27" x2="204.896" y2="27" gradientUnits="userSpaceOnUse">
<stop stop-color="#FFCD99"/>
<stop offset="1" stop-color="#FF5000"/>
</linearGradient>
<linearGradient id="paint8_linear_3050_59914" x1="9.396" y1="27" x2="204.896" y2="27" gradientUnits="userSpaceOnUse">
<stop stop-color="#FFCD99"/>
<stop offset="1" stop-color="#FF5000"/>
</linearGradient>
</defs>
</svg>
