<svg width="16" height="16" viewBox="0 0 16 16" fill="none" xmlns="http://www.w3.org/2000/svg">
<path d="M12.3333 9.4641V11.8022C12.3333 13.016 11.3628 14 10.1656 14C8.96843 14 7.99793 13.016 7.99793 11.8022L8.00199 4.38097C8.00199 3.06599 7.03149 2 5.83429 2C4.63713 2 3.66663 3.06599 3.66663 4.38097V9.4641" stroke="white"/>
<path d="M14.3334 10.3335L12.3334 8.3335L10.3334 10.3335" stroke="white"/>
<path d="M14.3334 3.5756C14.3334 5.06044 12.3334 6.33317 12.3334 6.33317C12.3334 6.33317 10.3334 5.06044 10.3334 3.5756C10.3334 3.06927 10.5441 2.58369 10.9192 2.22566C11.2942 1.86764 11.8029 1.6665 12.3334 1.6665C12.8638 1.6665 13.3725 1.86764 13.7476 2.22566C14.1227 2.58369 14.3334 3.06927 14.3334 3.5756Z" stroke="white"/>
<path d="M5.66663 11.5756C5.66663 13.0604 3.66663 14.3332 3.66663 14.3332C3.66663 14.3332 1.66663 13.0604 1.66663 11.5756C1.66663 11.0693 1.87734 10.5837 2.25241 10.2257C2.62749 9.86764 3.13619 9.6665 3.66663 9.6665C4.19706 9.6665 4.70576 9.86764 5.08083 10.2257C5.45593 10.5837 5.66663 11.0693 5.66663 11.5756Z" stroke="white"/>
<path d="M12.3333 4.33333C12.7015 4.33333 13 4.03486 13 3.66667C13 3.29848 12.7015 3 12.3333 3C11.9651 3 11.6666 3.29848 11.6666 3.66667C11.6666 4.03486 11.9651 4.33333 12.3333 4.33333Z" fill="white"/>
<path d="M3.66667 12.3333C4.03486 12.3333 4.33333 12.0349 4.33333 11.6667C4.33333 11.2985 4.03486 11 3.66667 11C3.29848 11 3 11.2985 3 11.6667C3 12.0349 3.29848 12.3333 3.66667 12.3333Z" fill="white"/>
</svg>
