<svg width="32" height="32" viewBox="0 0 32 32" fill="none" xmlns="http://www.w3.org/2000/svg">
<path d="M8.00016 25.9998C9.4729 25.9998 10.6668 24.8059 10.6668 23.3332C10.6668 21.8604 9.4729 20.6665 8.00016 20.6665C6.5274 20.6665 5.3335 21.8604 5.3335 23.3332C5.3335 24.8059 6.5274 25.9998 8.00016 25.9998Z" stroke="#F8FAFC"/>
<path d="M23.3332 25.9998C24.8059 25.9998 25.9998 24.8059 25.9998 23.3332C25.9998 21.8604 24.8059 20.6665 23.3332 20.6665C21.8604 20.6665 20.6665 21.8604 20.6665 23.3332C20.6665 24.8059 21.8604 25.9998 23.3332 25.9998Z" stroke="#F8FAFC"/>
<path d="M5.3335 23.3335H1.3335V7.3335H20.6668V23.3335H10.6668" stroke="#F8FAFC"/>
<path d="M20.6665 23.3333V12H26.3808L30.6665 17.6667V23.3333H26.5406" stroke="#F8FAFC"/>
</svg>
